<svg width="24" height="24" viewBox="0 0 24 24" fill="none" xmlns="http://www.w3.org/2000/svg">
<path d="M11.6445 3.00008C15.8407 3.0003 19.2998 6.34667 19.2998 10.4864C19.2997 12.5723 18.5416 14.5091 17.293 16.1505C15.9153 17.9612 14.2169 19.5391 12.3057 20.7774C11.8683 21.0636 11.4732 21.0852 10.9932 20.7774C9.07112 19.5391 7.3736 17.9611 6.00781 16.1505C4.75822 14.509 4.00008 12.5724 4 10.4864C4 6.34652 7.45992 3.00008 11.6445 3.00008ZM11.6445 8.1993C10.257 8.1993 9.12518 9.34291 9.125 10.7188C9.125 12.1057 10.2569 13.1964 11.6445 13.1964C13.0328 13.1961 14.1748 12.1055 14.1748 10.7188C14.1746 9.34306 13.0327 8.19954 11.6445 8.1993Z" fill="#93288E"/>
</svg>
