<svg width="24" height="24" viewBox="0 0 24 24" fill="none" xmlns="http://www.w3.org/2000/svg">
<path d="M9.86514 2.88583C11.0355 1.70689 12.9464 1.70624 14.1269 2.87606L14.8573 3.60555C15.1374 3.88545 15.5178 4.04598 15.9179 4.04598H16.9481C18.6086 4.04615 19.9589 5.39585 19.9589 7.05575V8.08602C19.9589 8.48502 20.1192 8.86559 20.3993 9.14559L21.119 9.86532C21.6892 10.4253 21.9999 11.1854 21.9999 11.9854C22.0099 12.7854 21.6996 13.5463 21.1396 14.1153L20.3993 14.8556C20.1193 15.1355 19.959 15.5152 19.9589 15.9161V16.9454C19.9589 18.6053 18.6086 19.956 16.9481 19.9561H15.9179C15.5178 19.9561 15.1374 20.1156 14.8573 20.3956L14.1366 21.1153C13.5464 21.7063 12.776 21.9952 12.0058 21.9952C11.2356 21.9951 10.465 21.706 9.8749 21.1261L9.14541 20.3956C8.86537 20.1156 8.48492 19.9562 8.08486 19.9561H7.05459C5.39399 19.9561 4.04287 18.6054 4.04287 16.9454V15.9161C4.04278 15.5154 3.88321 15.1357 3.60342 14.8458L2.88272 14.1358C1.71229 12.9668 1.70253 11.0551 2.87295 9.87606L3.60342 9.14559C3.88343 8.86561 4.04287 8.48521 4.04287 8.07528V7.05575C4.04287 5.39575 5.39399 4.04598 7.05459 4.04598H8.08486C8.48492 4.04592 8.86537 3.8855 9.14541 3.60555L9.86514 2.88583ZM15.1864 8.80575C14.8463 8.46714 14.2959 8.46688 13.956 8.80575L8.81436 13.9464C8.47496 14.2863 8.47478 14.8458 8.81436 15.1856C8.97432 15.3555 9.1948 15.4463 9.42471 15.4464C9.66461 15.4464 9.8848 15.3554 10.0448 15.1856L15.1864 10.047C15.5265 9.70699 15.5264 9.14576 15.1864 8.80575ZM14.5771 13.6964C14.087 13.6965 13.6962 14.0876 13.6962 14.5665C13.6967 15.056 14.0873 15.4462 14.5771 15.4464C15.0568 15.4462 15.4467 15.056 15.4472 14.5665C15.4472 14.0876 15.0571 13.6966 14.5771 13.6964ZM9.43545 8.55575C8.95528 8.55575 8.55459 8.94586 8.55459 9.42586C8.55481 9.91668 8.95541 10.3057 9.43545 10.3057C9.91535 10.3056 10.3054 9.91657 10.3056 9.42586C10.3056 8.94597 9.91548 8.55592 9.43545 8.55575Z" fill="#93288E"/>
</svg>
