<svg width="24" height="24" viewBox="0 0 24 24" fill="none" xmlns="http://www.w3.org/2000/svg">
<path d="M11 7H13V13H11V7ZM12 15C12.2833 15 12.521 15.096 12.713 15.288C12.905 15.48 13.0007 15.7173 13 16C12.9993 16.2827 12.9033 16.52 12.712 16.712C12.5207 16.904 12.2833 17 12 17C11.7167 17 11.4793 16.904 11.288 16.712C11.0967 16.52 11.0007 16.2827 11 16C10.9993 15.7173 11.0953 15.4797 11.288 15.287C11.4807 15.0943 11.718 14.9987 12 15ZM12 2C10.6167 2 9.31667 2.26267 8.1 2.788C6.88334 3.31333 5.825 4.02567 4.925 4.925C4.025 5.82433 3.31267 6.88267 2.788 8.1C2.26333 9.31733 2.00067 10.6173 2 12C1.99933 13.3827 2.262 14.6827 2.788 15.9C3.314 17.1173 4.02633 18.1757 4.925 19.075C5.82367 19.9743 6.882 20.6867 8.1 21.212C9.318 21.7373 10.618 22 12 22C13.382 22 14.682 21.7373 15.9 21.212C17.118 20.6867 18.1763 19.9743 19.075 19.075C19.9737 18.1757 20.6863 17.1173 21.213 15.9C21.7397 14.6827 22.002 13.3827 22 12C21.998 10.6173 21.7353 9.31733 21.212 8.1C20.6887 6.88267 19.9763 5.82433 19.075 4.925C18.1737 4.02567 17.1153 3.313 15.9 2.787C14.6847 2.261 13.3847 1.99867 12 2ZM12 4C14.2333 4 16.125 4.775 17.675 6.325C19.225 7.875 20 9.76667 20 12C20 14.2333 19.225 16.125 17.675 17.675C16.125 19.225 14.2333 20 12 20C9.76667 20 7.875 19.225 6.325 17.675C4.775 16.125 4 14.2333 4 12C4 9.76667 4.775 7.875 6.325 6.325C7.875 4.775 9.76667 4 12 4Z" fill="#F16F5B"/>
</svg>
