<svg width="22" height="22" viewBox="0 0 22 22" fill="none" xmlns="http://www.w3.org/2000/svg">
<path d="M13.858 17.041C12.3002 17.041 10.743 17.041 9.18523 17.041C8.43355 17.041 8.12713 16.7212 8.15954 15.9744C8.2629 13.5689 10.1754 11.5603 12.5834 11.3689C13.688 11.2808 14.7987 11.2349 15.8941 11.4863C17.8182 11.9285 19.3883 13.7548 19.5295 15.7089C19.6097 16.8135 19.3968 17.041 18.2867 17.041C16.8109 17.041 15.3344 17.041 13.8586 17.041H13.858Z" fill="url(#paint0_linear_554_4617)"/>
<path d="M13.7446 10.5118C12.1342 10.5136 10.8241 9.20903 10.8211 7.59986C10.818 5.98396 12.1495 4.65675 13.7611 4.67021C15.3519 4.68366 16.6693 6.00782 16.6638 7.58824C16.6577 9.20047 15.3507 10.5093 13.7446 10.5112V10.5118Z" fill="url(#paint1_linear_554_4617)"/>
<path d="M7.00265 10.5118C5.39225 10.5136 4.08216 9.20903 4.07911 7.59986C4.07605 5.98396 5.40754 4.65675 7.01916 4.67021C8.60998 4.68366 9.92741 6.00782 9.9219 7.58824C9.91579 9.20047 8.60876 10.5093 7.00265 10.5112V10.5118Z" fill="url(#paint2_linear_554_4617)"/>
<path d="M7.10906 17.0408C6.40753 17.0408 5.69622 17.0408 4.98552 17.0408C4.42588 17.0408 3.86625 17.0408 3.30662 17.0408C2.35311 17.0408 2.0895 16.7705 2.11886 15.8231C2.18797 13.6041 3.6424 11.8408 5.82649 11.4176C6.8479 11.22 7.88398 11.2469 8.91211 11.6066C7.49682 13.1632 6.79224 14.924 7.10906 17.0408Z" fill="url(#paint3_linear_554_4617)"/>
<defs>
<linearGradient id="paint0_linear_554_4617" x1="13.851" y1="11.2989" x2="13.851" y2="17.041" gradientUnits="userSpaceOnUse">
<stop stop-color="#92278F"/>
<stop offset="1" stop-color="#EA725B"/>
</linearGradient>
<linearGradient id="paint1_linear_554_4617" x1="13.7425" y1="4.6701" x2="13.7425" y2="10.5118" gradientUnits="userSpaceOnUse">
<stop stop-color="#92278F"/>
<stop offset="1" stop-color="#EA725B"/>
</linearGradient>
<linearGradient id="paint2_linear_554_4617" x1="7.00051" y1="4.6701" x2="7.00051" y2="10.5118" gradientUnits="userSpaceOnUse">
<stop stop-color="#92278F"/>
<stop offset="1" stop-color="#EA725B"/>
</linearGradient>
<linearGradient id="paint3_linear_554_4617" x1="5.5144" y1="11.2952" x2="5.5144" y2="17.0408" gradientUnits="userSpaceOnUse">
<stop stop-color="#92278F"/>
<stop offset="1" stop-color="#EA725B"/>
</linearGradient>
</defs>
</svg>
