<svg width="194" height="54" viewBox="0 0 194 54" fill="none" xmlns="http://www.w3.org/2000/svg">
<path d="M82.2811 22.9051C82.0713 24.0133 81.7355 24.9031 81.2738 25.5579C80.8708 26.1455 80.2832 26.6073 79.5528 26.9179C78.8141 27.2369 77.9746 27.3964 77.0596 27.3964C75.2211 27.3964 73.7184 26.75 72.6019 25.474C71.9975 24.7856 71.5358 23.9293 71.2168 22.9135C70.8978 21.9062 70.7383 20.7477 70.7383 19.4884C70.7383 18.0026 70.9733 16.6594 71.4266 15.4925C71.754 14.6614 72.1738 13.9143 72.6775 13.2679C73.1811 12.6215 73.7436 12.1094 74.3312 11.7652C75.0028 11.3707 75.8087 11.1692 76.7238 11.1692C77.3366 11.1692 77.8822 11.2699 78.3691 11.463C78.856 11.6561 79.3345 11.9751 79.7879 12.4032C80.3839 12.9657 80.8456 13.5953 81.1562 14.2753C81.3325 14.653 81.5676 15.2323 81.8446 15.9962C81.8866 16.1053 81.9537 16.2648 82.0293 16.4831H82.1888L82.0461 11.2447H81.8614C81.7858 11.4126 81.7271 11.5386 81.6683 11.6141C81.4249 11.9331 81.0807 11.9667 80.5938 11.782L79.6116 11.4546C78.537 11.0852 77.5129 10.9089 76.5559 10.9089C75.5485 10.9089 74.5327 11.0768 73.5253 11.4126C72.5263 11.7484 71.6533 12.2101 70.9313 12.781C69.9995 13.5281 69.2608 14.5187 68.7403 15.7444C68.2198 16.97 67.9512 18.3216 67.9512 19.7739C67.9512 21.6711 68.4045 23.3249 69.3027 24.6848C70.201 26.0448 71.4602 27.0018 73.0468 27.5223C74.0458 27.8497 75.1036 28.0092 76.2033 28.0092C77.3786 28.0092 78.4195 27.8245 79.3094 27.4467C80.1992 27.0774 80.9044 26.5317 81.3997 25.8349C81.9202 25.113 82.2643 24.1308 82.4154 22.9051L82.2643 22.88L82.2811 22.9051Z" fill="#92278F"/>
<path d="M99.9103 13.9981C99.0541 13.0243 98.0383 12.252 96.8966 11.7231C95.7549 11.1859 94.5628 10.9172 93.3456 10.9172C92.3886 10.9172 91.4232 11.0851 90.483 11.4209C89.5427 11.7567 88.6445 12.252 87.8302 12.8732C86.7389 13.7211 85.891 14.7285 85.3201 15.8618C84.7493 16.9951 84.4639 18.2459 84.4639 19.5807C84.4639 20.5965 84.6486 21.587 84.9927 22.5273C85.3453 23.4675 85.8574 24.3154 86.5122 25.0541C87.3433 25.9943 88.3507 26.7415 89.4924 27.2536C90.6425 27.7656 91.8597 28.0259 93.1189 28.0259C94.3781 28.0259 95.6374 27.7572 96.8043 27.2284C97.9711 26.6995 98.9953 25.9356 99.8516 24.9702C100.548 24.1978 101.086 23.3248 101.447 22.3762C101.816 21.4359 101.992 20.437 101.992 19.4212C101.992 17.4064 101.287 15.5764 99.8935 13.9897L99.9103 13.9981ZM97.3163 25.6921C96.7371 26.4225 96.1159 26.9513 95.4695 27.2703C94.8231 27.5977 94.0675 27.7572 93.2197 27.7572C92.3718 27.7572 91.6246 27.5893 90.9866 27.2619C90.3402 26.9345 89.7274 26.4057 89.1566 25.6837C87.8806 24.0803 87.2426 22.0907 87.2426 19.757C87.2426 18.4306 87.4188 17.1714 87.763 16.0213C88.1072 14.8628 88.6025 13.8722 89.2405 13.0747C89.7778 12.4031 90.3654 11.9162 90.9866 11.614C91.6163 11.3118 92.3634 11.1607 93.2197 11.1607C94.0759 11.1607 94.8483 11.3118 95.4779 11.6224C96.1159 11.9246 96.6951 12.4115 97.2156 13.0831C97.8536 13.889 98.3489 14.8796 98.7015 16.0381C99.0457 17.1882 99.2304 18.4306 99.2304 19.7234C99.2304 22.0823 98.584 24.0887 97.3163 25.7005V25.6921Z" fill="#92278F"/>
<path d="M116.901 27.279C116.708 27.1783 116.498 27.002 116.297 26.7417C116.045 26.4311 115.734 25.9358 115.373 25.2559C115.012 24.5759 114.467 23.5014 113.753 22.0407C113.451 21.4026 113.216 20.9493 113.065 20.7059C112.914 20.4624 112.754 20.2526 112.57 20.0847C112.343 19.8748 111.99 19.6733 111.52 19.4718L111.327 19.3879L111.537 19.3459C112.116 19.22 112.586 19.0857 112.922 18.943C113.266 18.8003 113.585 18.6156 113.862 18.3973C114.786 17.6585 115.256 16.668 115.256 15.4423C115.256 14.6196 115.038 13.8809 114.618 13.2597C114.19 12.6385 113.577 12.1599 112.805 11.8409C112.108 11.5639 111.134 11.396 109.908 11.3457C109.598 11.3457 108.96 11.3289 107.994 11.3289H102.261V11.4716C102.689 11.4968 103.05 11.5639 103.335 11.6647C103.637 11.7738 103.898 11.9501 104.116 12.1851C104.376 12.4454 104.561 12.7896 104.653 13.1925C104.746 13.5871 104.788 14.2083 104.788 15.0394V23.9043C104.788 24.7354 104.746 25.3482 104.653 25.7512C104.561 26.1541 104.385 26.4899 104.116 26.7585C103.898 26.9936 103.637 27.1615 103.344 27.2706C103.067 27.3798 102.706 27.4469 102.261 27.4721V27.6148H109.816V27.4721C109.371 27.4469 109.01 27.3798 108.733 27.2706C108.439 27.1615 108.179 26.9852 107.961 26.7585C107.701 26.4983 107.524 26.1541 107.432 25.7512C107.34 25.3482 107.289 24.7354 107.289 23.9127V19.5894H107.944C108.305 19.5894 108.624 19.6229 108.876 19.6985C109.136 19.7657 109.371 19.8832 109.598 20.0511C110.026 20.3785 110.513 20.9829 111.025 21.8644C111.537 22.7458 112.049 23.77 112.553 24.9117L113.392 26.8257C113.443 26.9432 113.569 27.2119 113.762 27.6232H117.64V27.4721C117.329 27.4385 117.086 27.3714 116.901 27.279ZM107.81 19.3879H107.348V11.6395H107.843C108.7 11.6395 109.363 11.6898 109.833 11.8074C110.295 11.9165 110.698 12.1096 111.033 12.3782C111.47 12.7392 111.806 13.2009 112.049 13.755C112.293 14.309 112.418 14.9051 112.418 15.5431C112.418 16.7351 111.999 17.7257 111.159 18.5232C110.781 18.8758 110.379 19.1109 109.95 19.22C109.522 19.3291 108.809 19.3879 107.818 19.3879H107.81Z" fill="#92278F"/>
<path d="M134.967 15.9121C134.346 14.6361 133.473 13.6035 132.364 12.8144C131.198 11.9917 129.762 11.5132 128.091 11.3873C127.689 11.3537 126.748 11.3369 125.296 11.3369H118.748V11.4796C119.487 11.53 120.066 11.7147 120.461 12.0421C120.78 12.3107 121.006 12.6633 121.115 13.083C121.225 13.4944 121.283 14.1492 121.283 15.039V23.904C121.283 24.7266 121.241 25.3395 121.141 25.7424C121.048 26.1454 120.872 26.4896 120.612 26.7498C120.377 26.9932 120.116 27.1612 119.831 27.2703C119.562 27.371 119.201 27.4382 118.756 27.4634V27.6061H127.579C128.604 27.6061 129.628 27.5137 130.61 27.329C131.92 27.0856 133.028 26.5064 133.909 25.6081C134.53 24.9701 135.026 24.1558 135.378 23.182C135.731 22.2082 135.907 21.1672 135.907 20.0675C135.907 18.5649 135.596 17.1629 134.975 15.8953L134.967 15.9121ZM132.692 22.905C132.406 23.82 131.987 24.6427 131.433 25.3479C130.879 26.0782 130.232 26.6239 129.527 26.9513C128.822 27.2787 127.957 27.4466 126.967 27.4466C125.8 27.4466 124.935 27.1192 124.415 26.4812C124.171 26.1874 124.003 25.8264 123.911 25.4066C123.819 24.9953 123.777 24.3909 123.777 23.6017V11.572H125.296C126.337 11.572 127.21 11.6643 127.89 11.849C129.132 12.1932 130.215 12.9151 131.114 13.9897C131.76 14.762 132.255 15.677 132.608 16.7012C132.952 17.7338 133.128 18.8335 133.128 19.9668C133.128 20.9994 132.986 21.9815 132.7 22.8966L132.692 22.905Z" fill="#92278F"/>
<path d="M150.371 22.9553C150.22 23.6521 150.052 24.2314 149.884 24.6595C149.699 25.1044 149.464 25.5074 149.171 25.8599C148.759 26.3804 148.214 26.7666 147.55 27.0184C146.896 27.2619 146.073 27.3878 145.107 27.3878C144.142 27.3878 143.437 27.2535 142.874 26.9765C142.304 26.6994 141.875 26.2629 141.598 25.6753C141.439 25.3311 141.321 24.9029 141.271 24.3993C141.212 23.904 141.187 23.0897 141.187 21.9899V19.1693H141.943C142.539 19.1693 143.042 19.228 143.429 19.354C143.823 19.4799 144.15 19.673 144.394 19.9332C144.646 20.2018 144.847 20.5376 144.99 20.9238C145.124 21.2932 145.233 21.7801 145.309 22.3677H145.46L145.51 16.0464H145.359C145.292 16.634 145.2 17.0874 145.099 17.398C144.99 17.7254 144.814 18.0108 144.587 18.2459C144.344 18.5061 144.033 18.6824 143.655 18.7831C143.286 18.8839 142.723 18.9258 141.993 18.9258H141.204V11.572H144.025C144.872 11.572 145.569 11.6307 146.081 11.7483C146.602 11.8658 147.063 12.0673 147.441 12.3527C147.903 12.6885 148.264 13.0914 148.507 13.5447C148.742 13.9813 148.919 14.5269 149.019 15.1817H149.171L148.969 11.3369H136.167V11.4796C136.604 11.5048 136.973 11.572 137.25 11.6727C137.544 11.7818 137.804 11.9581 138.031 12.1932C138.282 12.4534 138.459 12.7976 138.56 13.2006C138.652 13.6035 138.702 14.2163 138.702 15.039V23.904C138.702 24.7183 138.66 25.3395 138.56 25.7424C138.467 26.1454 138.291 26.4896 138.031 26.7498C137.804 26.9932 137.535 27.1612 137.242 27.2703C136.964 27.371 136.604 27.4382 136.175 27.4634V27.6061H150.396L150.547 22.9553H150.396H150.371Z" fill="#92278F"/>
<path d="M166.255 22.8042C166.104 23.5262 165.936 24.1138 165.768 24.5588C165.583 25.0205 165.348 25.4402 165.071 25.8012C164.652 26.3385 164.098 26.7414 163.434 26.9933C162.78 27.2451 161.957 27.3794 161 27.3794C160.043 27.3794 159.329 27.2451 158.767 26.9681C158.204 26.691 157.768 26.2545 157.482 25.6669C157.323 25.3395 157.205 24.8946 157.155 24.3741C157.096 23.8536 157.071 23.0477 157.071 21.9899V15.0474C157.071 14.2079 157.121 13.5699 157.214 13.167C157.315 12.7556 157.508 12.4031 157.785 12.1344C158.011 11.9245 158.263 11.765 158.557 11.6643C158.826 11.572 159.178 11.5132 159.598 11.4796V11.3369H152.043V11.4796C152.454 11.4964 152.798 11.5552 153.058 11.6475C153.344 11.7483 153.604 11.9078 153.831 12.1176C154.108 12.3863 154.309 12.7305 154.41 13.1418C154.511 13.5531 154.561 14.1912 154.561 15.039V23.904C154.561 24.7183 154.519 25.3395 154.418 25.7424C154.326 26.1454 154.15 26.4896 153.889 26.7498C153.453 27.2031 152.823 27.4466 152.034 27.455V27.6061H166.263L166.415 22.8042L166.247 22.7875L166.255 22.8042Z" fill="#92278F"/>
<path d="M172.97 13.5699C173.046 12.9907 173.247 12.529 173.566 12.1932C173.801 11.9581 174.062 11.7818 174.355 11.6727C174.632 11.572 174.993 11.5048 175.422 11.4796V11.3369H167.866V11.4796C168.303 11.5048 168.664 11.572 168.941 11.6727C169.243 11.7818 169.503 11.9581 169.721 12.1932C169.982 12.4534 170.166 12.7976 170.259 13.2006C170.351 13.5951 170.393 14.2163 170.393 15.0474V23.9124C170.393 24.7434 170.351 25.3563 170.259 25.7592C170.166 26.1622 169.99 26.498 169.721 26.7666C169.503 27.0016 169.243 27.1695 168.949 27.2787C168.672 27.3878 168.311 27.455 167.866 27.4802V27.6229H175.422V27.4802C174.901 27.4466 174.473 27.3458 174.146 27.1947C173.81 27.0352 173.524 26.7834 173.314 26.456C173.163 26.2125 173.054 25.8935 172.987 25.5074C172.92 25.1212 172.886 24.5839 172.886 23.9207V15.0558C172.886 14.5018 172.911 14.0065 172.962 13.5783L172.97 13.5699Z" fill="#92278F"/>
<path d="M192.816 27.2793C192.564 27.2037 192.337 27.0862 192.136 26.9351C191.859 26.7252 191.598 26.4062 191.363 25.9865C191.128 25.5751 190.818 24.8867 190.423 23.9297L185.21 11.3291H184.614L180.232 22.6285C179.829 23.6611 179.501 24.4418 179.258 24.9623C179.006 25.4828 178.754 25.9109 178.494 26.2467C178.183 26.658 177.864 26.9687 177.537 27.1533C177.226 27.338 176.857 27.4388 176.454 27.4723V27.6151H181.709V27.4639C181.239 27.422 180.845 27.2877 180.534 27.0694C180.299 26.9015 180.114 26.6832 179.98 26.423C179.846 26.1627 179.778 25.8689 179.778 25.5667C179.778 25.0546 179.963 24.3495 180.324 23.4596L180.626 22.7125L181.264 21.0083H186.645L188.022 24.3914C188.249 24.9539 188.358 25.4072 188.358 25.743C188.358 26.3139 188.098 26.7756 187.586 27.0946C187.3 27.2709 186.822 27.3968 186.125 27.4556V27.6067H193.899V27.4556C193.428 27.4052 193.067 27.338 192.824 27.2625L192.816 27.2793ZM181.491 20.5886L183.875 14.3596L186.402 20.5886H181.491Z" fill="#92278F"/>
<path d="M97.6339 41.9116C97.439 42.19 97.1699 42.4034 96.8265 42.5519C96.4832 42.7004 96.0934 42.7746 95.6573 42.7746C94.8036 42.7746 94.0983 42.4684 93.5786 41.8745C93.3002 41.559 93.0775 41.1507 92.9383 40.6867C92.7899 40.2134 92.7156 39.6845 92.7156 39.0998C92.7156 38.4132 92.827 37.7914 93.0404 37.2532C93.1889 36.8727 93.3838 36.5201 93.625 36.2232C93.857 35.9169 94.1169 35.6849 94.3953 35.5272C94.7108 35.3416 95.0912 35.2488 95.5181 35.2488C95.8058 35.2488 96.0656 35.2952 96.2883 35.388C96.5203 35.4808 96.743 35.6292 96.9564 35.8334C97.2348 36.0932 97.4483 36.3902 97.5967 36.7057C97.6803 36.882 97.7916 37.1511 97.9123 37.5037C97.9308 37.5501 97.9494 37.6151 97.9865 37.6986L97.9215 35.3787H97.9123C97.8844 35.4437 97.8566 35.4993 97.8287 35.5272C97.7081 35.6849 97.5318 35.7128 97.2812 35.62L96.8358 35.4715C96.344 35.3045 95.88 35.2209 95.4439 35.2209C94.9892 35.2209 94.5252 35.2952 94.0705 35.4529C93.6158 35.6014 93.2167 35.8148 92.8919 36.0747C92.4651 36.4087 92.131 36.8634 91.899 37.4202C91.6577 37.977 91.5371 38.5987 91.5371 39.2576C91.5371 40.1206 91.7413 40.8723 92.1496 41.494C92.5579 42.1065 93.1239 42.5426 93.8477 42.7839C94.3025 42.9324 94.785 43.0066 95.2861 43.0066C95.815 43.0066 96.2976 42.9231 96.6966 42.756C97.0956 42.589 97.4111 42.3385 97.6431 42.0322C97.838 41.7631 97.9679 41.4198 98.0515 41.0022C97.9494 41.3827 97.8195 41.6982 97.6431 41.9394L97.6339 41.9116Z" fill="#92278F"/>
<path fill-rule="evenodd" clip-rule="evenodd" d="M97.7231 41.9124C97.7229 41.9127 97.7227 41.913 97.7225 41.9133C97.7139 41.9275 97.7051 41.9415 97.6962 41.9553C97.6928 41.9605 97.6894 41.9657 97.686 41.9708C97.6722 41.9918 97.658 42.0123 97.6434 42.0325C97.6301 42.0499 97.6166 42.0672 97.6028 42.0844C97.572 42.1226 97.5398 42.16 97.5062 42.1963C97.2919 42.4284 97.0221 42.6201 96.6968 42.7563C96.2978 42.9233 95.8153 43.0068 95.2863 43.0068C94.7852 43.0068 94.3027 42.9326 93.848 42.7841C93.1242 42.5428 92.5581 42.1067 92.1498 41.4942C91.7415 40.8725 91.5373 40.1208 91.5373 39.2578C91.5373 38.599 91.658 37.9772 91.8992 37.4205C92.1312 36.8637 92.4653 36.409 92.8922 36.0749C93.217 35.8151 93.616 35.6016 94.0707 35.4532C94.2928 35.3761 94.5171 35.319 94.7414 35.2807C94.9764 35.2406 95.2115 35.2212 95.4441 35.2212C95.4687 35.2212 95.4935 35.2214 95.5183 35.222C95.7742 35.2275 96.0396 35.2613 96.3144 35.3235C96.3147 35.3236 96.3151 35.3237 96.3154 35.3237C96.3425 35.3299 96.3697 35.3363 96.3969 35.343C96.5408 35.3782 96.6871 35.4211 96.836 35.4717L97.2815 35.6202C97.532 35.713 97.7083 35.6852 97.829 35.5274C97.8331 35.5233 97.8372 35.5186 97.8413 35.5133C97.865 35.483 97.8887 35.4345 97.9124 35.3792C97.9124 35.3791 97.9123 35.3793 97.9124 35.3792L97.9218 35.3789L97.9867 37.6989C97.9626 37.6446 97.9463 37.5982 97.9328 37.5597C97.9255 37.5388 97.919 37.5203 97.9125 37.504C97.9069 37.4875 97.9012 37.4712 97.8956 37.4551C97.7815 37.1264 97.6766 36.874 97.597 36.7059C97.4485 36.3904 97.2351 36.0935 96.9567 35.8336C96.7681 35.6532 96.5723 35.5163 96.3692 35.4229C96.3424 35.4106 96.3155 35.399 96.2885 35.3882C96.0658 35.2954 95.806 35.249 95.5183 35.249C95.4934 35.249 95.4687 35.2493 95.4441 35.25C95.1994 35.2563 94.9707 35.2938 94.7617 35.3627C94.6318 35.4055 94.5094 35.4604 94.3955 35.5274C94.1171 35.6852 93.8573 35.9172 93.6253 36.2234C93.384 36.5203 93.1891 36.873 93.0407 37.2534C92.8272 37.7917 92.7159 38.4134 92.7159 39.1001C92.7159 39.6847 92.7901 40.2137 92.9386 40.6869C93.0778 41.1509 93.3005 41.5592 93.5789 41.8747C94.0985 42.4686 94.8038 42.7748 95.6575 42.7748C96.0937 42.7748 96.4834 42.7006 96.8268 42.5521C97.0703 42.4468 97.2765 42.3088 97.4454 42.1381C97.4905 42.0925 97.533 42.0445 97.5728 41.9942C97.5749 41.9915 97.5771 41.9887 97.5792 41.986C97.5796 41.9856 97.5799 41.9851 97.5803 41.9847C97.5885 41.9741 97.5967 41.9634 97.6047 41.9525C97.6113 41.9437 97.6178 41.9347 97.6243 41.9257C97.6276 41.9211 97.6308 41.9165 97.6341 41.9118L97.6434 41.9397C97.6468 41.935 97.6502 41.9302 97.6536 41.9255C97.6598 41.9168 97.666 41.908 97.6721 41.8992C97.6826 41.8839 97.6929 41.8683 97.7031 41.8524C97.8495 41.6241 97.9615 41.3386 98.0517 41.0024C97.9801 41.3603 97.8745 41.6636 97.7231 41.9124ZM97.6683 41.7482L97.6611 41.7264L97.5651 41.8635C97.3801 42.1279 97.1239 42.3319 96.7933 42.4748C96.4621 42.618 96.0841 42.6906 95.6575 42.6906C94.8259 42.6906 94.1446 42.3933 93.6423 41.8193C93.3728 41.5138 93.1553 41.1164 93.0192 40.6627L93.0189 40.6617C92.8734 40.1979 92.8001 39.6776 92.8001 39.1001C92.8001 38.4224 92.91 37.8114 93.1189 37.2845C93.2648 36.9106 93.4558 36.5655 93.6906 36.2765L93.6924 36.2742C93.9185 35.9758 94.17 35.752 94.437 35.6007L94.4382 35.6C94.7385 35.4234 95.1036 35.3332 95.5183 35.3332C95.7972 35.3332 96.0456 35.3782 96.2561 35.4659L96.2573 35.4664C96.4776 35.5545 96.6914 35.6965 96.8985 35.8945L96.8992 35.8952C97.1699 36.1478 97.3769 36.436 97.5208 36.7418C97.6027 36.9147 97.713 37.181 97.8328 37.5312L97.8343 37.5353C97.8401 37.5498 97.8457 37.5657 97.8526 37.5855C97.8559 37.5947 97.8594 37.6047 97.8633 37.6158C97.8753 37.6493 97.89 37.6886 97.9098 37.7331L98.0709 37.6965L98.0037 35.2947H97.857L97.8351 35.3458C97.8216 35.3772 97.8089 35.4046 97.7968 35.4268C97.7842 35.4499 97.7748 35.4625 97.7694 35.4679L97.7621 35.4763C97.7135 35.5397 97.6576 35.5734 97.5901 35.5847C97.5195 35.5964 97.4286 35.5849 97.3107 35.5412L96.8631 35.392C96.8632 35.392 96.863 35.392 96.8631 35.392C96.3643 35.2226 95.8909 35.137 95.4441 35.137C94.9804 35.137 94.5074 35.2126 94.0438 35.3734C93.5809 35.5246 93.1731 35.7424 92.8399 36.0089C92.4006 36.3528 92.0585 36.8195 91.8217 37.3875C91.5756 37.9558 91.4531 38.5889 91.4531 39.2578C91.4531 40.1344 91.6606 40.9028 92.0794 41.5405C92.4982 42.1686 93.0799 42.6169 93.8213 42.864C94.285 43.0154 94.7769 43.0911 95.2863 43.0911C95.8236 43.0911 96.3177 43.0063 96.7294 42.834C97.1419 42.6613 97.4694 42.4016 97.7105 42.0833L97.7116 42.0819C97.9159 41.7997 98.0493 41.4437 98.1343 41.0189L97.9703 40.9806C97.8891 41.2833 97.7912 41.5398 97.6683 41.7482Z" fill="#92278F"/>
<path d="M111.172 42.7199C111.079 42.6735 110.977 42.5899 110.884 42.46C110.764 42.3208 110.625 42.0888 110.458 41.7733C110.29 41.4578 110.04 40.966 109.715 40.2886C109.576 40.0009 109.474 39.7875 109.4 39.6761C109.335 39.5648 109.26 39.472 109.186 39.3977C109.084 39.3049 108.926 39.2121 108.713 39.1193L108.499 39.0265L108.731 38.9801C108.991 38.9245 109.205 38.8595 109.363 38.7945C109.52 38.7296 109.659 38.6461 109.789 38.5533C110.207 38.2192 110.411 37.7831 110.411 37.2263C110.411 36.8551 110.318 36.5303 110.123 36.2519C109.929 35.9735 109.659 35.7601 109.307 35.6209C108.991 35.5003 108.546 35.4168 107.989 35.3982C107.85 35.3982 107.562 35.3982 107.117 35.3982H104.686C104.806 35.4168 104.899 35.4353 104.992 35.4724C105.131 35.5188 105.261 35.6116 105.372 35.723C105.493 35.8529 105.586 36.0106 105.632 36.2055C105.669 36.3911 105.697 36.6788 105.697 37.0593V41.133C105.697 41.5135 105.678 41.8012 105.632 41.9868C105.586 42.1816 105.502 42.3394 105.372 42.4693C105.27 42.5807 105.14 42.6642 105.001 42.7199C104.918 42.757 104.815 42.7755 104.695 42.7941H107.757C107.636 42.7755 107.534 42.757 107.451 42.7199C107.312 42.6642 107.182 42.5807 107.08 42.4693C106.959 42.3394 106.876 42.1816 106.829 41.9868C106.783 41.7919 106.764 41.5228 106.764 41.133V35.426H107.061C107.46 35.426 107.766 35.4539 107.989 35.5003C108.212 35.5559 108.407 35.6487 108.574 35.7786C108.778 35.955 108.945 36.1777 109.066 36.4375C109.186 36.7066 109.242 36.985 109.242 37.2912C109.242 37.8573 109.038 38.3306 108.639 38.711C108.453 38.8781 108.258 38.9987 108.045 39.0544C107.896 39.0915 107.692 39.1193 107.414 39.1286C107.46 39.1286 107.507 39.1472 107.553 39.1565C107.674 39.1936 107.794 39.2493 107.896 39.3235C108.1 39.4813 108.323 39.7596 108.564 40.168C108.806 40.5763 109.038 41.0495 109.27 41.5785L109.659 42.46C109.687 42.5064 109.734 42.6271 109.817 42.8034H111.441C111.348 42.7848 111.274 42.757 111.209 42.7291L111.172 42.7199Z" fill="#92278F"/>
<path fill-rule="evenodd" clip-rule="evenodd" d="M111.172 42.7194C111.079 42.6729 110.978 42.5895 110.885 42.4603C110.765 42.3211 110.626 42.0891 110.459 41.7736C110.292 41.4581 110.041 40.9662 109.716 40.2888C109.709 40.2734 109.701 40.2583 109.694 40.2433C109.566 39.9786 109.471 39.7818 109.401 39.6763C109.336 39.565 109.262 39.4722 109.187 39.398C109.085 39.3052 108.927 39.2124 108.714 39.1196L108.501 39.0268L108.733 38.9804C108.992 38.9247 109.206 38.8597 109.364 38.7948C109.521 38.7298 109.661 38.6463 109.79 38.5535C110.208 38.2194 110.412 37.7833 110.412 37.2265C110.412 36.8553 110.319 36.5305 110.125 36.2522C109.93 35.9738 109.661 35.7603 109.308 35.6211C108.992 35.5005 108.547 35.417 107.99 35.3984H104.687C104.807 35.417 104.9 35.4355 104.993 35.4727C105.002 35.4758 105.012 35.4791 105.021 35.4826C105.149 35.5316 105.269 35.6193 105.373 35.7232C105.494 35.8531 105.587 36.0109 105.633 36.2058C105.67 36.3913 105.698 36.679 105.698 37.0595V41.1333C105.698 41.5137 105.68 41.8014 105.633 41.987C105.587 42.1819 105.503 42.3396 105.373 42.4695C105.277 42.5744 105.156 42.6546 105.026 42.7101C105.018 42.7135 105.01 42.7169 105.002 42.7201C104.919 42.7572 104.817 42.7758 104.696 42.7943H107.758C107.638 42.7758 107.535 42.7572 107.452 42.7201C107.444 42.7169 107.436 42.7135 107.428 42.7101C107.298 42.6546 107.177 42.5744 107.081 42.4695C106.96 42.3396 106.877 42.1819 106.83 41.987C106.784 41.7921 106.765 41.523 106.765 41.1333V35.4263H107.062C107.081 35.4263 107.1 35.4263 107.118 35.4264C107.437 35.4286 107.694 35.449 107.895 35.4826C107.928 35.4882 107.96 35.4942 107.99 35.5005C108.213 35.5562 108.408 35.649 108.575 35.7789C108.779 35.9552 108.946 36.1779 109.067 36.4377C109.187 36.7069 109.243 36.9852 109.243 37.2915C109.243 37.8575 109.039 38.3308 108.64 38.7113C108.454 38.8783 108.259 38.9989 108.046 39.0546C107.95 39.0786 107.83 39.0988 107.682 39.1125C107.645 39.116 107.606 39.1191 107.565 39.1217C107.564 39.1217 107.562 39.1218 107.561 39.1219C107.515 39.1248 107.466 39.1271 107.415 39.1288C107.446 39.1288 107.477 39.1371 107.508 39.1453C107.523 39.1495 107.539 39.1536 107.554 39.1567C107.593 39.1686 107.632 39.1825 107.67 39.1982C107.75 39.2315 107.828 39.2733 107.897 39.3237C108.102 39.4815 108.324 39.7599 108.566 40.1682C108.807 40.5765 109.039 41.0497 109.271 41.5787L109.661 42.4603C109.675 42.4847 109.695 42.5298 109.723 42.5929C109.748 42.6494 109.779 42.7203 109.818 42.8036H111.442C111.349 42.7851 111.275 42.7572 111.21 42.7294L111.173 42.7201C111.173 42.7199 111.172 42.7196 111.172 42.7194ZM111.203 42.6407C111.126 42.6003 111.037 42.5275 110.954 42.4113L110.949 42.4051C110.835 42.274 110.7 42.0499 110.533 41.7342C110.367 41.4198 110.117 40.929 109.792 40.2524C109.784 40.2352 109.776 40.218 109.767 40.2013C109.643 39.9434 109.546 39.7427 109.472 39.6318C109.404 39.5149 109.325 39.4171 109.247 39.3384L109.244 39.3357C109.137 39.2389 108.981 39.1463 108.779 39.0564C109.03 39.0014 109.238 38.9375 109.396 38.8727C109.561 38.8046 109.706 38.7175 109.839 38.622L109.843 38.6193C110.282 38.2685 110.496 37.8076 110.496 37.2265C110.496 36.8405 110.4 36.4983 110.194 36.2039C109.989 35.9113 109.706 35.6878 109.339 35.5428L109.338 35.5425C109.011 35.4175 108.556 35.333 107.993 35.3143L104.687 35.3142L104.674 35.4817C104.793 35.5 104.878 35.5174 104.962 35.5508L104.966 35.5525C105.089 35.5934 105.207 35.6767 105.313 35.7817C105.424 35.9014 105.508 36.0456 105.551 36.2238C105.586 36.4022 105.614 36.6835 105.614 37.0595V41.1333C105.614 41.5136 105.595 41.792 105.551 41.9666L105.551 41.9675C105.508 42.1492 105.431 42.2925 105.314 42.41L105.311 42.4126C105.219 42.5133 105.1 42.5902 104.971 42.6419L104.968 42.6431C104.896 42.675 104.805 42.6923 104.683 42.7111L104.696 42.8785H107.758L107.771 42.7111C107.649 42.6923 107.558 42.675 107.486 42.6431L107.483 42.6419C107.354 42.5902 107.235 42.5133 107.143 42.4126C107.033 42.2942 106.955 42.1494 106.912 41.9675C106.868 41.7828 106.85 41.5221 106.85 41.1333V35.5105H107.062C107.457 35.5105 107.756 35.538 107.971 35.5826C108.182 35.6355 108.365 35.7229 108.521 35.844C108.715 36.0119 108.875 36.2241 108.99 36.4727C109.105 36.7299 109.159 36.9963 109.159 37.2915C109.159 37.8343 108.964 38.2852 108.583 38.6495C108.404 38.8101 108.221 38.9218 108.025 38.973C107.884 39.0082 107.686 39.0355 107.412 39.0447L107.415 39.2131C107.427 39.2131 107.443 39.2156 107.464 39.221C107.469 39.2223 107.475 39.2239 107.482 39.2258C107.498 39.2298 107.516 39.2348 107.533 39.2383C107.645 39.2732 107.755 39.3245 107.847 39.3911C108.038 39.5393 108.254 39.8067 108.493 40.211C108.732 40.6154 108.962 41.0853 109.194 41.6125L109.584 42.4943L109.588 42.5036C109.599 42.521 109.615 42.5565 109.641 42.6171L109.646 42.6269C109.671 42.6834 109.702 42.7552 109.742 42.8397L109.765 42.8878H111.442L111.459 42.721C111.374 42.704 111.305 42.6785 111.243 42.652L111.237 42.6493L111.203 42.6407Z" fill="#92278F"/>
<path d="M123.162 35.3979C123.283 35.4165 123.375 35.4351 123.468 35.4722C123.607 35.5186 123.737 35.6114 123.849 35.7227C123.969 35.8526 124.053 36.0104 124.099 36.2053C124.146 36.3909 124.164 36.6785 124.164 37.059V40.1491C124.164 40.7152 124.164 41.0771 124.146 41.2256C124.118 41.4669 124.071 41.671 124.007 41.8288C123.932 41.9865 123.821 42.135 123.672 42.2742C123.431 42.4876 123.134 42.6547 122.772 42.7753C122.42 42.8959 122.039 42.9516 121.649 42.9516C121.26 42.9516 120.907 42.8867 120.638 42.7475C120.369 42.6083 120.137 42.3855 119.951 42.0886C119.831 41.8937 119.747 41.671 119.71 41.439C119.673 41.207 119.654 40.8358 119.654 40.3255V37.1982C119.654 36.7435 119.673 36.428 119.71 36.2331C119.747 36.0382 119.84 35.8712 119.97 35.732C120.072 35.6206 120.202 35.5279 120.341 35.4815C120.425 35.4536 120.527 35.4258 120.647 35.4072H117.585C117.706 35.4258 117.808 35.4443 117.891 35.4815C118.03 35.5279 118.16 35.6206 118.262 35.732C118.383 35.8619 118.476 36.0197 118.522 36.2146C118.559 36.4001 118.587 36.6878 118.587 37.0683V40.4275C118.587 40.8451 118.596 41.1328 118.624 41.2998C118.68 41.736 118.866 42.0886 119.172 42.3577C119.645 42.7846 120.406 42.998 121.427 42.998C122.448 42.998 123.162 42.766 123.682 42.3206C123.904 42.1257 124.053 41.9123 124.127 41.6803C124.201 41.439 124.248 41.0678 124.248 40.5575V37.0683C124.248 36.6785 124.266 36.4001 124.313 36.2146C124.359 36.0197 124.443 35.8526 124.563 35.732C124.675 35.6206 124.805 35.5279 124.944 35.4815C125.027 35.4536 125.129 35.4258 125.241 35.4072H123.162V35.3979Z" fill="#92278F"/>
<path fill-rule="evenodd" clip-rule="evenodd" d="M123.078 35.3L123.175 35.315C123.193 35.3177 123.21 35.3204 123.227 35.3233H125.241L125.255 35.4906C125.148 35.5083 125.051 35.5349 124.97 35.5616C124.848 35.6026 124.728 35.6863 124.623 35.7918C124.516 35.8988 124.439 36.0504 124.395 36.2343L124.395 36.2352C124.351 36.4099 124.332 36.6791 124.332 37.0685V40.5577C124.332 41.0716 124.286 41.4524 124.208 41.7053L124.207 41.7062C124.128 41.9556 123.969 42.1814 123.737 42.3842L123.737 42.3848C123.197 42.8474 122.46 43.0825 121.427 43.0825C120.398 43.0825 119.612 42.8679 119.116 42.4209C118.794 42.1379 118.599 41.7668 118.541 41.3123C118.512 41.137 118.503 40.8427 118.503 40.4278V37.0685C118.503 36.6925 118.476 36.4113 118.44 36.2328C118.397 36.0541 118.312 35.9096 118.201 35.7896C118.106 35.6865 117.988 35.6026 117.865 35.5616L117.857 35.559C117.785 35.5271 117.694 35.5095 117.572 35.4907L117.585 35.3233H120.647L120.66 35.4907C120.545 35.5084 120.448 35.535 120.368 35.5616C120.245 35.6026 120.127 35.6861 120.032 35.7892C119.912 35.9182 119.827 36.0717 119.793 36.2491C119.757 36.4356 119.739 36.7442 119.739 37.1985V40.3257C119.739 40.8356 119.757 41.2011 119.793 41.426C119.829 41.6469 119.908 41.859 120.023 42.0444C120.202 42.3305 120.423 42.5417 120.677 42.6729C120.93 42.8038 121.268 42.8677 121.65 42.8677C122.031 42.8677 122.403 42.8131 122.745 42.6959C123.097 42.5785 123.384 42.4167 123.616 42.2122C123.757 42.0799 123.861 41.9407 123.93 41.795C123.99 41.6472 124.035 41.4521 124.062 41.2162C124.08 41.0745 124.08 40.7197 124.08 40.1494V37.0593C124.08 36.679 124.061 36.4005 124.018 36.226L124.017 36.225C123.974 36.0437 123.898 35.8996 123.788 35.7814C123.683 35.6764 123.564 35.5932 123.442 35.5523L123.437 35.5508C123.369 35.5236 123.3 35.5068 123.213 35.4917H123.078V35.3ZM123.52 35.4917C123.639 35.542 123.751 35.6254 123.849 35.723C123.969 35.8529 124.053 36.0107 124.099 36.2055C124.142 36.3771 124.161 36.6358 124.164 36.9744C124.164 37.0021 124.164 37.0304 124.164 37.0593V40.1494C124.164 40.3 124.164 40.4362 124.164 40.5577C124.163 40.8929 124.159 41.1169 124.146 41.2259C124.127 41.3885 124.1 41.5343 124.064 41.6604C124.064 41.6601 124.064 41.6606 124.064 41.6604C124.047 41.721 124.028 41.7778 124.007 41.829C123.932 41.9868 123.821 42.1353 123.673 42.2745C123.667 42.2796 123.661 42.2846 123.655 42.2897C123.655 42.2896 123.655 42.2898 123.655 42.2897C123.417 42.4957 123.126 42.6579 122.772 42.7756C122.42 42.8962 122.039 42.9519 121.65 42.9519C121.574 42.9519 121.499 42.9494 121.427 42.9444C121.323 42.9373 121.223 42.9251 121.128 42.9075C120.946 42.8741 120.78 42.8212 120.638 42.7477C120.369 42.6085 120.137 42.3858 119.951 42.0889C119.831 41.894 119.747 41.6713 119.71 41.4393C119.673 41.2073 119.654 40.8361 119.654 40.3257V37.1985C119.654 36.7438 119.673 36.4283 119.71 36.2334C119.747 36.0385 119.84 35.8715 119.97 35.7323C120.065 35.6284 120.185 35.5407 120.313 35.4917C120.322 35.4882 120.332 35.4848 120.341 35.4817C120.425 35.4539 120.527 35.426 120.647 35.4075H117.585C117.706 35.426 117.808 35.4446 117.891 35.4817C117.901 35.4848 117.91 35.4882 117.919 35.4917C118.048 35.5407 118.167 35.6284 118.262 35.7323C118.383 35.8622 118.476 36.0199 118.522 36.2148C118.559 36.4004 118.587 36.6881 118.587 37.0685V40.4278C118.587 40.8454 118.597 41.133 118.624 41.3001C118.68 41.7362 118.866 42.0889 119.172 42.358C119.596 42.7406 120.252 42.9518 121.118 42.9914C121.218 42.996 121.321 42.9983 121.427 42.9983C121.503 42.9983 121.577 42.997 121.65 42.9944C122.084 42.9791 122.459 42.9182 122.785 42.8132C122.785 42.8132 122.785 42.8131 122.785 42.8132C123.137 42.6998 123.432 42.5349 123.682 42.3209C123.688 42.3156 123.694 42.3104 123.7 42.3051C123.7 42.3048 123.7 42.3046 123.701 42.3043C123.858 42.1634 123.976 42.0128 124.057 41.8527C124.057 41.8519 124.058 41.851 124.058 41.8502C124.086 41.7948 124.109 41.7383 124.127 41.6806C124.163 41.563 124.193 41.4146 124.214 41.2344C124.214 41.2346 124.214 41.2341 124.214 41.2344C124.236 41.0447 124.248 40.8192 124.248 40.5577V37.0685C124.248 37.0654 124.248 37.0624 124.248 37.0593C124.248 37.0304 124.248 37.0021 124.248 36.9744C124.251 36.6335 124.27 36.3851 124.313 36.2148C124.359 36.0199 124.443 35.8529 124.563 35.7323C124.667 35.6284 124.787 35.5407 124.916 35.4917C124.925 35.4882 124.935 35.4848 124.944 35.4817C125.027 35.4539 125.129 35.426 125.241 35.4075H123.22C123.201 35.4043 123.182 35.4013 123.162 35.3982V35.4075H123.22C123.313 35.4234 123.391 35.4414 123.468 35.4724C123.486 35.4782 123.503 35.4846 123.52 35.4917Z" fill="#92278F"/>
<path d="M132.786 41.9873C132.739 42.1821 132.656 42.3399 132.526 42.4698C132.415 42.5812 132.294 42.6647 132.155 42.7204C132.071 42.7575 131.969 42.776 131.849 42.7946H134.92C134.762 42.7668 134.623 42.7296 134.512 42.674C134.345 42.5997 134.215 42.4791 134.113 42.3213C134.039 42.2007 133.992 42.0522 133.955 41.8666C133.918 41.681 133.909 41.449 133.909 41.1335V37.0598C133.909 36.7999 133.909 36.5772 133.946 36.373C133.983 36.0947 134.076 35.872 134.234 35.7142C134.345 35.6028 134.466 35.51 134.614 35.4636C134.698 35.4358 134.8 35.408 134.911 35.3894H131.849C131.969 35.408 132.062 35.4265 132.155 35.4636C132.294 35.51 132.424 35.6028 132.526 35.7142C132.647 35.8441 132.739 36.0019 132.786 36.1967C132.823 36.3823 132.851 36.67 132.851 37.0505V41.1243C132.851 41.5047 132.832 41.7924 132.786 41.978V41.9873Z" fill="#92278F"/>
<path fill-rule="evenodd" clip-rule="evenodd" d="M132.179 42.7104C132.308 42.6549 132.421 42.5747 132.526 42.4698C132.656 42.3399 132.74 42.1821 132.786 41.9872V41.978C132.832 41.7924 132.851 41.5047 132.851 41.1242V37.0505C132.851 36.67 132.823 36.3823 132.786 36.1967C132.74 36.0018 132.647 35.8441 132.526 35.7142C132.431 35.6103 132.312 35.5226 132.183 35.4736C132.174 35.4701 132.164 35.4668 132.155 35.4636C132.062 35.4265 131.969 35.408 131.849 35.3894H134.911C134.8 35.408 134.698 35.4358 134.614 35.4636C134.604 35.4668 134.594 35.4701 134.585 35.4736C134.449 35.5226 134.337 35.6103 134.234 35.7142C134.076 35.8719 133.983 36.0946 133.946 36.373C133.909 36.5772 133.909 36.7999 133.909 37.0597V41.1335C133.909 41.449 133.918 41.681 133.955 41.8666C133.992 42.0522 134.039 42.2007 134.113 42.3213C134.215 42.4791 134.345 42.5997 134.512 42.674C134.538 42.6871 134.566 42.6992 134.595 42.7104C134.69 42.7466 134.8 42.7733 134.92 42.7946H131.849C131.969 42.776 132.071 42.7575 132.155 42.7204C132.163 42.7171 132.171 42.7138 132.179 42.7104ZM134.184 42.2764C134.279 42.4223 134.397 42.5305 134.546 42.597L134.55 42.5985C134.65 42.6489 134.78 42.6844 134.935 42.7116L134.92 42.8788H131.849L131.836 42.7113C131.958 42.6926 132.049 42.6753 132.121 42.6434L132.124 42.6421C132.251 42.5912 132.362 42.5147 132.467 42.4102C132.582 42.2948 132.658 42.1545 132.702 41.9772V41.9676L132.704 41.9575C132.748 41.783 132.767 41.5045 132.767 41.1242V37.0505C132.767 36.6744 132.739 36.3932 132.704 36.2148C132.661 36.0361 132.576 35.8915 132.464 35.7715C132.37 35.6684 132.251 35.5845 132.128 35.5435L132.124 35.542C132.04 35.5086 131.955 35.491 131.836 35.4726L131.849 35.3052H134.911L134.925 35.4725C134.819 35.4902 134.721 35.5168 134.641 35.5435L134.639 35.544C134.509 35.5846 134.4 35.6669 134.293 35.7737C134.152 35.9144 134.065 36.1176 134.029 36.3842L134.029 36.3881C133.993 36.5833 133.993 36.7979 133.993 37.0597V41.1335C133.993 41.4491 134.002 41.6735 134.038 41.8501C134.074 42.0316 134.118 42.1684 134.184 42.2764Z" fill="#92278F"/>
<path d="M145.648 39.4439C145.388 39.1099 144.961 38.8036 144.377 38.5253L143.597 38.1448C142.781 37.755 142.363 37.2354 142.363 36.5858C142.363 36.428 142.391 36.261 142.456 36.094C142.512 35.9269 142.595 35.7877 142.706 35.6671C142.957 35.3702 143.31 35.2217 143.736 35.2217C144.033 35.2217 144.293 35.2959 144.525 35.4444C144.748 35.5836 144.961 35.8063 145.147 36.1033C145.249 36.261 145.333 36.4466 145.407 36.6322C145.472 36.8085 145.555 37.0591 145.648 37.3746L145.611 35.3516C145.537 35.5743 145.407 35.63 145.295 35.63C145.24 35.63 145.175 35.6207 145.091 35.5929C145.017 35.565 144.887 35.5186 144.711 35.4537C144.47 35.3516 144.265 35.2774 144.126 35.2495C143.987 35.2124 143.829 35.2031 143.662 35.2031C143.152 35.2031 142.697 35.3794 142.326 35.7228C142.112 35.9177 141.945 36.1589 141.825 36.428C141.704 36.6971 141.649 36.9848 141.649 37.2818C141.649 37.755 141.797 38.1633 142.103 38.4974C142.215 38.6181 142.363 38.7387 142.539 38.8593C142.725 38.98 142.994 39.1284 143.337 39.3047C143.736 39.5089 144.033 39.6759 144.228 39.8151C144.432 39.9543 144.59 40.1028 144.702 40.2513C144.813 40.3998 144.896 40.5761 144.961 40.7802C145.026 40.9844 145.054 41.1792 145.054 41.3741C145.054 41.8288 144.906 42.2093 144.618 42.5062C144.33 42.8032 143.959 42.9517 143.514 42.9517C142.883 42.9517 142.354 42.6269 141.936 41.9866C141.732 41.6618 141.546 41.2164 141.389 40.6596L141.37 42.7754C141.454 42.599 141.593 42.5062 141.788 42.5062C141.853 42.5062 141.908 42.5062 141.964 42.5341C142.01 42.5526 142.15 42.6083 142.382 42.7104C142.808 42.896 143.263 42.9888 143.727 42.9888C144.228 42.9888 144.674 42.8681 145.045 42.6454C145.416 42.4227 145.694 42.0979 145.88 41.6803C146.01 41.3834 146.075 41.0679 146.075 40.7431C146.075 40.2513 145.926 39.8151 145.639 39.4532L145.648 39.4439Z" fill="#92278F"/>
<path fill-rule="evenodd" clip-rule="evenodd" d="M145.638 39.4532C145.926 39.8151 146.074 40.2513 146.074 40.7431C146.074 41.0679 146.009 41.3834 145.879 41.6803C145.694 42.0979 145.415 42.4227 145.044 42.6454C144.735 42.8308 144.375 42.9454 143.974 42.9787C143.893 42.9854 143.81 42.9888 143.726 42.9888C143.655 42.9888 143.584 42.9866 143.513 42.9822C143.224 42.9643 142.94 42.9098 142.665 42.8189C142.569 42.7872 142.474 42.751 142.381 42.7104C142.149 42.6083 142.01 42.5526 141.963 42.5341C141.908 42.5062 141.852 42.5062 141.787 42.5062C141.648 42.5062 141.537 42.5535 141.455 42.6447C141.422 42.6813 141.393 42.7249 141.369 42.7753L141.388 40.6596C141.414 40.7531 141.442 40.8436 141.47 40.9308C141.609 41.3626 141.766 41.7163 141.935 41.9866C142.159 42.3288 142.414 42.5809 142.699 42.7415C142.948 42.8813 143.219 42.9517 143.513 42.9517C143.586 42.9517 143.657 42.9477 143.726 42.9396C143.807 42.9303 143.885 42.9155 143.96 42.8953C144.212 42.8273 144.432 42.6976 144.617 42.5062C144.905 42.2093 145.053 41.8288 145.053 41.3741C145.053 41.1792 145.026 40.9844 144.961 40.7802C144.896 40.576 144.812 40.3997 144.701 40.2513C144.589 40.1028 144.432 39.9543 144.228 39.8151C144.033 39.6759 143.736 39.5089 143.337 39.3047C142.993 39.1284 142.724 38.9799 142.539 38.8593C142.362 38.7387 142.214 38.618 142.102 38.4974C141.796 38.1633 141.648 37.755 141.648 37.2818C141.648 36.9848 141.703 36.6971 141.824 36.428C141.945 36.1589 142.112 35.9176 142.325 35.7228C142.531 35.5326 142.762 35.3936 143.014 35.3075C143.217 35.2382 143.434 35.2031 143.661 35.2031C143.686 35.2031 143.711 35.2033 143.736 35.2038C143.875 35.2065 144.007 35.2179 144.125 35.2495C144.234 35.2713 144.383 35.3214 144.558 35.3911C144.558 35.3911 144.558 35.391 144.558 35.3911C144.589 35.4034 144.621 35.4167 144.654 35.4302C144.672 35.4379 144.691 35.4457 144.71 35.4537C144.798 35.4862 144.875 35.514 144.939 35.5372C145.002 35.5604 145.053 35.5789 145.091 35.5929C145.174 35.6207 145.239 35.63 145.295 35.63C145.372 35.63 145.458 35.6031 145.529 35.5118C145.56 35.4718 145.588 35.4195 145.61 35.3516L145.647 37.3746C145.616 37.2691 145.586 37.1708 145.558 37.0802C145.501 36.8998 145.449 36.7495 145.406 36.6322C145.332 36.4466 145.248 36.261 145.146 36.1032C144.985 35.8457 144.803 35.644 144.613 35.5042C144.583 35.4828 144.554 35.4629 144.524 35.4444C144.399 35.364 144.265 35.3054 144.122 35.2685C144.121 35.2684 144.121 35.2683 144.12 35.2682C143.999 35.2372 143.871 35.2217 143.736 35.2217C143.711 35.2217 143.686 35.2222 143.661 35.2232C143.433 35.2327 143.227 35.2866 143.048 35.3849C142.919 35.4558 142.805 35.5499 142.706 35.6671C142.594 35.7877 142.511 35.9269 142.455 36.094C142.39 36.261 142.362 36.428 142.362 36.5858C142.362 37.2354 142.78 37.755 143.596 38.1448L144.376 38.5252C144.961 38.8036 145.387 39.1099 145.647 39.4439L145.638 39.4532ZM145.75 39.4605C146.02 39.8261 146.158 40.2599 146.158 40.7431C146.158 41.0793 146.091 41.4063 145.956 41.7141C145.764 42.1462 145.475 42.4853 145.087 42.7176C144.702 42.949 144.241 43.073 143.726 43.073C143.251 43.073 142.785 42.9779 142.347 42.7876C142.117 42.6861 141.978 42.6306 141.932 42.6123L141.925 42.6096C141.89 42.5921 141.855 42.5904 141.787 42.5904C141.703 42.5904 141.636 42.6102 141.582 42.6453C141.528 42.6805 141.482 42.7346 141.445 42.8114L141.285 42.7746L141.304 40.6588L141.469 40.6366C141.625 41.1885 141.808 41.6255 142.006 41.9411C142.412 42.5632 142.917 42.8674 143.513 42.8674C143.938 42.8674 144.286 42.7267 144.557 42.4476C144.828 42.1677 144.969 41.8089 144.969 41.3741C144.969 41.1876 144.943 41.0014 144.88 40.8057C144.817 40.6079 144.738 40.4408 144.633 40.3018C144.529 40.1621 144.378 40.0197 144.18 39.8847L144.179 39.8837C143.989 39.7484 143.697 39.5837 143.298 39.3797C142.954 39.2031 142.682 39.053 142.493 38.9299L142.491 38.9288C142.312 38.8062 142.158 38.6815 142.041 38.5545C141.719 38.2036 141.564 37.7742 141.564 37.2818C141.564 36.9741 141.621 36.6746 141.747 36.3936C141.872 36.1153 142.045 35.8642 142.268 35.6608C142.655 35.3029 143.13 35.1189 143.661 35.1189C143.829 35.1189 143.995 35.128 144.145 35.1675C144.292 35.1974 144.502 35.2741 144.741 35.3753C144.827 35.4072 144.903 35.4348 144.967 35.4579C145.03 35.4809 145.082 35.4996 145.119 35.5134C145.194 35.5384 145.249 35.5458 145.295 35.5458C145.336 35.5458 145.377 35.5357 145.416 35.5069C145.455 35.4779 145.497 35.4244 145.53 35.325L145.694 35.35L145.732 37.373L145.567 37.3983C145.474 37.0849 145.392 36.8365 145.327 36.6624C145.254 36.4787 145.173 36.2995 145.075 36.149L145.075 36.1479C144.894 35.859 144.689 35.6467 144.48 35.5158L144.479 35.5153C144.261 35.3761 144.018 35.3059 143.736 35.3059C143.33 35.3059 143.002 35.4461 142.77 35.7214L142.768 35.7243C142.664 35.8361 142.587 35.9648 142.535 36.1206L142.534 36.1245C142.473 36.2814 142.447 36.438 142.447 36.5858C142.447 37.1898 142.831 37.6863 143.633 38.0688L144.413 38.4494C145.003 38.7305 145.443 39.0436 145.714 39.3922L145.759 39.4509L145.75 39.4605Z" fill="#92278F"/>
<path d="M158.936 41.4947C158.852 41.6989 158.731 41.8937 158.602 42.0515C158.407 42.2928 158.147 42.4784 157.841 42.599C157.534 42.7196 157.154 42.7753 156.709 42.7753C156.263 42.7753 155.929 42.7103 155.66 42.5804C155.391 42.4505 155.187 42.2371 155.057 41.9587C154.982 41.8009 154.927 41.5968 154.899 41.3555C154.871 41.1235 154.862 40.7523 154.862 40.2419V38.9057H155.252C155.53 38.9057 155.762 38.9335 155.948 38.9892C156.133 39.0449 156.291 39.147 156.412 39.2676C156.532 39.3975 156.625 39.5553 156.699 39.7316C156.755 39.88 156.801 40.0656 156.829 40.2791L156.848 37.6529C156.82 37.8571 156.783 38.0148 156.736 38.1355C156.69 38.2932 156.606 38.4231 156.495 38.5438C156.374 38.6644 156.226 38.7572 156.05 38.8036C155.873 38.85 155.614 38.8686 155.27 38.8686H154.862V35.4072H156.198C156.588 35.4072 156.913 35.4351 157.154 35.4907C157.395 35.5464 157.609 35.6392 157.794 35.7784C158.008 35.9362 158.184 36.131 158.295 36.3352C158.388 36.5115 158.462 36.7157 158.509 36.9569L158.425 35.3794H152.792C152.913 35.398 153.006 35.4165 153.099 35.4536C153.238 35.5 153.368 35.5928 153.47 35.7042C153.591 35.8341 153.674 35.9918 153.72 36.1867C153.758 36.3816 153.785 36.6507 153.785 37.0405V41.1142C153.785 41.4947 153.758 41.7824 153.72 41.968C153.674 42.1628 153.591 42.3299 153.461 42.4505C153.349 42.5619 153.219 42.6547 153.08 42.7011C152.997 42.7289 152.895 42.7567 152.783 42.7753H159.066L159.131 40.7709C159.066 41.0586 159.001 41.2905 158.926 41.4761L158.936 41.4947Z" fill="#92278F"/>
<path fill-rule="evenodd" clip-rule="evenodd" d="M157.542 42.6908C157.648 42.6659 157.748 42.6353 157.841 42.5987C158.147 42.4781 158.407 42.2925 158.602 42.0512C158.732 41.8935 158.852 41.6986 158.936 41.4944L158.927 41.4759C158.964 41.3814 159 41.2748 159.034 41.155C159.067 41.0395 159.099 40.9118 159.131 40.7706L159.066 42.7751H156.709C157.019 42.7751 157.298 42.748 157.542 42.6908ZM156.709 42.6908C157.148 42.6908 157.517 42.6358 157.81 42.5204C158.104 42.4046 158.351 42.2273 158.536 41.9983C158.654 41.8557 158.764 41.6806 158.843 41.4975L158.834 41.4797L158.848 41.4446C158.92 41.2651 158.984 41.0381 159.049 40.7521L159.215 40.7734L159.147 42.8593H152.783L152.77 42.692C152.876 42.6743 152.974 42.6476 153.054 42.6209C153.177 42.5799 153.296 42.4962 153.401 42.3907L153.403 42.3885C153.518 42.2826 153.595 42.1328 153.638 41.9497C153.674 41.7712 153.701 41.49 153.701 41.114V37.0402C153.701 36.6556 153.674 36.3925 153.638 36.2041C153.595 36.0231 153.518 35.8792 153.408 35.7612C153.314 35.6581 153.195 35.5743 153.072 35.5333L153.068 35.5317C152.984 35.4983 152.899 35.4807 152.78 35.4624L152.793 35.2949H158.505L158.593 36.9522L158.426 36.9726C158.381 36.7395 158.31 36.5434 158.221 36.3747C158.117 36.1832 157.949 35.9974 157.744 35.8459C157.57 35.7148 157.367 35.626 157.135 35.5726C156.903 35.5189 156.585 35.4912 156.198 35.4912H154.946V38.7841H155.27C155.613 38.7841 155.863 38.7653 156.028 38.7219C156.188 38.6799 156.323 38.5959 156.435 38.4851C156.539 38.372 156.614 38.2534 156.656 38.1114L156.658 38.1049C156.701 37.9925 156.737 37.8419 156.764 37.6413L156.932 37.6533L156.914 40.2794L156.746 40.2897C156.719 40.0825 156.674 39.9038 156.621 39.7624C156.55 39.5937 156.462 39.446 156.351 39.3258C156.24 39.2146 156.094 39.1208 155.924 39.0696C155.748 39.0171 155.525 38.9896 155.252 38.9896H154.946V40.2417C154.946 40.7527 154.956 41.119 154.983 41.3452C155.01 41.5797 155.064 41.7749 155.133 41.9226C155.255 42.1845 155.446 42.3834 155.697 42.5043C155.951 42.6269 156.271 42.6908 156.709 42.6908ZM155.961 42.6908C155.852 42.6616 155.752 42.6247 155.66 42.5802C155.391 42.4503 155.187 42.2368 155.057 41.9584C154.983 41.8007 154.927 41.5965 154.899 41.3553C154.871 41.1233 154.862 40.7521 154.862 40.2417V38.9054H155.252C155.258 38.9054 155.264 38.9054 155.27 38.9055C155.437 38.9062 155.586 38.9171 155.719 38.938C155.802 38.951 155.878 38.968 155.948 38.9889C156.133 39.0446 156.291 39.1467 156.412 39.2673C156.532 39.3972 156.625 39.555 156.699 39.7313C156.717 39.777 156.733 39.8263 156.748 39.8788C156.782 39.9967 156.81 40.1311 156.829 40.2788L156.848 37.6527C156.825 37.82 156.796 37.9561 156.761 38.0662C156.753 38.0905 156.745 38.1134 156.737 38.1352C156.69 38.293 156.607 38.4229 156.495 38.5435C156.375 38.6642 156.226 38.7569 156.05 38.8033C155.962 38.8266 155.852 38.8428 155.722 38.8533C155.592 38.8637 155.442 38.8683 155.27 38.8683H154.862V35.407H156.198C156.519 35.407 156.795 35.4258 157.017 35.4634C157.065 35.4715 157.111 35.4806 157.154 35.4905C157.395 35.5462 157.609 35.639 157.794 35.7782C158.008 35.9359 158.184 36.1308 158.296 36.3349C158.336 36.4111 158.372 36.4925 158.405 36.5798C158.447 36.6946 158.483 36.8197 158.509 36.9567L158.425 35.3791H152.793C152.913 35.3977 153.006 35.4163 153.099 35.4534C153.108 35.4565 153.118 35.4598 153.127 35.4634C153.255 35.5123 153.375 35.6 153.47 35.7039C153.591 35.8338 153.674 35.9916 153.721 36.1865C153.758 36.3813 153.786 36.6504 153.786 37.0402V41.114C153.786 41.4944 153.758 41.7821 153.721 41.9677C153.674 42.1626 153.591 42.3296 153.461 42.4503C153.357 42.5541 153.237 42.6419 153.108 42.6908C153.099 42.6944 153.09 42.6977 153.08 42.7008C152.997 42.7287 152.895 42.7565 152.783 42.7751H156.709C156.416 42.7751 156.171 42.747 155.961 42.6908Z" fill="#92278F"/>
<path d="M169.877 39.4439C169.617 39.1099 169.19 38.8036 168.605 38.5253L167.826 38.1448C167.009 37.755 166.601 37.2354 166.601 36.5858C166.601 36.428 166.629 36.261 166.694 36.094C166.749 35.9269 166.833 35.7877 166.944 35.6671C167.195 35.3702 167.547 35.2217 167.974 35.2217C168.271 35.2217 168.54 35.2959 168.763 35.4444C168.986 35.5836 169.199 35.8063 169.375 36.1033C169.478 36.261 169.57 36.4466 169.645 36.6322C169.71 36.8085 169.793 37.0591 169.886 37.3746L169.849 35.3516C169.774 35.5743 169.645 35.63 169.533 35.63C169.478 35.63 169.413 35.6207 169.338 35.5929C169.264 35.565 169.134 35.5186 168.958 35.4537C168.717 35.3516 168.522 35.2774 168.373 35.2495C168.234 35.2124 168.076 35.2031 167.909 35.2031C167.399 35.2031 166.944 35.3794 166.573 35.7228C166.36 35.9177 166.193 36.1589 166.072 36.428C165.951 36.6971 165.886 36.9848 165.886 37.2818C165.886 37.755 166.044 38.1633 166.341 38.4974C166.452 38.6181 166.601 38.7387 166.777 38.8593C166.953 38.98 167.223 39.1284 167.575 39.3047C167.974 39.5089 168.271 39.6759 168.475 39.8151C168.679 39.9543 168.837 40.1028 168.939 40.2513C169.051 40.3998 169.134 40.5761 169.199 40.7802C169.264 40.9844 169.292 41.1792 169.292 41.3741C169.292 41.8288 169.143 42.2093 168.856 42.5062C168.568 42.8032 168.197 42.9517 167.752 42.9517C167.12 42.9517 166.582 42.6269 166.174 41.9866C165.97 41.6618 165.784 41.2164 165.636 40.6596L165.617 42.7754C165.701 42.599 165.84 42.5062 166.035 42.5062C166.1 42.5062 166.155 42.5062 166.202 42.5341C166.248 42.5526 166.387 42.6083 166.619 42.7104C167.046 42.896 167.501 42.9888 167.956 42.9888C168.457 42.9888 168.902 42.8681 169.273 42.6454C169.635 42.4227 169.923 42.0979 170.109 41.6803C170.238 41.3834 170.313 41.0679 170.313 40.7431C170.313 40.2513 170.164 39.8151 169.877 39.4532V39.4439Z" fill="#92278F"/>
<path fill-rule="evenodd" clip-rule="evenodd" d="M169.961 39.4241C170.249 39.7971 170.397 40.2438 170.397 40.7431C170.397 41.0809 170.32 41.4078 170.186 41.7141C169.994 42.1469 169.694 42.4854 169.318 42.7171L169.317 42.7176C168.931 42.949 168.471 43.073 167.956 43.073C167.49 43.073 167.024 42.9778 166.586 42.7876C166.355 42.6861 166.217 42.6307 166.171 42.6123L166.164 42.6097L166.159 42.6063C166.136 42.5927 166.106 42.5904 166.035 42.5904C165.951 42.5904 165.884 42.6102 165.83 42.6453C165.776 42.6805 165.73 42.7346 165.694 42.8114L165.533 42.7746L165.552 40.6588L165.717 40.6379C165.864 41.1891 166.047 41.626 166.245 41.9415C166.641 42.5626 167.155 42.8674 167.752 42.8674C168.177 42.8674 168.525 42.7267 168.796 42.4476C169.067 42.1677 169.208 41.8089 169.208 41.3741C169.208 41.1876 169.181 41.0014 169.119 40.8057C169.056 40.6079 168.976 40.4408 168.872 40.3018L168.87 40.299C168.776 40.1616 168.627 40.02 168.428 39.8847C168.229 39.7486 167.936 39.5836 167.537 39.3799C167.184 39.2034 166.911 39.0528 166.73 38.9288C166.551 38.8062 166.397 38.6815 166.279 38.5545L166.278 38.5534C165.967 38.2036 165.802 37.7753 165.802 37.2818C165.802 36.9723 165.87 36.673 165.995 36.3936C166.12 36.1153 166.293 35.8642 166.516 35.6608C166.903 35.3029 167.378 35.1189 167.91 35.1189C168.077 35.1189 168.243 35.128 168.392 35.1673C168.55 35.1974 168.751 35.2747 168.989 35.3753C169.076 35.4072 169.151 35.4348 169.215 35.4579C169.279 35.4813 169.331 35.5001 169.368 35.514C169.433 35.5382 169.488 35.5458 169.533 35.5458C169.575 35.5458 169.616 35.5357 169.655 35.5069C169.693 35.4779 169.736 35.4244 169.769 35.325L169.933 35.35L169.97 37.373L169.805 37.3983C169.713 37.0849 169.63 36.8365 169.566 36.6624C169.494 36.4813 169.403 36.3011 169.305 36.149L169.303 36.1463C169.132 35.8587 168.928 35.6466 168.719 35.5158L168.716 35.5145C168.51 35.3765 168.257 35.3059 167.974 35.3059C167.569 35.3059 167.241 35.4461 167.009 35.7214L167.006 35.7243C166.903 35.8361 166.826 35.9648 166.774 36.1206L166.772 36.1245C166.711 36.2814 166.685 36.438 166.685 36.5858C166.685 37.1904 167.062 37.6866 167.862 38.0688L168.642 38.4494C169.232 38.7305 169.672 39.0436 169.943 39.3922L169.961 39.415V39.4241ZM168.605 38.5252C169.19 38.8036 169.617 39.1099 169.877 39.4439V39.4532C170.164 39.8151 170.313 40.2513 170.313 40.7431C170.313 41.0679 170.239 41.3834 170.109 41.6803C169.923 42.0979 169.636 42.4227 169.274 42.6454C168.968 42.8287 168.613 42.9428 168.217 42.9775C168.132 42.985 168.045 42.9888 167.956 42.9888C167.888 42.9888 167.82 42.9867 167.752 42.9825C167.462 42.9648 167.175 42.9094 166.896 42.8164C166.803 42.7852 166.711 42.7499 166.62 42.7104C166.388 42.6083 166.248 42.5526 166.202 42.5341C166.156 42.5062 166.1 42.5062 166.035 42.5062C165.896 42.5062 165.785 42.5535 165.703 42.6447C165.67 42.6813 165.641 42.7249 165.617 42.7753L165.636 40.6596C165.662 40.7576 165.689 40.8521 165.718 40.9431C165.85 41.3694 166.006 41.7189 166.174 41.9866C166.391 42.3271 166.645 42.5783 166.93 42.739C167.181 42.8805 167.456 42.9517 167.752 42.9517C167.822 42.9517 167.89 42.948 167.956 42.9407C168.041 42.9313 168.123 42.9158 168.202 42.8942C168.453 42.8259 168.672 42.6966 168.856 42.5062C169.144 42.2093 169.292 41.8288 169.292 41.3741C169.292 41.1792 169.264 40.9844 169.199 40.7802C169.134 40.576 169.051 40.3997 168.94 40.2513C168.837 40.1028 168.68 39.9543 168.476 39.8151C168.271 39.6759 167.974 39.5089 167.575 39.3047C167.223 39.1284 166.954 38.9799 166.777 38.8593C166.601 38.7387 166.453 38.618 166.341 38.4974C166.044 38.1633 165.887 37.755 165.887 37.2818C165.887 36.9848 165.951 36.6971 166.072 36.428C166.193 36.1589 166.36 35.9176 166.573 35.7228C166.772 35.5389 166.995 35.403 167.237 35.3164C167.447 35.2412 167.672 35.2031 167.91 35.2031C167.931 35.2031 167.953 35.2033 167.974 35.2036C168.117 35.206 168.252 35.2172 168.373 35.2495C168.488 35.2709 168.629 35.3198 168.799 35.3877C168.799 35.388 168.8 35.3882 168.8 35.3885C168.826 35.3988 168.853 35.4096 168.88 35.4208C168.905 35.4314 168.931 35.4424 168.958 35.4537C169.046 35.4862 169.123 35.514 169.187 35.5372C169.25 35.5604 169.301 35.579 169.339 35.5929C169.413 35.6207 169.478 35.63 169.533 35.63C169.611 35.63 169.697 35.6031 169.768 35.5118C169.799 35.4718 169.826 35.4195 169.849 35.3516L169.886 37.3746C169.855 37.269 169.825 37.1708 169.796 37.0802C169.739 36.8998 169.688 36.7495 169.645 36.6322C169.571 36.4466 169.478 36.261 169.376 36.1032C169.219 35.84 169.034 35.6351 168.839 35.495C168.814 35.4771 168.789 35.4602 168.763 35.4444C168.644 35.3651 168.512 35.307 168.37 35.2701C168.369 35.2699 168.369 35.2698 168.368 35.2697C168.244 35.2377 168.112 35.2217 167.974 35.2217C167.953 35.2217 167.931 35.2221 167.91 35.2228C167.671 35.2315 167.457 35.2883 167.272 35.3932C167.149 35.4632 167.039 35.5544 166.944 35.6671C166.833 35.7877 166.75 35.9269 166.694 36.094C166.629 36.261 166.601 36.428 166.601 36.5858C166.601 37.2354 167.009 37.755 167.826 38.1448L168.605 38.5252Z" fill="#92278F"/>
<path d="M3.96062 32.6151C1.97636 29.6771 1.05607 27.4254 0.837891 26.8419C11.3382 6.56233 28.9822 1.06748 39.4177 0.276855C35.5914 1.29835 13.8033 5.81124 3.96062 32.6151Z" fill="url(#paint0_linear_2039_1989)"/>
<path d="M4.77539 33.7915C5.89803 35.3601 7.25458 37.0742 8.85157 38.8041C16.3336 6.75999 42.0966 1.24459 45.9009 0.276855C45.9009 0.276855 14.9105 1.69998 4.77697 33.7915H4.77539Z" fill="url(#paint1_linear_2039_1989)"/>
<path d="M30.2723 8.13709C22.6559 13.243 12.8528 23.363 9.79492 39.7985C11.2416 41.2833 13.1027 43.0006 14.9083 44.3937C15.3827 37.1199 19.6517 9.60605 50.8792 0.672003C50.8792 0.672003 42.262 0.27669 30.2723 8.13709Z" fill="url(#paint2_linear_2039_1989)"/>
<path d="M16.416 39.8002C16.7117 37.9801 17.1117 36.2613 17.5354 34.7275C19.6795 38.0134 28.8722 49.3541 46.0576 53.7231C37.0151 53.0542 28.8596 49.1786 24.2458 46.1647C20.1364 43.4813 17.4105 40.8296 16.416 39.8002Z" fill="url(#paint3_linear_2039_1989)"/>
<path d="M23.1465 46.6716C26.8099 49.127 32.4657 52.1376 39.7753 53.6649C26.8827 52.6388 18.8584 46.7427 15.8574 44.8675C15.8811 43.5124 16.074 42.2443 16.248 40.9399C17.1113 41.8601 19.4592 44.2018 23.1465 46.6716Z" fill="url(#paint4_linear_2039_1989)"/>
<path d="M17.9141 33.6413C18.9307 30.2289 20.0486 28.0278 20.0486 28.0278C29.6936 46.6866 45.0307 51.4431 51.1971 53.3153C51.1971 53.3153 32.7768 53.2489 17.9141 33.6413Z" fill="url(#paint5_linear_2039_1989)"/>
<path d="M53.963 39.492H54.4374L51.2751 45.5008L50.9588 44.2358H50.9573C50.9145 44.2342 50.8719 44.2342 50.8308 44.2326C40.3573 44.0966 31.6689 36.4338 31.6689 27.0001C31.6689 17.5664 40.4253 9.84191 50.9573 9.76602H50.9588L51.2751 8.81567L54.4374 14.6664H53.963C52.2569 12.7799 51.117 12.0668 50.3137 11.8043C50.0876 11.7299 49.8473 11.7015 49.6101 11.7204C40.7099 12.3909 33.7244 18.9404 33.7244 26.9226C33.7244 34.9048 41.0325 41.7532 50.222 42.1627C50.5398 42.177 50.8545 42.1058 51.136 41.9604C51.9044 41.5651 52.7518 40.8329 53.963 39.4952V39.492Z" fill="url(#paint6_linear_2039_1989)"/>
<defs>
<linearGradient id="paint0_linear_2039_1989" x1="-1.70299" y1="16.4467" x2="50.9869" y2="16.4467" gradientUnits="userSpaceOnUse">
<stop offset="0.15" stop-color="#92278F"/>
<stop offset="1" stop-color="#F16F5B"/>
</linearGradient>
<linearGradient id="paint1_linear_2039_1989" x1="-1.70254" y1="19.5397" x2="50.9874" y2="19.5397" gradientUnits="userSpaceOnUse">
<stop offset="0.15" stop-color="#92278F"/>
<stop offset="1" stop-color="#F16F5B"/>
</linearGradient>
<linearGradient id="paint2_linear_2039_1989" x1="-1.70313" y1="22.5313" x2="50.9868" y2="22.5313" gradientUnits="userSpaceOnUse">
<stop offset="0.15" stop-color="#92278F"/>
<stop offset="1" stop-color="#F16F5B"/>
</linearGradient>
<linearGradient id="paint3_linear_2039_1989" x1="-1.70388" y1="44.2261" x2="50.986" y2="44.2261" gradientUnits="userSpaceOnUse">
<stop offset="0.15" stop-color="#92278F"/>
<stop offset="1" stop-color="#F16F5B"/>
</linearGradient>
<linearGradient id="paint4_linear_2039_1989" x1="-1.70274" y1="47.3025" x2="50.9872" y2="47.3025" gradientUnits="userSpaceOnUse">
<stop offset="0.15" stop-color="#92278F"/>
<stop offset="1" stop-color="#F16F5B"/>
</linearGradient>
<linearGradient id="paint5_linear_2039_1989" x1="-1.70311" y1="40.6715" x2="50.9868" y2="40.6715" gradientUnits="userSpaceOnUse">
<stop offset="0.15" stop-color="#92278F"/>
<stop offset="1" stop-color="#F16F5B"/>
</linearGradient>
<linearGradient id="paint6_linear_2039_1989" x1="-1.70417" y1="27.1582" x2="50.9858" y2="27.1582" gradientUnits="userSpaceOnUse">
<stop offset="0.15" stop-color="#92278F"/>
<stop offset="1" stop-color="#F16F5B"/>
</linearGradient>
</defs>
</svg>
