<svg width="24" height="25" viewBox="0 0 24 25" fill="none" xmlns="http://www.w3.org/2000/svg">
<path d="M18.3187 6.87197C18.3187 6.12284 17.8967 5.70718 17.1444 5.70402C16.2365 5.70007 15.3285 5.69454 14.4213 5.70876C14.185 5.71271 14.1068 5.66214 14.1123 5.40927C14.1305 4.59375 14.1376 3.77666 14.11 2.96193C14.0981 2.61898 14.1803 2.50834 14.5335 2.53442C14.9294 2.56366 15.1855 2.31711 15.1554 1.99391C15.123 1.64305 14.9018 1.50002 14.5628 1.50002C12.8527 1.5016 11.1419 1.50081 9.43184 1.5016C9.39233 1.5016 9.35281 1.50555 9.31409 1.5095C9.03593 1.53716 8.88184 1.70705 8.85576 1.96862C8.82652 2.25547 8.98299 2.44671 9.25483 2.52415C9.36546 2.55576 9.4911 2.55418 9.60727 2.54153C9.82458 2.51783 9.89965 2.58737 9.8957 2.81811C9.88227 3.68657 9.88306 4.55582 9.8957 5.42428C9.89886 5.64554 9.84117 5.7135 9.61517 5.71034C8.73407 5.6977 7.85217 5.70481 6.97107 5.7056C6.06784 5.70402 5.68774 6.08807 5.68774 7.00315C5.68774 9.20077 5.68774 11.3992 5.68774 13.5968C5.68774 15.8347 5.68774 18.0719 5.68853 20.309C5.68853 20.9578 5.92797 21.3047 6.53092 21.4675C6.71109 21.5157 6.74744 21.6105 6.78616 21.7519C6.92603 22.2561 7.28321 22.5366 7.77947 22.5406C8.27732 22.5453 8.66216 22.2735 8.79175 21.7749C8.84707 21.5615 8.91582 21.4904 9.14736 21.492C11.055 21.5038 12.9626 21.503 14.8702 21.4927C15.078 21.492 15.1507 21.5457 15.2037 21.7496C15.3372 22.2703 15.7276 22.5501 16.2388 22.5398C16.7343 22.5303 17.0804 22.2545 17.2211 21.7385C17.2622 21.5876 17.3183 21.5109 17.4882 21.4651C18.0666 21.3086 18.3179 20.9554 18.3179 20.3359C18.3195 15.8474 18.3203 11.3597 18.3179 6.87118L18.3187 6.87197ZM10.957 2.78413C10.9554 2.59764 11.0044 2.53521 11.1972 2.53916C11.7353 2.55181 12.2735 2.55181 12.8116 2.53916C13.0037 2.53442 13.0566 2.59685 13.0519 2.78334C13.0392 3.22982 13.0479 3.6763 13.0479 4.12278C13.0479 4.56925 13.0392 5.01573 13.0519 5.46221C13.0574 5.64949 13.0045 5.71113 12.8116 5.70718C12.2735 5.69454 11.7353 5.69454 11.1972 5.70718C11.0052 5.71192 10.9554 5.64949 10.957 5.463C10.9657 4.57004 10.9657 3.67709 10.957 2.78413ZM14.5169 14.1349C13.6769 14.1436 12.8377 14.1373 11.9977 14.1373C11.1577 14.1373 10.3185 14.1405 9.47846 14.1357C9.23191 14.1342 9.01381 14.0646 8.89843 13.8125C8.80519 13.6094 8.84233 13.4277 8.97746 13.2633C9.11417 13.0974 9.30856 13.065 9.51007 13.065C11.1767 13.065 12.8432 13.0618 14.509 13.0673C14.9152 13.0689 15.1562 13.2791 15.1586 13.5976C15.161 13.9161 14.9207 14.131 14.5162 14.1349H14.5169ZM14.4806 9.90486C13.6524 9.90881 12.8235 9.90565 11.9953 9.90565C11.1672 9.90565 10.3382 9.90881 9.51007 9.90407C9.08098 9.9017 8.85497 9.72311 8.84865 9.39833C8.84154 9.06248 9.08809 8.86255 9.52666 8.86255C11.1703 8.86018 12.814 8.86097 14.4577 8.86255C14.9049 8.86255 15.1515 9.04668 15.1594 9.3762C15.1681 9.71205 14.9294 9.90328 14.4806 9.90486Z" fill="#92278F"/>
</svg>
