<svg width="25" height="25" viewBox="0 0 25 25" fill="none" xmlns="http://www.w3.org/2000/svg">
<path d="M6.61165 18.2724C6.2423 17.6417 5.91889 17.0104 5.6468 16.3529C5.2858 15.4793 5.01789 14.5783 4.82873 13.6528C4.80308 13.5275 4.83649 13.4911 4.95106 13.4506C7.31753 12.608 9.68282 11.7607 12.0475 10.9116C12.1364 10.8794 12.2116 10.8776 12.3029 10.9092C14.6712 11.7267 17.04 12.5424 19.4113 13.3509C19.57 13.4052 19.5485 13.4834 19.5246 13.6009C19.2615 14.9178 18.8313 16.1768 18.228 17.3768C18.2083 17.4156 18.191 17.4555 18.1666 17.5093C18.4184 17.5349 18.6582 17.5522 18.8969 17.5844C19.3122 17.6405 19.7036 17.7831 20.0873 17.9424C20.6297 18.1668 21.19 18.2921 21.7777 18.2867C21.869 18.2861 21.9597 18.2939 22.0361 18.3422C22.1728 18.4293 22.2479 18.557 22.208 18.7211C22.1644 18.8989 22.0469 18.9986 21.8559 19.0028C21.255 19.0159 20.6673 18.9419 20.1106 18.708C19.3975 18.4085 18.6678 18.2157 17.8849 18.2336C17.3187 18.2468 16.7799 18.3631 16.2619 18.5803C15.1563 19.0445 14.0196 19.1328 12.8578 18.8566C12.5708 18.7886 12.2957 18.6686 12.0189 18.5636C10.8577 18.1238 9.69654 18.097 8.54433 18.5821C7.28949 19.1102 6.01794 19.1376 4.73386 18.7241C4.20519 18.5541 3.70099 18.3046 3.13592 18.2623C2.95811 18.2491 2.7797 18.245 2.60188 18.2354C2.37812 18.2235 2.22418 18.0755 2.22597 17.8756C2.22776 17.6751 2.3823 17.5277 2.60666 17.5236C3.19977 17.5128 3.77736 17.6017 4.33109 17.8195C5.05369 18.1036 5.78165 18.3571 6.61105 18.2724H6.61165Z" fill="white"/>
<path d="M19.6708 12.6895C18.0955 12.1483 16.5322 11.6107 14.9689 11.0737C14.1132 10.7801 13.2564 10.4901 12.4025 10.1912C12.2372 10.1333 12.0886 10.1387 11.9275 10.1966C9.58194 11.0367 7.23456 11.8709 4.89075 12.717C4.7016 12.785 4.65864 12.7516 4.63656 12.5678C4.57033 12.0063 4.51663 11.4442 4.49873 10.8792C4.49097 10.6453 4.58644 10.5068 4.80423 10.4227C7.19159 9.5044 9.57717 8.58311 11.9621 7.65944C12.1101 7.60215 12.2462 7.60335 12.393 7.66063C14.7708 8.58192 17.1492 9.50261 19.5288 10.4185C19.7561 10.5062 19.8576 10.6477 19.8462 10.8899C19.8212 11.4252 19.7895 11.9592 19.7149 12.4902C19.706 12.5553 19.6863 12.6191 19.6702 12.6907L19.6708 12.6895Z" fill="white"/>
<path d="M7.44811 8.62453C7.44811 7.89657 7.44215 7.19009 7.4499 6.48361C7.45527 6.02654 7.7745 5.68404 8.22918 5.62676C8.31749 5.61542 8.407 5.61661 8.4965 5.61661C10.9811 5.61661 13.4651 5.61661 15.9498 5.61661C16.6694 5.61661 16.994 5.943 16.9946 6.66679C16.9946 7.26945 16.9886 7.87211 16.9982 8.47417C17.0011 8.65616 16.9534 8.66153 16.8001 8.60186C15.4324 8.06961 14.0606 7.5487 12.6936 7.01406C12.31 6.8637 11.9549 6.88518 11.5736 7.03674C10.2305 7.57018 8.87958 8.08393 7.53105 8.60425C7.51136 8.612 7.48929 8.61439 7.44811 8.62453Z" fill="white"/>
<path d="M2.84415 19.752C3.45337 19.7639 4.03574 19.8982 4.59544 20.1362C5.82164 20.6583 7.04485 20.647 8.27523 20.141C9.61719 19.5891 10.9699 19.5891 12.3101 20.141C13.5345 20.6446 14.7487 20.6512 15.9714 20.1488C17.3455 19.5837 18.7209 19.5962 20.0897 20.1643C20.6321 20.3892 21.19 20.5181 21.7784 20.5163C22.0618 20.5157 22.2223 20.6494 22.2223 20.8731C22.2223 21.0981 22.06 21.2264 21.7789 21.23C21.0766 21.2383 20.4137 21.0736 19.7669 20.8069C18.5986 20.3248 17.4213 20.3224 16.253 20.8045C14.8496 21.3833 13.4545 21.3857 12.0511 20.8063C10.8905 20.3272 9.71684 20.3182 8.55747 20.7968C7.12958 21.3863 5.71483 21.3911 4.29411 20.7866C3.78931 20.5718 3.26183 20.4602 2.71168 20.4626C2.62277 20.4626 2.53327 20.4692 2.44794 20.431C2.28624 20.3582 2.2033 20.2329 2.22597 20.0587C2.24805 19.8868 2.35307 19.7734 2.53148 19.7544C2.63411 19.743 2.73973 19.7526 2.84355 19.7526L2.84415 19.752Z" fill="white"/>
<path d="M12.1882 4.90236C11.6017 4.90236 11.0145 4.89819 10.428 4.90535C10.2889 4.90714 10.2346 4.8779 10.2394 4.72515C10.2514 4.354 10.24 3.98227 10.2442 3.61112C10.2472 3.31636 10.3725 3.19165 10.6661 3.19165C11.6834 3.18986 12.7008 3.18986 13.7187 3.19165C14.0057 3.19165 14.1364 3.32591 14.1388 3.61769C14.1418 3.98883 14.1334 4.36057 14.143 4.73171C14.1466 4.86835 14.109 4.90773 13.9705 4.90594C13.3762 4.89819 12.7825 4.90296 12.1882 4.90296V4.90236Z" fill="white"/>
</svg>
