<svg width="25" height="21" viewBox="0 0 25 21" fill="none" xmlns="http://www.w3.org/2000/svg">
<path d="M4.12744 12.9038V9.62414C4.12744 9.49904 4.22744 9.40074 4.35471 9.40074H7.69112C7.81839 9.40074 7.91839 9.49904 7.91839 9.62414V12.9038C7.91839 13.0289 7.81839 13.1272 7.69112 13.1272H4.35471C4.22744 13.1272 4.12744 13.0289 4.12744 12.9038ZM25 4.24473V5.36174H5.82604e-05V4.24473C5.82604e-05 1.90347 1.93639 0 4.31828 0H20.6818C23.0636 0 25 1.90338 25 4.24473ZM4.42737 3.44943C4.42737 3.07412 4.12738 2.77921 3.75465 2.77921C3.38191 2.77921 3.06374 3.07409 3.06374 3.44943C3.06374 3.82478 3.37283 4.11966 3.75465 4.11966C4.13646 4.11966 4.42737 3.81583 4.42737 3.44943ZM7.15462 3.44943C7.15462 3.07412 6.85464 2.77921 6.4819 2.77921C6.10916 2.77921 5.79099 3.07409 5.79099 3.44943C5.79099 3.82478 6.10008 4.11966 6.4819 4.11966C6.86371 4.11966 7.15462 3.81583 7.15462 3.44943ZM9.88187 3.44943C9.88187 3.07412 9.58189 2.77921 9.20915 2.77921C8.83641 2.77921 8.51824 3.07409 8.51824 3.44943C8.51824 3.82478 8.82733 4.11966 9.20915 4.11966C9.59096 4.11966 9.88187 3.81583 9.88187 3.44943ZM24.3181 6.70219H24.9999V16.7553C24.9999 19.0965 23.0636 21 20.6817 21H4.31822C1.93642 21 0 19.0966 0 16.7553V6.70219H24.3181ZM2.76367 12.904C2.76367 13.7708 3.48186 14.4678 4.35458 14.4678H7.69099C8.56371 14.4678 9.2819 13.7708 9.2819 12.904V9.62437C9.2819 8.7665 8.56371 8.06054 7.69099 8.06054H4.35458C3.48186 8.06054 2.76367 8.7665 2.76367 9.62437V12.904ZM21.9635 17.0773C21.9635 16.7109 21.6635 16.407 21.2817 16.407H3.44562C3.07291 16.407 2.76379 16.7109 2.76379 17.0773C2.76379 17.4436 3.07288 17.7475 3.44562 17.7475H21.2817C21.6635 17.7475 21.9635 17.4436 21.9635 17.0773ZM21.9635 12.904C21.9635 12.5376 21.6635 12.2338 21.2817 12.2338H11.9907C11.618 12.2338 11.3089 12.5376 11.3089 12.904C11.3089 13.2704 11.618 13.5742 11.9907 13.5742H21.2817C21.6635 13.5742 21.9635 13.2704 21.9635 12.904ZM21.9635 8.73076C21.9635 8.36439 21.6635 8.06054 21.2817 8.06054H11.9907C11.618 8.06054 11.3089 8.36436 11.3089 8.73076C11.3089 9.09716 11.618 9.40098 11.9907 9.40098H21.2817C21.6635 9.40098 21.9635 9.09716 21.9635 8.73076Z" fill="#93288E"/>
</svg>
