<svg width="194" height="54" viewBox="0 0 194 54" fill="none" xmlns="http://www.w3.org/2000/svg">
<path d="M82.2811 22.7381C82.0713 23.8463 81.7355 24.7361 81.2738 25.3909C80.8708 25.9785 80.2832 26.4403 79.5528 26.7509C78.8141 27.0699 77.9746 27.2294 77.0596 27.2294C75.2211 27.2294 73.7184 26.583 72.6019 25.307C71.9975 24.6186 71.5358 23.7623 71.2168 22.7465C70.8978 21.7392 70.7383 20.5807 70.7383 19.3214C70.7383 17.8356 70.9733 16.4924 71.4266 15.3255C71.754 14.4944 72.1738 13.7473 72.6775 13.1009C73.1811 12.4545 73.7436 11.9424 74.3312 11.5982C75.0028 11.2037 75.8087 11.0022 76.7238 11.0022C77.3366 11.0022 77.8822 11.1029 78.3691 11.296C78.856 11.4891 79.3345 11.8081 79.7879 12.2362C80.3839 12.7987 80.8456 13.4283 81.1562 14.1083C81.3325 14.486 81.5676 15.0653 81.8446 15.8292C81.8866 15.9383 81.9537 16.0978 82.0293 16.3161H82.1888L82.0461 11.0777H81.8614C81.7858 11.2456 81.7271 11.3716 81.6683 11.4471C81.4249 11.7661 81.0807 11.7997 80.5938 11.615L79.6116 11.2876C78.537 10.9182 77.5129 10.7419 76.5559 10.7419C75.5485 10.7419 74.5327 10.9098 73.5253 11.2456C72.5263 11.5814 71.6533 12.0431 70.9313 12.614C69.9995 13.3611 69.2608 14.3517 68.7403 15.5774C68.2198 16.803 67.9512 18.1546 67.9512 19.6069C67.9512 21.5041 68.4045 23.1579 69.3027 24.5178C70.201 25.8778 71.4602 26.8348 73.0468 27.3553C74.0458 27.6827 75.1036 27.8422 76.2033 27.8422C77.3786 27.8422 78.4195 27.6575 79.3094 27.2797C80.1992 26.9104 80.9044 26.3647 81.3997 25.6679C81.9202 24.946 82.2643 23.9638 82.4154 22.7381L82.2643 22.713L82.2811 22.7381Z" fill="white"/>
<path d="M99.9103 13.831C99.0541 12.8572 98.0383 12.0849 96.8966 11.556C95.7549 11.0188 94.5628 10.7501 93.3456 10.7501C92.3886 10.7501 91.4232 10.918 90.483 11.2538C89.5427 11.5896 88.6445 12.0849 87.8302 12.7061C86.7389 13.554 85.891 14.5614 85.3201 15.6947C84.7493 16.828 84.4639 18.0788 84.4639 19.4136C84.4639 20.4293 84.6486 21.4199 84.9927 22.3602C85.3453 23.3004 85.8574 24.1483 86.5122 24.887C87.3433 25.8272 88.3507 26.5744 89.4924 27.0864C90.6425 27.5985 91.8597 27.8588 93.1189 27.8588C94.3781 27.8588 95.6374 27.5901 96.8043 27.0613C97.9711 26.5324 98.9953 25.7685 99.8516 24.803C100.548 24.0307 101.086 23.1577 101.447 22.2091C101.816 21.2688 101.992 20.2698 101.992 19.2541C101.992 17.2393 101.287 15.4093 99.8935 13.8226L99.9103 13.831ZM97.3163 25.525C96.7371 26.2554 96.1159 26.7842 95.4695 27.1032C94.8231 27.4306 94.0675 27.5901 93.2197 27.5901C92.3718 27.5901 91.6246 27.4222 90.9866 27.0948C90.3402 26.7674 89.7274 26.2386 89.1566 25.5166C87.8806 23.9132 87.2426 21.9236 87.2426 19.5899C87.2426 18.2635 87.4188 17.0043 87.763 15.8542C88.1072 14.6957 88.6025 13.7051 89.2405 12.9076C89.7778 12.236 90.3654 11.7491 90.9866 11.4469C91.6163 11.1447 92.3634 10.9936 93.2197 10.9936C94.0759 10.9936 94.8483 11.1447 95.4779 11.4553C96.1159 11.7575 96.6951 12.2444 97.2156 12.916C97.8536 13.7219 98.3489 14.7125 98.7015 15.871C99.0457 17.0211 99.2304 18.2635 99.2304 19.5563C99.2304 21.9152 98.584 23.9216 97.3163 25.5334V25.525Z" fill="white"/>
<path d="M116.901 27.112C116.708 27.0113 116.498 26.835 116.297 26.5748C116.045 26.2641 115.734 25.7688 115.373 25.0889C115.012 24.4089 114.467 23.3344 113.753 21.8737C113.451 21.2357 113.216 20.7823 113.065 20.5389C112.914 20.2954 112.754 20.0856 112.57 19.9177C112.343 19.7078 111.99 19.5063 111.52 19.3048L111.327 19.2209L111.537 19.1789C112.116 19.053 112.586 18.9187 112.922 18.776C113.266 18.6333 113.585 18.4486 113.862 18.2303C114.786 17.4916 115.256 16.501 115.256 15.2753C115.256 14.4526 115.038 13.7139 114.618 13.0927C114.19 12.4715 113.577 11.993 112.805 11.6739C112.108 11.3969 111.134 11.229 109.908 11.1787C109.598 11.1787 108.96 11.1619 107.994 11.1619H102.261V11.3046C102.689 11.3298 103.05 11.3969 103.335 11.4977C103.637 11.6068 103.898 11.7831 104.116 12.0181C104.376 12.2784 104.561 12.6226 104.653 13.0255C104.746 13.4201 104.788 14.0413 104.788 14.8724V23.7373C104.788 24.5684 104.746 25.1812 104.653 25.5842C104.561 25.9871 104.385 26.3229 104.116 26.5915C103.898 26.8266 103.637 26.9945 103.344 27.1036C103.067 27.2128 102.706 27.2799 102.261 27.3051V27.4478H109.816V27.3051C109.371 27.2799 109.01 27.2128 108.733 27.1036C108.439 26.9945 108.179 26.8182 107.961 26.5915C107.701 26.3313 107.524 25.9871 107.432 25.5842C107.34 25.1812 107.289 24.5684 107.289 23.7457V19.4224H107.944C108.305 19.4224 108.624 19.4559 108.876 19.5315C109.136 19.5987 109.371 19.7162 109.598 19.8841C110.026 20.2115 110.513 20.8159 111.025 21.6974C111.537 22.5788 112.049 23.603 112.553 24.7447L113.392 26.6587C113.443 26.7762 113.569 27.0449 113.762 27.4562H117.64V27.3051C117.329 27.2715 117.086 27.2044 116.901 27.112ZM107.81 19.2209H107.348V11.4725H107.843C108.7 11.4725 109.363 11.5228 109.833 11.6404C110.295 11.7495 110.698 11.9426 111.033 12.2112C111.47 12.5722 111.806 13.0339 112.049 13.588C112.293 14.142 112.418 14.7381 112.418 15.3761C112.418 16.5681 111.999 17.5587 111.159 18.3562C110.781 18.7088 110.379 18.9439 109.95 19.053C109.522 19.1621 108.809 19.2209 107.818 19.2209H107.81Z" fill="white"/>
<path d="M134.967 15.7452C134.346 14.4692 133.473 13.4366 132.364 12.6475C131.198 11.8248 129.762 11.3463 128.091 11.2204C127.689 11.1868 126.748 11.17 125.296 11.17H118.748V11.3128C119.487 11.3631 120.066 11.5478 120.461 11.8752C120.78 12.1438 121.006 12.4964 121.115 12.9162C121.225 13.3275 121.283 13.9823 121.283 14.8722V23.7371C121.283 24.5598 121.241 25.1726 121.141 25.5756C121.048 25.9785 120.872 26.3227 120.612 26.5829C120.377 26.8264 120.116 26.9943 119.831 27.1034C119.562 27.2042 119.201 27.2713 118.756 27.2965V27.4392H127.579C128.604 27.4392 129.628 27.3469 130.61 27.1622C131.92 26.9187 133.028 26.3395 133.909 25.4412C134.53 24.8032 135.026 23.9889 135.378 23.0151C135.731 22.0413 135.907 21.0004 135.907 19.9007C135.907 18.398 135.596 16.996 134.975 15.7284L134.967 15.7452ZM132.692 22.7381C132.406 23.6531 131.987 24.4758 131.433 25.181C130.879 25.9113 130.232 26.457 129.527 26.7844C128.822 27.1118 127.957 27.2797 126.967 27.2797C125.8 27.2797 124.935 26.9523 124.415 26.3143C124.171 26.0205 124.003 25.6595 123.911 25.2398C123.819 24.8284 123.777 24.224 123.777 23.4349V11.4051H125.296C126.337 11.4051 127.21 11.4974 127.89 11.6821C129.132 12.0263 130.215 12.7483 131.114 13.8228C131.76 14.5951 132.255 15.5102 132.608 16.5343C132.952 17.5669 133.128 18.6666 133.128 19.7999C133.128 20.8325 132.986 21.8147 132.7 22.7297L132.692 22.7381Z" fill="white"/>
<path d="M150.371 22.7885C150.22 23.4852 150.052 24.0645 149.884 24.4926C149.699 24.9376 149.464 25.3405 149.171 25.6931C148.759 26.2136 148.214 26.5997 147.55 26.8516C146.896 27.095 146.073 27.2209 145.107 27.2209C144.142 27.2209 143.437 27.0866 142.874 26.8096C142.304 26.5326 141.875 26.096 141.598 25.5084C141.439 25.1642 141.321 24.7361 141.271 24.2324C141.212 23.7371 141.187 22.9228 141.187 21.8231V19.0024H141.943C142.539 19.0024 143.042 19.0612 143.429 19.1871C143.823 19.313 144.15 19.5061 144.394 19.7663C144.646 20.035 144.847 20.3708 144.99 20.7569C145.124 21.1263 145.233 21.6132 145.309 22.2008H145.46L145.51 15.8795H145.359C145.292 16.4672 145.2 16.9205 145.099 17.2311C144.99 17.5585 144.814 17.8439 144.587 18.079C144.344 18.3392 144.033 18.5155 143.655 18.6163C143.286 18.717 142.723 18.759 141.993 18.759H141.204V11.4051H144.025C144.872 11.4051 145.569 11.4639 146.081 11.5814C146.602 11.6989 147.063 11.9004 147.441 12.1858C147.903 12.5216 148.264 12.9246 148.507 13.3779C148.742 13.8144 148.919 14.3601 149.019 15.0149H149.171L148.969 11.17H136.167V11.3128C136.604 11.3379 136.973 11.4051 137.25 11.5058C137.544 11.615 137.804 11.7913 138.031 12.0263C138.282 12.2866 138.459 12.6307 138.56 13.0337C138.652 13.4366 138.702 14.0495 138.702 14.8722V23.7371C138.702 24.5514 138.66 25.1726 138.56 25.5756C138.467 25.9785 138.291 26.3227 138.031 26.5829C137.804 26.8264 137.535 26.9943 137.242 27.1034C136.964 27.2042 136.604 27.2713 136.175 27.2965V27.4392H150.396L150.547 22.7885H150.396H150.371Z" fill="white"/>
<path d="M166.255 22.6374C166.104 23.3593 165.936 23.947 165.768 24.3919C165.583 24.8536 165.348 25.2733 165.071 25.6343C164.652 26.1716 164.098 26.5745 163.434 26.8264C162.78 27.0782 161.957 27.2125 161 27.2125C160.043 27.2125 159.329 27.0782 158.767 26.8012C158.204 26.5242 157.768 26.0876 157.482 25.5C157.323 25.1726 157.205 24.7277 157.155 24.2072C157.096 23.6867 157.071 22.8808 157.071 21.8231V14.8806C157.071 14.0411 157.121 13.4031 157.214 13.0001C157.315 12.5888 157.508 12.2362 157.785 11.9675C158.011 11.7577 158.263 11.5982 158.557 11.4974C158.826 11.4051 159.178 11.3463 159.598 11.3128V11.17H152.043V11.3128C152.454 11.3295 152.798 11.3883 153.058 11.4807C153.344 11.5814 153.604 11.7409 153.831 11.9508C154.108 12.2194 154.309 12.5636 154.41 12.9749C154.511 13.3863 154.561 14.0243 154.561 14.8722V23.7371C154.561 24.5514 154.519 25.1726 154.418 25.5756C154.326 25.9785 154.15 26.3227 153.889 26.5829C153.453 27.0362 152.823 27.2797 152.034 27.2881V27.4392H166.263L166.415 22.6374L166.247 22.6206L166.255 22.6374Z" fill="white"/>
<path d="M172.97 13.4031C173.046 12.8238 173.247 12.3621 173.566 12.0263C173.801 11.7913 174.062 11.615 174.355 11.5058C174.632 11.4051 174.993 11.3379 175.422 11.3128V11.17H167.866V11.3128C168.303 11.3379 168.664 11.4051 168.941 11.5058C169.243 11.615 169.503 11.7913 169.721 12.0263C169.982 12.2866 170.166 12.6307 170.259 13.0337C170.351 13.4283 170.393 14.0495 170.393 14.8806V23.7455C170.393 24.5766 170.351 25.1894 170.259 25.5923C170.166 25.9953 169.99 26.3311 169.721 26.5997C169.503 26.8348 169.243 27.0027 168.949 27.1118C168.672 27.2209 168.311 27.2881 167.866 27.3133V27.456H175.422V27.3133C174.901 27.2797 174.473 27.179 174.146 27.0279C173.81 26.8684 173.524 26.6165 173.314 26.2891C173.163 26.0457 173.054 25.7267 172.987 25.3405C172.92 24.9543 172.886 24.4171 172.886 23.7539V14.8889C172.886 14.3349 172.911 13.8396 172.962 13.4115L172.97 13.4031Z" fill="white"/>
<path d="M192.816 27.1121C192.564 27.0366 192.337 26.9191 192.136 26.768C191.859 26.5581 191.598 26.2391 191.363 25.8193C191.128 25.408 190.818 24.7196 190.423 23.7626L185.21 11.162H184.614L180.232 22.4614C179.829 23.494 179.501 24.2747 179.258 24.7952C179.006 25.3157 178.754 25.7438 178.494 26.0796C178.183 26.4909 177.864 26.8015 177.537 26.9862C177.226 27.1709 176.857 27.2716 176.454 27.3052V27.4479H181.709V27.2968C181.239 27.2549 180.845 27.1205 180.534 26.9023C180.299 26.7344 180.114 26.5161 179.98 26.2559C179.846 25.9956 179.778 25.7018 179.778 25.3996C179.778 24.8875 179.963 24.1823 180.324 23.2925L180.626 22.5454L181.264 20.8412H186.645L188.022 24.2243C188.249 24.7868 188.358 25.2401 188.358 25.5759C188.358 26.1467 188.098 26.6085 187.586 26.9275C187.3 27.1037 186.822 27.2297 186.125 27.2884V27.4395H193.899V27.2884C193.428 27.2381 193.067 27.1709 192.824 27.0953L192.816 27.1121ZM181.491 20.4215L183.875 14.1925L186.402 20.4215H181.491Z" fill="white"/>
<path d="M97.6339 41.7445C97.439 42.0229 97.1699 42.2363 96.8265 42.3848C96.4832 42.5333 96.0934 42.6075 95.6573 42.6075C94.8036 42.6075 94.0983 42.3013 93.5786 41.7074C93.3002 41.3919 93.0775 40.9836 92.9383 40.5196C92.7899 40.0463 92.7156 39.5174 92.7156 38.9327C92.7156 38.246 92.827 37.6243 93.0404 37.0861C93.1889 36.7056 93.3838 36.353 93.625 36.056C93.857 35.7498 94.1169 35.5178 94.3953 35.3601C94.7108 35.1745 95.0912 35.0817 95.5181 35.0817C95.8058 35.0817 96.0656 35.1281 96.2883 35.2209C96.5203 35.3137 96.743 35.4621 96.9564 35.6663C97.2348 35.9261 97.4483 36.2231 97.5967 36.5386C97.6803 36.7149 97.7916 36.984 97.9123 37.3366C97.9308 37.383 97.9494 37.448 97.9865 37.5315L97.9215 35.2116H97.9123C97.8844 35.2765 97.8566 35.3322 97.8287 35.3601C97.7081 35.5178 97.5318 35.5456 97.2812 35.4529L96.8358 35.3044C96.344 35.1373 95.88 35.0538 95.4439 35.0538C94.9892 35.0538 94.5252 35.1281 94.0705 35.2858C93.6158 35.4343 93.2167 35.6477 92.8919 35.9076C92.4651 36.2416 92.131 36.6963 91.899 37.2531C91.6577 37.8099 91.5371 38.4316 91.5371 39.0905C91.5371 39.9535 91.7413 40.7052 92.1496 41.3269C92.5579 41.9394 93.1239 42.3755 93.8477 42.6168C94.3025 42.7652 94.785 42.8395 95.2861 42.8395C95.815 42.8395 96.2976 42.756 96.6966 42.5889C97.0956 42.4219 97.4111 42.1713 97.6431 41.8651C97.838 41.596 97.9679 41.2527 98.0515 40.8351C97.9494 41.2155 97.8195 41.531 97.6431 41.7723L97.6339 41.7445Z" fill="white"/>
<path fill-rule="evenodd" clip-rule="evenodd" d="M97.7231 41.7454C97.7229 41.7457 97.7227 41.746 97.7225 41.7463C97.7139 41.7605 97.7051 41.7745 97.6962 41.7883C97.6928 41.7935 97.6894 41.7987 97.686 41.8038C97.6722 41.8248 97.658 41.8453 97.6434 41.8655C97.6301 41.883 97.6166 41.9003 97.6028 41.9174C97.572 41.9556 97.5398 41.993 97.5062 42.0293C97.2919 42.2614 97.0221 42.4531 96.6968 42.5893C96.2978 42.7563 95.8153 42.8398 95.2863 42.8398C94.7852 42.8398 94.3027 42.7656 93.848 42.6171C93.1242 42.3759 92.5581 41.9397 92.1498 41.3273C91.7415 40.7055 91.5373 39.9539 91.5373 39.0908C91.5373 38.432 91.658 37.8102 91.8992 37.2535C92.1312 36.6967 92.4653 36.242 92.8922 35.9079C93.217 35.6481 93.616 35.4347 94.0707 35.2862C94.2928 35.2091 94.5171 35.152 94.7414 35.1137C94.9764 35.0736 95.2115 35.0542 95.4441 35.0542C95.4687 35.0542 95.4935 35.0545 95.5183 35.055C95.7742 35.0605 96.0396 35.0943 96.3144 35.1565C96.3147 35.1566 96.3151 35.1567 96.3154 35.1567C96.3425 35.1629 96.3697 35.1693 96.3969 35.176C96.5408 35.2112 96.6871 35.2542 96.836 35.3047L97.2815 35.4532C97.532 35.546 97.7083 35.5182 97.829 35.3604C97.8331 35.3563 97.8372 35.3516 97.8413 35.3464C97.865 35.316 97.8887 35.2675 97.9124 35.2122C97.9124 35.2121 97.9123 35.2123 97.9124 35.2122L97.9218 35.2119L97.9867 37.5319C97.9626 37.4776 97.9463 37.4312 97.9328 37.3927C97.9255 37.3718 97.919 37.3533 97.9125 37.337C97.9069 37.3205 97.9012 37.3042 97.8956 37.2881C97.7815 36.9594 97.6766 36.707 97.597 36.5389C97.4485 36.2234 97.2351 35.9265 96.9567 35.6666C96.7681 35.4862 96.5723 35.3493 96.3692 35.2559C96.3424 35.2436 96.3155 35.232 96.2885 35.2212C96.0658 35.1284 95.806 35.082 95.5183 35.082C95.4934 35.082 95.4687 35.0823 95.4441 35.083C95.1994 35.0893 94.9707 35.1268 94.7617 35.1957C94.6318 35.2385 94.5094 35.2934 94.3955 35.3604C94.1171 35.5182 93.8573 35.7502 93.6253 36.0564C93.384 36.3533 93.1891 36.706 93.0407 37.0864C92.8272 37.6247 92.7159 38.2464 92.7159 38.9331C92.7159 39.5177 92.7901 40.0467 92.9386 40.5199C93.0778 40.9839 93.3005 41.3922 93.5789 41.7077C94.0985 42.3016 94.8038 42.6079 95.6575 42.6079C96.0937 42.6079 96.4834 42.5336 96.8268 42.3851C97.0703 42.2798 97.2765 42.1418 97.4454 41.9711C97.4905 41.9255 97.533 41.8775 97.5728 41.8272C97.5749 41.8245 97.5771 41.8217 97.5792 41.819C97.5796 41.8186 97.5799 41.8181 97.5803 41.8177C97.5885 41.8071 97.5967 41.7964 97.6047 41.7856C97.6113 41.7767 97.6178 41.7677 97.6243 41.7587C97.6276 41.7541 97.6308 41.7495 97.6341 41.7448L97.6434 41.7727C97.6468 41.768 97.6502 41.7633 97.6536 41.7585C97.6598 41.7498 97.666 41.741 97.6721 41.7322C97.6826 41.7169 97.6929 41.7013 97.7031 41.6854C97.8495 41.4571 97.9615 41.1716 98.0517 40.8354C97.9801 41.1933 97.8745 41.4966 97.7231 41.7454ZM97.6683 41.5812L97.6611 41.5594L97.5651 41.6965C97.3801 41.9609 97.1239 42.1649 96.7933 42.3078C96.4621 42.4511 96.0841 42.5236 95.6575 42.5236C94.8259 42.5236 94.1446 42.2263 93.6423 41.6523C93.3728 41.3468 93.1553 40.9494 93.0192 40.4957L93.0189 40.4947C92.8734 40.0309 92.8001 39.5106 92.8001 38.9331C92.8001 38.2554 92.91 37.6444 93.1189 37.1175C93.2648 36.7436 93.4558 36.3985 93.6906 36.1095L93.6924 36.1073C93.9185 35.8088 94.17 35.585 94.437 35.4337L94.4382 35.433C94.7385 35.2564 95.1036 35.1662 95.5183 35.1662C95.7972 35.1662 96.0456 35.2112 96.2561 35.299L96.2573 35.2994C96.4776 35.3875 96.6914 35.5295 96.8985 35.7275L96.8992 35.7282C97.1699 35.9808 97.3769 36.269 97.5208 36.5748C97.6027 36.7477 97.713 37.014 97.8328 37.3642L97.8343 37.3683C97.8401 37.3828 97.8457 37.3987 97.8526 37.4185C97.8559 37.4277 97.8594 37.4377 97.8633 37.4488C97.8753 37.4823 97.89 37.5216 97.9098 37.5661L98.0709 37.5295L98.0037 35.1277H97.857L97.8351 35.1788C97.8216 35.2102 97.8089 35.2376 97.7968 35.2598C97.7842 35.2829 97.7748 35.2955 97.7694 35.3009L97.7621 35.3093C97.7135 35.3728 97.6576 35.4065 97.5901 35.4177C97.5195 35.4295 97.4286 35.4179 97.3107 35.3742L96.8631 35.225C96.8632 35.225 96.863 35.225 96.8631 35.225C96.3643 35.0556 95.8909 34.97 95.4441 34.97C94.9804 34.97 94.5074 35.0456 94.0438 35.2064C93.5809 35.3576 93.1731 35.5754 92.8399 35.8419C92.4006 36.1858 92.0585 36.6525 91.8217 37.2205C91.5756 37.7888 91.4531 38.4219 91.4531 39.0908C91.4531 39.9674 91.6606 40.7358 92.0794 41.3735C92.4982 42.0016 93.0799 42.4499 93.8213 42.697C94.285 42.8484 94.7769 42.9241 95.2863 42.9241C95.8236 42.9241 96.3177 42.8393 96.7294 42.667C97.1419 42.4943 97.4694 42.2346 97.7105 41.9163L97.7116 41.9149C97.9159 41.6327 98.0493 41.2767 98.1343 40.8519L97.9703 40.8136C97.8891 41.1163 97.7912 41.3728 97.6683 41.5812Z" fill="white"/>
<path d="M111.172 42.5528C111.079 42.5064 110.977 42.4228 110.884 42.2929C110.764 42.1537 110.625 41.9217 110.458 41.6062C110.29 41.2907 110.04 40.7989 109.715 40.1215C109.576 39.8338 109.474 39.6204 109.4 39.509C109.335 39.3976 109.26 39.3049 109.186 39.2306C109.084 39.1378 108.926 39.045 108.713 38.9522L108.499 38.8594L108.731 38.813C108.991 38.7573 109.205 38.6924 109.363 38.6274C109.52 38.5625 109.659 38.479 109.789 38.3862C110.207 38.0521 110.411 37.6159 110.411 37.0592C110.411 36.688 110.318 36.3632 110.123 36.0848C109.929 35.8064 109.659 35.593 109.307 35.4538C108.991 35.3331 108.546 35.2496 107.989 35.2311C107.85 35.2311 107.562 35.2311 107.117 35.2311H104.686C104.806 35.2496 104.899 35.2682 104.992 35.3053C105.131 35.3517 105.261 35.4445 105.372 35.5559C105.493 35.6858 105.586 35.8435 105.632 36.0384C105.669 36.224 105.697 36.5117 105.697 36.8921V40.9659C105.697 41.3464 105.678 41.6341 105.632 41.8196C105.586 42.0145 105.502 42.1723 105.372 42.3022C105.27 42.4136 105.14 42.4971 105.001 42.5528C104.918 42.5899 104.815 42.6084 104.695 42.627H107.757C107.636 42.6084 107.534 42.5899 107.451 42.5528C107.312 42.4971 107.182 42.4136 107.08 42.3022C106.959 42.1723 106.876 42.0145 106.829 41.8196C106.783 41.6248 106.764 41.3557 106.764 40.9659V35.2589H107.061C107.46 35.2589 107.766 35.2867 107.989 35.3331C108.212 35.3888 108.407 35.4816 108.574 35.6115C108.778 35.7878 108.945 36.0106 109.066 36.2704C109.186 36.5395 109.242 36.8179 109.242 37.1241C109.242 37.6902 109.038 38.1635 108.639 38.5439C108.453 38.711 108.258 38.8316 108.045 38.8873C107.896 38.9244 107.692 38.9522 107.414 38.9615C107.46 38.9615 107.507 38.9801 107.553 38.9893C107.674 39.0265 107.794 39.0821 107.896 39.1564C108.1 39.3141 108.323 39.5925 108.564 40.0008C108.806 40.4091 109.038 40.8824 109.27 41.4113L109.659 42.2929C109.687 42.3393 109.734 42.46 109.817 42.6363H111.441C111.348 42.6177 111.274 42.5899 111.209 42.562L111.172 42.5528Z" fill="white"/>
<path fill-rule="evenodd" clip-rule="evenodd" d="M111.172 42.5522C111.079 42.5056 110.978 42.4223 110.885 42.293C110.765 42.1538 110.626 41.9218 110.459 41.6063C110.292 41.2908 110.041 40.799 109.716 40.1216C109.709 40.1062 109.701 40.091 109.694 40.0761C109.566 39.8114 109.471 39.6145 109.401 39.5091C109.336 39.3978 109.262 39.305 109.187 39.2307C109.085 39.1379 108.927 39.0451 108.714 38.9523L108.501 38.8595L108.733 38.8131C108.992 38.7575 109.206 38.6925 109.364 38.6275C109.521 38.5626 109.661 38.4791 109.79 38.3863C110.208 38.0522 110.412 37.6161 110.412 37.0593C110.412 36.6881 110.319 36.3633 110.125 36.0849C109.93 35.8065 109.661 35.5931 109.308 35.4539C108.992 35.3333 108.547 35.2497 107.99 35.2312H104.687C104.807 35.2497 104.9 35.2683 104.993 35.3054C105.002 35.3085 105.012 35.3119 105.021 35.3154C105.149 35.3644 105.269 35.4521 105.373 35.556C105.494 35.6859 105.587 35.8436 105.633 36.0385C105.67 36.2241 105.698 36.5118 105.698 36.8922V40.966C105.698 41.3465 105.68 41.6342 105.633 41.8198C105.587 42.0146 105.503 42.1724 105.373 42.3023C105.277 42.4072 105.156 42.4874 105.026 42.5429C105.018 42.5463 105.01 42.5496 105.002 42.5529C104.919 42.59 104.817 42.6085 104.696 42.6271H107.758C107.638 42.6085 107.535 42.59 107.452 42.5529C107.444 42.5496 107.436 42.5463 107.428 42.5429C107.298 42.4874 107.177 42.4072 107.081 42.3023C106.96 42.1724 106.877 42.0146 106.83 41.8198C106.784 41.6249 106.765 41.3558 106.765 40.966V35.259H107.062C107.081 35.259 107.1 35.2591 107.118 35.2592C107.437 35.2613 107.694 35.2817 107.895 35.3154C107.928 35.321 107.96 35.327 107.99 35.3333C108.213 35.3889 108.408 35.4817 108.575 35.6116C108.779 35.788 108.946 36.0107 109.067 36.2705C109.187 36.5396 109.243 36.818 109.243 37.1242C109.243 37.6903 109.039 38.1636 108.64 38.544C108.454 38.7111 108.259 38.8317 108.046 38.8874C107.95 38.9114 107.83 38.9315 107.682 38.9453C107.645 38.9488 107.606 38.9518 107.565 38.9544C107.564 38.9545 107.562 38.9546 107.561 38.9547C107.515 38.9576 107.466 38.9599 107.415 38.9616C107.446 38.9616 107.477 38.9699 107.508 38.9781C107.523 38.9822 107.539 38.9864 107.554 38.9895C107.593 39.0014 107.632 39.0152 107.67 39.031C107.75 39.0643 107.828 39.1061 107.897 39.1565C108.102 39.3142 108.324 39.5926 108.566 40.0009C108.807 40.4093 109.039 40.8825 109.271 41.4114L109.661 42.293C109.675 42.3175 109.695 42.3626 109.723 42.4256C109.748 42.4821 109.779 42.553 109.818 42.6364H111.442C111.349 42.6178 111.275 42.59 111.21 42.5621L111.173 42.5529C111.173 42.5526 111.172 42.5524 111.172 42.5522ZM111.203 42.4735C111.126 42.4331 111.037 42.3603 110.954 42.2441L110.949 42.2379C110.835 42.1067 110.7 41.8826 110.533 41.5669C110.367 41.2525 110.117 40.7617 109.792 40.0852C109.784 40.068 109.776 40.0508 109.767 40.0341C109.643 39.7762 109.546 39.5754 109.472 39.4645C109.404 39.3476 109.325 39.2498 109.247 39.1712L109.244 39.1684C109.137 39.0716 108.981 38.9791 108.779 38.8891C109.03 38.8341 109.238 38.7703 109.396 38.7054C109.561 38.6374 109.706 38.5503 109.839 38.4548L109.843 38.452C110.282 38.1012 110.496 37.6404 110.496 37.0593C110.496 36.6733 110.4 36.3311 110.194 36.0366C109.989 35.744 109.706 35.5205 109.339 35.3756L109.338 35.3752C109.011 35.2502 108.556 35.1658 107.993 35.147L104.687 35.147L104.674 35.3144C104.793 35.3328 104.878 35.3502 104.962 35.3836L104.966 35.3853C105.089 35.4261 105.207 35.5094 105.313 35.6144C105.424 35.7342 105.508 35.8784 105.551 36.0565C105.586 36.235 105.614 36.5162 105.614 36.8922V40.966C105.614 41.3463 105.595 41.6248 105.551 41.7993L105.551 41.8003C105.508 41.982 105.431 42.1252 105.314 42.2428L105.311 42.2454C105.219 42.3461 105.1 42.4229 104.971 42.4747L104.968 42.4759C104.896 42.5078 104.805 42.5251 104.683 42.5438L104.696 42.7113H107.758L107.771 42.5438C107.649 42.5251 107.558 42.5078 107.486 42.4759L107.483 42.4747C107.354 42.4229 107.235 42.3461 107.143 42.2454C107.033 42.127 106.955 41.9822 106.912 41.8003C106.868 41.6156 106.85 41.3549 106.85 40.966V35.3432H107.062C107.457 35.3432 107.756 35.3708 107.971 35.4154C108.182 35.4683 108.365 35.5557 108.521 35.6768C108.715 35.8446 108.875 36.0569 108.99 36.3055C109.105 36.5627 109.159 36.8291 109.159 37.1242C109.159 37.667 108.964 38.1179 108.583 38.4822C108.404 38.6429 108.221 38.7545 108.025 38.8058C107.884 38.841 107.686 38.8683 107.412 38.8774L107.415 39.0458C107.427 39.0458 107.443 39.0484 107.464 39.0538C107.469 39.055 107.475 39.0567 107.482 39.0585C107.498 39.0626 107.516 39.0675 107.533 39.0711C107.645 39.1059 107.755 39.1572 107.847 39.2239C108.038 39.3721 108.254 39.6395 108.493 40.0438C108.732 40.4482 108.962 40.9181 109.194 41.4453L109.584 42.3271L109.588 42.3363C109.599 42.3538 109.615 42.3893 109.641 42.4499L109.646 42.4596C109.671 42.5161 109.702 42.588 109.742 42.6724L109.765 42.7206H111.442L111.459 42.5538C111.374 42.5368 111.305 42.5113 111.243 42.4847L111.237 42.4821L111.203 42.4735Z" fill="white"/>
<path d="M123.162 35.2308C123.283 35.2494 123.375 35.2679 123.468 35.3051C123.607 35.3515 123.737 35.4443 123.849 35.5556C123.969 35.6855 124.053 35.8433 124.099 36.0382C124.146 36.2238 124.164 36.5114 124.164 36.8919V39.982C124.164 40.5481 124.164 40.91 124.146 41.0585C124.118 41.2997 124.071 41.5039 124.007 41.6617C123.932 41.8194 123.821 41.9679 123.672 42.1071C123.431 42.3205 123.134 42.4875 122.772 42.6082C122.42 42.7288 122.039 42.7845 121.649 42.7845C121.26 42.7845 120.907 42.7195 120.638 42.5803C120.369 42.4412 120.137 42.2184 119.951 41.9215C119.831 41.7266 119.747 41.5039 119.71 41.2719C119.673 41.0399 119.654 40.6687 119.654 40.1583V37.0311C119.654 36.5764 119.673 36.2609 119.71 36.066C119.747 35.8711 119.84 35.7041 119.97 35.5649C120.072 35.4535 120.202 35.3607 120.341 35.3143C120.425 35.2865 120.527 35.2587 120.647 35.2401H117.585C117.706 35.2587 117.808 35.2772 117.891 35.3143C118.03 35.3607 118.16 35.4535 118.262 35.5649C118.383 35.6948 118.476 35.8526 118.522 36.0474C118.559 36.233 118.587 36.5207 118.587 36.9012V40.2604C118.587 40.678 118.596 40.9657 118.624 41.1327C118.68 41.5688 118.866 41.9215 119.172 42.1906C119.645 42.6175 120.406 42.8309 121.427 42.8309C122.448 42.8309 123.162 42.5989 123.682 42.1535C123.904 41.9586 124.053 41.7452 124.127 41.5132C124.201 41.2719 124.248 40.9007 124.248 40.3903V36.9012C124.248 36.5114 124.266 36.233 124.313 36.0474C124.359 35.8526 124.443 35.6855 124.563 35.5649C124.675 35.4535 124.805 35.3607 124.944 35.3143C125.027 35.2865 125.129 35.2587 125.241 35.2401H123.162V35.2308Z" fill="white"/>
<path fill-rule="evenodd" clip-rule="evenodd" d="M123.078 35.1328L123.175 35.1477C123.193 35.1505 123.21 35.1532 123.227 35.156H125.241L125.255 35.3233C125.148 35.341 125.051 35.3677 124.97 35.3944C124.848 35.4354 124.728 35.5191 124.623 35.6246C124.516 35.7315 124.439 35.8832 124.395 36.0671L124.395 36.068C124.351 36.2426 124.332 36.5118 124.332 36.9013V40.3905C124.332 40.9044 124.286 41.2852 124.208 41.5381L124.207 41.539C124.128 41.7884 123.969 42.0142 123.737 42.217L123.737 42.2176C123.197 42.6802 122.46 42.9152 121.427 42.9152C120.398 42.9152 119.612 42.7007 119.116 42.2536C118.794 41.9706 118.599 41.5996 118.541 41.1451C118.512 40.9698 118.503 40.6755 118.503 40.2606V36.9013C118.503 36.5253 118.476 36.2441 118.44 36.0656C118.397 35.8869 118.312 35.7424 118.201 35.6223C118.106 35.5193 117.988 35.4354 117.865 35.3944L117.857 35.3918C117.785 35.3599 117.694 35.3422 117.572 35.3235L117.585 35.156H120.647L120.66 35.3235C120.545 35.3412 120.448 35.3678 120.368 35.3944C120.245 35.4354 120.127 35.5189 120.032 35.6219C119.912 35.7509 119.827 35.9044 119.793 36.0819C119.757 36.2683 119.739 36.5769 119.739 37.0312V40.1585C119.739 40.6683 119.757 41.0338 119.793 41.2587C119.829 41.4797 119.908 41.6918 120.023 41.8772C120.202 42.1633 120.423 42.3745 120.677 42.5057C120.93 42.6366 121.268 42.7004 121.65 42.7004C122.031 42.7004 122.403 42.6459 122.745 42.5286C123.097 42.4112 123.384 42.2495 123.616 42.0449C123.757 41.9126 123.861 41.7735 123.93 41.6278C123.99 41.48 124.035 41.2848 124.062 41.049C124.08 40.9073 124.08 40.5525 124.08 39.9822V36.892C124.08 36.5117 124.061 36.2333 124.018 36.0587L124.017 36.0578C123.974 35.8765 123.898 35.7324 123.788 35.6142C123.683 35.5092 123.564 35.4259 123.442 35.3851L123.437 35.3835C123.369 35.3563 123.3 35.3396 123.213 35.3245H123.078V35.1328ZM123.52 35.3245C123.639 35.3748 123.751 35.4582 123.849 35.5558C123.969 35.6857 124.053 35.8434 124.099 36.0383C124.142 36.2098 124.161 36.4686 124.164 36.8071C124.164 36.8349 124.164 36.8632 124.164 36.892V39.9822C124.164 40.1328 124.164 40.2689 124.164 40.3905C124.163 40.7257 124.159 40.9496 124.146 41.0586C124.127 41.2213 124.1 41.3671 124.064 41.4931C124.064 41.4929 124.064 41.4934 124.064 41.4931C124.047 41.5538 124.028 41.6106 124.007 41.6618C123.932 41.8195 123.821 41.968 123.673 42.1072C123.667 42.1123 123.661 42.1174 123.655 42.1225C123.655 42.1224 123.655 42.1226 123.655 42.1225C123.417 42.3285 123.126 42.4906 122.772 42.6083C122.42 42.729 122.039 42.7846 121.65 42.7846C121.574 42.7846 121.499 42.7822 121.427 42.7772C121.323 42.7701 121.223 42.7579 121.128 42.7403C120.946 42.7068 120.78 42.654 120.638 42.5805C120.369 42.4413 120.137 42.2186 119.951 41.9216C119.831 41.7268 119.747 41.504 119.71 41.272C119.673 41.0401 119.654 40.6689 119.654 40.1585V37.0312C119.654 36.5765 119.673 36.261 119.71 36.0661C119.747 35.8713 119.84 35.7042 119.97 35.565C120.065 35.4612 120.185 35.3734 120.313 35.3245C120.322 35.3209 120.332 35.3176 120.341 35.3145C120.425 35.2867 120.527 35.2588 120.647 35.2403H117.585C117.706 35.2588 117.808 35.2774 117.891 35.3145C117.901 35.3176 117.91 35.3209 117.919 35.3245C118.048 35.3734 118.167 35.4612 118.262 35.565C118.383 35.6949 118.476 35.8527 118.522 36.0476C118.559 36.2332 118.587 36.5208 118.587 36.9013V40.2606C118.587 40.6782 118.597 40.9658 118.624 41.1328C118.68 41.569 118.866 41.9216 119.172 42.1907C119.596 42.5734 120.252 42.7845 121.118 42.8242C121.218 42.8287 121.321 42.831 121.427 42.831C121.503 42.831 121.577 42.8297 121.65 42.8272C122.084 42.8119 122.459 42.7509 122.785 42.6459C122.785 42.646 122.785 42.6459 122.785 42.6459C123.137 42.5325 123.432 42.3677 123.682 42.1536C123.688 42.1484 123.694 42.1431 123.7 42.1378C123.7 42.1376 123.7 42.1373 123.701 42.1371C123.858 41.9961 123.976 41.8456 124.057 41.6854C124.057 41.6846 124.058 41.6838 124.058 41.683C124.086 41.6276 124.109 41.571 124.127 41.5133C124.163 41.3958 124.193 41.2474 124.214 41.0671C124.214 41.0673 124.214 41.0669 124.214 41.0671C124.236 40.8775 124.248 40.6519 124.248 40.3905V36.9013C124.248 36.8982 124.248 36.8951 124.248 36.892C124.248 36.8631 124.248 36.8348 124.248 36.8072C124.251 36.4663 124.27 36.2179 124.313 36.0476C124.359 35.8527 124.443 35.6857 124.563 35.565C124.667 35.4612 124.787 35.3734 124.916 35.3245C124.925 35.3209 124.935 35.3176 124.944 35.3145C125.027 35.2867 125.129 35.2588 125.241 35.2403H123.22C123.201 35.2371 123.182 35.234 123.162 35.231V35.2403H123.22C123.313 35.2562 123.391 35.2742 123.468 35.3052C123.486 35.3109 123.503 35.3174 123.52 35.3245Z" fill="white"/>
<path d="M132.786 41.8201C132.739 42.015 132.656 42.1728 132.526 42.3027C132.415 42.4141 132.294 42.4976 132.155 42.5533C132.071 42.5904 131.969 42.6089 131.849 42.6275H134.92C134.762 42.5996 134.623 42.5625 134.512 42.5068C134.345 42.4326 134.215 42.312 134.113 42.1542C134.039 42.0336 133.992 41.8851 133.955 41.6995C133.918 41.5139 133.909 41.2819 133.909 40.9664V36.8926C133.909 36.6328 133.909 36.4101 133.946 36.2059C133.983 35.9275 134.076 35.7048 134.234 35.5471C134.345 35.4357 134.466 35.3429 134.614 35.2965C134.698 35.2687 134.8 35.2408 134.911 35.2223H131.849C131.969 35.2408 132.062 35.2594 132.155 35.2965C132.294 35.3429 132.424 35.4357 132.526 35.5471C132.647 35.677 132.739 35.8347 132.786 36.0296C132.823 36.2152 132.851 36.5029 132.851 36.8834V40.9571C132.851 41.3376 132.832 41.6253 132.786 41.8109V41.8201Z" fill="white"/>
<path fill-rule="evenodd" clip-rule="evenodd" d="M132.179 42.5431C132.308 42.4876 132.421 42.4074 132.526 42.3026C132.656 42.1726 132.74 42.0149 132.786 41.82V41.8107C132.832 41.6251 132.851 41.3375 132.851 40.957V36.8832C132.851 36.5028 132.823 36.2151 132.786 36.0295C132.74 35.8346 132.647 35.6769 132.526 35.547C132.431 35.4431 132.312 35.3554 132.183 35.3064C132.174 35.3028 132.164 35.2995 132.155 35.2964C132.062 35.2593 131.969 35.2407 131.849 35.2222H134.911C134.8 35.2407 134.698 35.2686 134.614 35.2964C134.604 35.2995 134.594 35.3028 134.585 35.3064C134.449 35.3554 134.337 35.4431 134.234 35.547C134.076 35.7047 133.983 35.9274 133.946 36.2058C133.909 36.41 133.909 36.6327 133.909 36.8925V40.9663C133.909 41.2818 133.918 41.5138 133.955 41.6994C133.992 41.885 134.039 42.0334 134.113 42.1541C134.215 42.3118 134.345 42.4325 134.512 42.5067C134.538 42.5198 134.566 42.5319 134.595 42.5431C134.69 42.5794 134.8 42.6061 134.92 42.6273H131.849C131.969 42.6088 132.071 42.5902 132.155 42.5531C132.163 42.5499 132.171 42.5465 132.179 42.5431ZM134.184 42.1091C134.279 42.2551 134.397 42.3633 134.546 42.4298L134.55 42.4313C134.65 42.4817 134.78 42.5171 134.935 42.5444L134.92 42.7116H131.849L131.836 42.5441C131.958 42.5254 132.049 42.5081 132.121 42.4762L132.124 42.4749C132.251 42.424 132.362 42.3475 132.467 42.243C132.582 42.1276 132.658 41.9872 132.702 41.81V41.8004L132.704 41.7903C132.748 41.6157 132.767 41.3373 132.767 40.957V36.8832C132.767 36.5072 132.739 36.226 132.704 36.0475C132.661 35.8688 132.576 35.7243 132.464 35.6043C132.37 35.5012 132.251 35.4173 132.128 35.3763L132.124 35.3747C132.04 35.3413 131.955 35.3237 131.836 35.3054L131.849 35.1379H134.911L134.925 35.3052C134.819 35.3229 134.721 35.3496 134.641 35.3763L134.639 35.3768C134.509 35.4174 134.4 35.4996 134.293 35.6065C134.152 35.7472 134.065 35.9504 134.029 36.2169L134.029 36.2209C133.993 36.4161 133.993 36.6307 133.993 36.8925V40.9663C133.993 41.2818 134.002 41.5063 134.038 41.6829C134.074 41.8643 134.118 42.0012 134.184 42.1091Z" fill="white"/>
<path d="M145.648 39.2768C145.388 38.9428 144.961 38.6365 144.377 38.3581L143.597 37.9777C142.781 37.5879 142.363 37.0683 142.363 36.4187C142.363 36.2609 142.391 36.0939 142.456 35.9269C142.512 35.7598 142.595 35.6206 142.706 35.5C142.957 35.203 143.31 35.0546 143.736 35.0546C144.033 35.0546 144.293 35.1288 144.525 35.2773C144.748 35.4165 144.961 35.6392 145.147 35.9361C145.249 36.0939 145.333 36.2795 145.407 36.4651C145.472 36.6414 145.555 36.8919 145.648 37.2075L145.611 35.1845C145.537 35.4072 145.407 35.4629 145.295 35.4629C145.24 35.4629 145.175 35.4536 145.091 35.4258C145.017 35.3979 144.887 35.3515 144.711 35.2866C144.47 35.1845 144.265 35.1103 144.126 35.0824C143.987 35.0453 143.829 35.036 143.662 35.036C143.152 35.036 142.697 35.2123 142.326 35.5557C142.112 35.7505 141.945 35.9918 141.825 36.2609C141.704 36.53 141.649 36.8177 141.649 37.1147C141.649 37.5879 141.797 37.9962 142.103 38.3303C142.215 38.4509 142.363 38.5716 142.539 38.6922C142.725 38.8128 142.994 38.9613 143.337 39.1376C143.736 39.3418 144.033 39.5088 144.228 39.648C144.432 39.7872 144.59 39.9357 144.702 40.0842C144.813 40.2326 144.896 40.4089 144.961 40.6131C145.026 40.8173 145.054 41.0121 145.054 41.207C145.054 41.6617 144.906 42.0422 144.618 42.3391C144.33 42.6361 143.959 42.7846 143.514 42.7846C142.883 42.7846 142.354 42.4598 141.936 41.8195C141.732 41.4947 141.546 41.0493 141.389 40.4925L141.37 42.6082C141.454 42.4319 141.593 42.3391 141.788 42.3391C141.853 42.3391 141.908 42.3391 141.964 42.367C142.01 42.3855 142.15 42.4412 142.382 42.5433C142.808 42.7289 143.263 42.8217 143.727 42.8217C144.228 42.8217 144.674 42.701 145.045 42.4783C145.416 42.2556 145.694 41.9308 145.88 41.5132C146.01 41.2163 146.075 40.9008 146.075 40.576C146.075 40.0842 145.926 39.648 145.639 39.2861L145.648 39.2768Z" fill="white"/>
<path fill-rule="evenodd" clip-rule="evenodd" d="M145.638 39.286C145.926 39.6479 146.074 40.084 146.074 40.5759C146.074 40.9006 146.009 41.2161 145.879 41.5131C145.694 41.9307 145.415 42.2555 145.044 42.4782C144.735 42.6635 144.375 42.7782 143.974 42.8114C143.893 42.8181 143.81 42.8215 143.726 42.8215C143.655 42.8215 143.584 42.8193 143.513 42.8149C143.224 42.797 142.94 42.7426 142.665 42.6517C142.569 42.6199 142.474 42.5838 142.381 42.5431C142.149 42.4411 142.01 42.3854 141.963 42.3668C141.908 42.339 141.852 42.339 141.787 42.339C141.648 42.339 141.537 42.3863 141.455 42.4775C141.422 42.514 141.393 42.5577 141.369 42.6081L141.388 40.4923C141.414 40.5859 141.442 40.6763 141.47 40.7635C141.609 41.1954 141.766 41.5491 141.935 41.8193C142.159 42.1616 142.414 42.4137 142.699 42.5743C142.948 42.7141 143.219 42.7844 143.513 42.7844C143.586 42.7844 143.657 42.7804 143.726 42.7724C143.807 42.7631 143.885 42.7483 143.96 42.7281C144.212 42.6601 144.432 42.5304 144.617 42.339C144.905 42.042 145.053 41.6616 145.053 41.2069C145.053 41.012 145.026 40.8171 144.961 40.613C144.896 40.4088 144.812 40.2325 144.701 40.084C144.589 39.9356 144.432 39.7871 144.228 39.6479C144.033 39.5087 143.736 39.3416 143.337 39.1375C142.993 38.9612 142.724 38.8127 142.539 38.6921C142.362 38.5714 142.214 38.4508 142.102 38.3302C141.796 37.9961 141.648 37.5878 141.648 37.1145C141.648 36.8176 141.703 36.5299 141.824 36.2608C141.945 35.9917 142.112 35.7504 142.325 35.5555C142.531 35.3653 142.762 35.2264 143.014 35.1403C143.217 35.071 143.434 35.0359 143.661 35.0359C143.686 35.0359 143.711 35.0361 143.736 35.0366C143.875 35.0393 144.007 35.0507 144.125 35.0823C144.234 35.104 144.383 35.1542 144.558 35.2238C144.558 35.2239 144.558 35.2237 144.558 35.2238C144.589 35.2362 144.621 35.2494 144.654 35.263C144.672 35.2706 144.691 35.2784 144.71 35.2864C144.798 35.3189 144.875 35.3468 144.939 35.37C145.002 35.3932 145.053 35.4117 145.091 35.4256C145.174 35.4535 145.239 35.4627 145.295 35.4627C145.372 35.4627 145.458 35.4358 145.529 35.3446C145.56 35.3046 145.588 35.2522 145.61 35.1844L145.647 37.2073C145.616 37.1018 145.586 37.0036 145.558 36.9129C145.501 36.7325 145.449 36.5823 145.406 36.4649C145.332 36.2793 145.248 36.0938 145.146 35.936C144.985 35.6785 144.803 35.4768 144.613 35.337C144.583 35.3156 144.554 35.2956 144.524 35.2771C144.399 35.1967 144.265 35.1381 144.122 35.1013C144.121 35.1012 144.121 35.1011 144.12 35.101C143.999 35.0699 143.871 35.0544 143.736 35.0544C143.711 35.0544 143.686 35.0549 143.661 35.056C143.433 35.0655 143.227 35.1194 143.048 35.2177C142.919 35.2886 142.805 35.3827 142.706 35.4999C142.594 35.6205 142.511 35.7597 142.455 35.9267C142.39 36.0938 142.362 36.2608 142.362 36.4186C142.362 37.0681 142.78 37.5878 143.596 37.9775L144.376 38.358C144.961 38.6364 145.387 38.9426 145.647 39.2767L145.638 39.286ZM145.75 39.2933C146.02 39.6588 146.158 40.0927 146.158 40.5759C146.158 40.9121 146.091 41.2391 145.956 41.5468C145.764 41.9789 145.475 42.3181 145.087 42.5504C144.702 42.7817 144.241 42.9057 143.726 42.9057C143.251 42.9057 142.785 42.8107 142.347 42.6204C142.117 42.5189 141.978 42.4634 141.932 42.4451L141.925 42.4424C141.89 42.4248 141.855 42.4232 141.787 42.4232C141.703 42.4232 141.636 42.4429 141.582 42.478C141.528 42.5133 141.482 42.5673 141.445 42.6442L141.285 42.6074L141.304 40.4916L141.469 40.4694C141.625 41.0213 141.808 41.4583 142.006 41.7739C142.412 42.3959 142.917 42.7002 143.513 42.7002C143.938 42.7002 144.286 42.5594 144.557 42.2804C144.828 42.0005 144.969 41.6417 144.969 41.2069C144.969 41.0204 144.943 40.8342 144.88 40.6385C144.817 40.4407 144.738 40.2736 144.633 40.1346C144.529 39.9948 144.378 39.8525 144.18 39.7175L144.179 39.7164C143.989 39.5811 143.697 39.4165 143.298 39.2125C142.954 39.0359 142.682 38.8858 142.493 38.7627L142.491 38.7616C142.312 38.639 142.158 38.5143 142.041 38.3873C141.719 38.0364 141.564 37.607 141.564 37.1145C141.564 36.8069 141.621 36.5073 141.747 36.2263C141.872 35.948 142.045 35.697 142.268 35.4935C142.655 35.1357 143.13 34.9517 143.661 34.9517C143.829 34.9517 143.995 34.9608 144.145 35.0002C144.292 35.0302 144.502 35.1069 144.741 35.2081C144.827 35.2399 144.903 35.2675 144.967 35.2906C145.03 35.3137 145.082 35.3323 145.119 35.3462C145.194 35.3712 145.249 35.3785 145.295 35.3785C145.336 35.3785 145.377 35.3685 145.416 35.3397C145.455 35.3106 145.497 35.2571 145.53 35.1577L145.694 35.1828L145.732 37.2058L145.567 37.2311C145.474 36.9176 145.392 36.6693 145.327 36.4951C145.254 36.3114 145.173 36.1323 145.075 35.9818L145.075 35.9806C144.894 35.6917 144.689 35.4794 144.48 35.3486L144.479 35.3481C144.261 35.2088 144.018 35.1387 143.736 35.1387C143.33 35.1387 143.002 35.2789 142.77 35.5542L142.768 35.557C142.664 35.6689 142.587 35.7976 142.535 35.9534L142.534 35.9573C142.473 36.1141 142.447 36.2707 142.447 36.4186C142.447 37.0225 142.831 37.519 143.633 37.9015L144.413 38.2821C145.003 38.5633 145.443 38.8764 145.714 39.225L145.759 39.2836L145.75 39.2933Z" fill="white"/>
<path d="M158.936 41.3275C158.852 41.5316 158.731 41.7265 158.602 41.8843C158.407 42.1255 158.147 42.3111 157.841 42.4318C157.534 42.5524 157.154 42.6081 156.709 42.6081C156.263 42.6081 155.929 42.5431 155.66 42.4132C155.391 42.2833 155.187 42.0698 155.057 41.7915C154.982 41.6337 154.927 41.4296 154.899 41.1883C154.871 40.9563 154.862 40.5851 154.862 40.0747V38.7384H155.252C155.53 38.7384 155.762 38.7663 155.948 38.822C156.133 38.8776 156.291 38.9797 156.412 39.1003C156.532 39.2303 156.625 39.388 156.699 39.5643C156.755 39.7128 156.801 39.8984 156.829 40.1118L156.848 37.4857C156.82 37.6898 156.783 37.8476 156.736 37.9682C156.69 38.126 156.606 38.2559 156.495 38.3765C156.374 38.4972 156.226 38.59 156.05 38.6364C155.873 38.6828 155.614 38.7013 155.27 38.7013H154.862V35.24H156.198C156.588 35.24 156.913 35.2678 157.154 35.3235C157.395 35.3792 157.609 35.472 157.794 35.6112C158.008 35.7689 158.184 35.9638 158.295 36.168C158.388 36.3443 158.462 36.5484 158.509 36.7897L158.425 35.2122H152.792C152.913 35.2307 153.006 35.2493 153.099 35.2864C153.238 35.3328 153.368 35.4256 153.47 35.5369C153.591 35.6669 153.674 35.8246 153.72 36.0195C153.758 36.2144 153.785 36.4835 153.785 36.8732V40.947C153.785 41.3275 153.758 41.6151 153.72 41.8007C153.674 41.9956 153.591 42.1626 153.461 42.2833C153.349 42.3946 153.219 42.4874 153.08 42.5338C152.997 42.5617 152.895 42.5895 152.783 42.6081H159.066L159.131 40.6037C159.066 40.8913 159.001 41.1233 158.926 41.3089L158.936 41.3275Z" fill="white"/>
<path fill-rule="evenodd" clip-rule="evenodd" d="M157.542 42.5238C157.648 42.4989 157.748 42.4683 157.841 42.4317C158.147 42.3111 158.407 42.1255 158.602 41.8842C158.732 41.7265 158.852 41.5316 158.936 41.3275L158.927 41.3089C158.964 41.2144 159 41.1078 159.034 40.988C159.067 40.8725 159.099 40.7448 159.131 40.6036L159.066 42.6081H156.709C157.019 42.6081 157.298 42.581 157.542 42.5238ZM156.709 42.5238C157.148 42.5238 157.517 42.4688 157.81 42.3534C158.104 42.2376 158.351 42.0603 158.536 41.8313C158.654 41.6887 158.764 41.5136 158.843 41.3305L158.834 41.3127L158.848 41.2776C158.92 41.0981 158.984 40.8711 159.049 40.5851L159.215 40.6064L159.147 42.6923H152.783L152.77 42.525C152.876 42.5073 152.974 42.4806 153.054 42.4539C153.177 42.413 153.296 42.3292 153.401 42.2237L153.403 42.2215C153.518 42.1156 153.595 41.9658 153.638 41.7827C153.674 41.6042 153.701 41.323 153.701 40.947V36.8732C153.701 36.4886 153.674 36.2255 153.638 36.0371C153.595 35.8561 153.518 35.7123 153.408 35.5942C153.314 35.4911 153.195 35.4073 153.072 35.3663L153.068 35.3647C152.984 35.3313 152.899 35.3137 152.78 35.2954L152.793 35.1279H158.505L158.593 36.7852L158.426 36.8056C158.381 36.5725 158.31 36.3764 158.221 36.2077C158.117 36.0162 157.949 35.8304 157.744 35.6789C157.57 35.5478 157.367 35.459 157.135 35.4056C156.903 35.3519 156.585 35.3242 156.198 35.3242H154.946V38.6171H155.27C155.613 38.6171 155.863 38.5983 156.028 38.5549C156.188 38.5129 156.323 38.4289 156.435 38.3182C156.539 38.205 156.614 38.0864 156.656 37.9445L156.658 37.9379C156.701 37.8256 156.737 37.6749 156.764 37.4743L156.932 37.4863L156.914 40.1124L156.746 40.1227C156.719 39.9155 156.674 39.7368 156.621 39.5955C156.55 39.4267 156.462 39.279 156.351 39.1588C156.24 39.0476 156.094 38.9538 155.924 38.9026C155.748 38.8501 155.525 38.8226 155.252 38.8226H154.946V40.0747C154.946 40.5857 154.956 40.952 154.983 41.1782C155.01 41.4127 155.064 41.6079 155.133 41.7556C155.255 42.0175 155.446 42.2164 155.697 42.3373C155.951 42.46 156.271 42.5238 156.709 42.5238ZM155.961 42.5238C155.852 42.4946 155.752 42.4577 155.66 42.4132C155.391 42.2833 155.187 42.0698 155.057 41.7914C154.983 41.6337 154.927 41.4295 154.899 41.1883C154.871 40.9563 154.862 40.5851 154.862 40.0747V38.7384H155.252C155.258 38.7384 155.264 38.7384 155.27 38.7385C155.437 38.7392 155.586 38.7501 155.719 38.771C155.802 38.7841 155.878 38.801 155.948 38.8219C156.133 38.8776 156.291 38.9797 156.412 39.1003C156.532 39.2303 156.625 39.388 156.699 39.5643C156.717 39.61 156.733 39.6593 156.748 39.7118C156.782 39.8297 156.81 39.9641 156.829 40.1118L156.848 37.4857C156.825 37.653 156.796 37.7891 156.761 37.8992C156.753 37.9235 156.745 37.9464 156.737 37.9682C156.69 38.126 156.607 38.2559 156.495 38.3765C156.375 38.4972 156.226 38.59 156.05 38.6364C155.962 38.6596 155.852 38.6758 155.722 38.6863C155.592 38.6967 155.442 38.7013 155.27 38.7013H154.862V35.24H156.198C156.519 35.24 156.795 35.2588 157.017 35.2964C157.065 35.3045 157.111 35.3136 157.154 35.3235C157.395 35.3792 157.609 35.472 157.794 35.6112C158.008 35.7689 158.184 35.9638 158.296 36.168C158.336 36.2441 158.372 36.3255 158.405 36.4129C158.447 36.5276 158.483 36.6527 158.509 36.7897L158.425 35.2121H152.793C152.913 35.2307 153.006 35.2493 153.099 35.2864C153.108 35.2895 153.118 35.2928 153.127 35.2964C153.255 35.3453 153.375 35.4331 153.47 35.5369C153.591 35.6668 153.674 35.8246 153.721 36.0195C153.758 36.2143 153.786 36.4835 153.786 36.8732V40.947C153.786 41.3275 153.758 41.6151 153.721 41.8007C153.674 41.9956 153.591 42.1626 153.461 42.2833C153.357 42.3871 153.237 42.4749 153.108 42.5238C153.099 42.5274 153.09 42.5307 153.08 42.5338C152.997 42.5617 152.895 42.5895 152.783 42.6081H156.709C156.416 42.6081 156.171 42.58 155.961 42.5238Z" fill="white"/>
<path d="M169.877 39.2768C169.617 38.9428 169.19 38.6365 168.605 38.3581L167.826 37.9777C167.009 37.5879 166.601 37.0683 166.601 36.4187C166.601 36.2609 166.629 36.0939 166.694 35.9269C166.749 35.7598 166.833 35.6206 166.944 35.5C167.195 35.203 167.547 35.0546 167.974 35.0546C168.271 35.0546 168.54 35.1288 168.763 35.2773C168.986 35.4165 169.199 35.6392 169.375 35.9361C169.478 36.0939 169.57 36.2795 169.645 36.4651C169.71 36.6414 169.793 36.8919 169.886 37.2075L169.849 35.1845C169.774 35.4072 169.645 35.4629 169.533 35.4629C169.478 35.4629 169.413 35.4536 169.338 35.4258C169.264 35.3979 169.134 35.3515 168.958 35.2866C168.717 35.1845 168.522 35.1103 168.373 35.0824C168.234 35.0453 168.076 35.036 167.909 35.036C167.399 35.036 166.944 35.2123 166.573 35.5557C166.36 35.7505 166.193 35.9918 166.072 36.2609C165.951 36.53 165.886 36.8177 165.886 37.1147C165.886 37.5879 166.044 37.9962 166.341 38.3303C166.452 38.4509 166.601 38.5716 166.777 38.6922C166.953 38.8128 167.223 38.9613 167.575 39.1376C167.974 39.3418 168.271 39.5088 168.475 39.648C168.679 39.7872 168.837 39.9357 168.939 40.0842C169.051 40.2326 169.134 40.4089 169.199 40.6131C169.264 40.8173 169.292 41.0121 169.292 41.207C169.292 41.6617 169.143 42.0422 168.856 42.3391C168.568 42.6361 168.197 42.7846 167.752 42.7846C167.12 42.7846 166.582 42.4598 166.174 41.8195C165.97 41.4947 165.784 41.0493 165.636 40.4925L165.617 42.6082C165.701 42.4319 165.84 42.3391 166.035 42.3391C166.1 42.3391 166.155 42.3391 166.202 42.367C166.248 42.3855 166.387 42.4412 166.619 42.5433C167.046 42.7289 167.501 42.8217 167.956 42.8217C168.457 42.8217 168.902 42.701 169.273 42.4783C169.635 42.2556 169.923 41.9308 170.109 41.5132C170.238 41.2163 170.313 40.9008 170.313 40.576C170.313 40.0842 170.164 39.648 169.877 39.2861V39.2768Z" fill="white"/>
<path fill-rule="evenodd" clip-rule="evenodd" d="M169.961 39.2569C170.249 39.6299 170.397 40.0766 170.397 40.5759C170.397 40.9136 170.32 41.2406 170.186 41.5468C169.994 41.9797 169.694 42.3181 169.318 42.5499L169.317 42.5504C168.931 42.7817 168.471 42.9057 167.956 42.9057C167.49 42.9057 167.024 42.8106 166.586 42.6204C166.355 42.5189 166.217 42.4634 166.171 42.4451L166.164 42.4425L166.159 42.439C166.136 42.4255 166.106 42.4232 166.035 42.4232C165.951 42.4232 165.884 42.4429 165.83 42.478C165.776 42.5133 165.73 42.5673 165.694 42.6442L165.533 42.6074L165.552 40.4916L165.717 40.4706C165.864 41.0219 166.047 41.4587 166.245 41.7743C166.641 42.3953 167.155 42.7002 167.752 42.7002C168.177 42.7002 168.525 42.5594 168.796 42.2804C169.067 42.0005 169.208 41.6417 169.208 41.2069C169.208 41.0204 169.181 40.8342 169.119 40.6385C169.056 40.4407 168.976 40.2736 168.872 40.1346L168.87 40.1318C168.776 39.9944 168.627 39.8528 168.428 39.7175C168.229 39.5814 167.936 39.4164 167.537 39.2127C167.184 39.0361 166.911 38.8856 166.73 38.7616C166.551 38.639 166.397 38.5143 166.279 38.3873L166.278 38.3861C165.967 38.0364 165.802 37.6081 165.802 37.1145C165.802 36.8051 165.87 36.5057 165.995 36.2263C166.12 35.948 166.293 35.697 166.516 35.4935C166.903 35.1357 167.378 34.9517 167.91 34.9517C168.077 34.9517 168.243 34.9608 168.392 35.0001C168.55 35.0302 168.751 35.1074 168.989 35.2081C169.076 35.2399 169.151 35.2675 169.215 35.2906C169.279 35.314 169.331 35.3328 169.368 35.3468C169.433 35.371 169.488 35.3785 169.533 35.3785C169.575 35.3785 169.616 35.3685 169.655 35.3397C169.693 35.3106 169.736 35.2571 169.769 35.1577L169.933 35.1828L169.97 37.2058L169.805 37.2311C169.713 36.9176 169.63 36.6693 169.566 36.4951C169.494 36.314 169.403 36.1339 169.305 35.9818L169.303 35.979C169.132 35.6914 168.928 35.4794 168.719 35.3486L168.716 35.3472C168.51 35.2093 168.257 35.1387 167.974 35.1387C167.569 35.1387 167.241 35.2789 167.009 35.5542L167.006 35.557C166.903 35.6689 166.826 35.7976 166.774 35.9534L166.772 35.9573C166.711 36.1141 166.685 36.2707 166.685 36.4186C166.685 37.0231 167.062 37.5194 167.862 37.9015L168.642 38.2821C169.232 38.5633 169.672 38.8764 169.943 39.225L169.961 39.2478V39.2569ZM168.605 38.358C169.19 38.6364 169.617 38.9426 169.877 39.2767V39.286C170.164 39.6479 170.313 40.084 170.313 40.5759C170.313 40.9006 170.239 41.2161 170.109 41.5131C169.923 41.9307 169.636 42.2555 169.274 42.4782C168.968 42.6614 168.613 42.7756 168.217 42.8103C168.132 42.8177 168.045 42.8215 167.956 42.8215C167.888 42.8215 167.82 42.8195 167.752 42.8153C167.462 42.7976 167.175 42.7422 166.896 42.6491C166.803 42.618 166.711 42.5827 166.62 42.5431C166.388 42.4411 166.248 42.3854 166.202 42.3668C166.156 42.339 166.1 42.339 166.035 42.339C165.896 42.339 165.785 42.3863 165.703 42.4775C165.67 42.514 165.641 42.5577 165.617 42.6081L165.636 40.4923C165.662 40.5903 165.689 40.6849 165.718 40.7759C165.85 41.2021 166.006 41.5517 166.174 41.8193C166.391 42.1598 166.645 42.4111 166.93 42.5718C167.181 42.7132 167.456 42.7844 167.752 42.7844C167.822 42.7844 167.89 42.7808 167.956 42.7735C168.041 42.764 168.123 42.7486 168.202 42.727C168.453 42.6587 168.672 42.5293 168.856 42.339C169.144 42.042 169.292 41.6616 169.292 41.2069C169.292 41.012 169.264 40.8171 169.199 40.613C169.134 40.4088 169.051 40.2325 168.94 40.084C168.837 39.9356 168.68 39.7871 168.476 39.6479C168.271 39.5087 167.974 39.3416 167.575 39.1375C167.223 38.9612 166.954 38.8127 166.777 38.6921C166.601 38.5714 166.453 38.4508 166.341 38.3302C166.044 37.9961 165.887 37.5878 165.887 37.1145C165.887 36.8176 165.951 36.5299 166.072 36.2608C166.193 35.9917 166.36 35.7504 166.573 35.5555C166.772 35.3717 166.995 35.2358 167.237 35.1491C167.447 35.0739 167.672 35.0359 167.91 35.0359C167.931 35.0359 167.953 35.036 167.974 35.0364C168.117 35.0388 168.252 35.05 168.373 35.0823C168.488 35.1037 168.629 35.1526 168.799 35.2205C168.799 35.2207 168.8 35.221 168.8 35.2212C168.826 35.2316 168.853 35.2424 168.88 35.2536C168.905 35.2642 168.931 35.2751 168.958 35.2864C169.046 35.3189 169.123 35.3468 169.187 35.37C169.25 35.3932 169.301 35.4117 169.339 35.4256C169.413 35.4535 169.478 35.4627 169.533 35.4627C169.611 35.4627 169.697 35.4358 169.768 35.3446C169.799 35.3046 169.826 35.2522 169.849 35.1844L169.886 37.2073C169.855 37.1018 169.825 37.0036 169.796 36.9129C169.739 36.7325 169.688 36.5823 169.645 36.4649C169.571 36.2793 169.478 36.0938 169.376 35.936C169.219 35.6728 169.034 35.4679 168.839 35.3278C168.814 35.3098 168.789 35.2929 168.763 35.2771C168.644 35.1979 168.512 35.1398 168.37 35.1028C168.369 35.1027 168.369 35.1026 168.368 35.1024C168.244 35.0704 168.112 35.0544 167.974 35.0544C167.953 35.0544 167.931 35.0548 167.91 35.0556C167.671 35.0643 167.457 35.1211 167.272 35.226C167.149 35.2959 167.039 35.3872 166.944 35.4999C166.833 35.6205 166.75 35.7597 166.694 35.9267C166.629 36.0938 166.601 36.2608 166.601 36.4186C166.601 37.0681 167.009 37.5878 167.826 37.9775L168.605 38.358Z" fill="white"/>
<path d="M3.96062 32.4481C1.97636 29.5101 1.05607 27.2584 0.837891 26.6749C11.3382 6.39534 28.9822 0.900489 39.4177 0.109863C35.5914 1.13136 13.8033 5.64425 3.96062 32.4481Z" fill="white"/>
<path d="M4.77539 33.6245C5.89803 35.1931 7.25458 36.9072 8.85157 38.6371C16.3336 6.593 42.0966 1.07759 45.9009 0.109863C45.9009 0.109863 14.9105 1.53299 4.77697 33.6245H4.77539Z" fill="white"/>
<path d="M30.2723 7.9701C22.6559 13.076 12.8528 23.196 9.79492 39.6315C11.2416 41.1163 13.1027 42.8336 14.9083 44.2267C15.3827 36.9529 19.6517 9.43906 50.8792 0.505011C50.8792 0.505011 42.262 0.109698 30.2723 7.9701Z" fill="white"/>
<path d="M16.416 39.6333C16.7117 37.8133 17.1117 36.0944 17.5354 34.5607C19.6795 37.8465 28.8722 49.1872 46.0576 53.5563C37.0151 52.8874 28.8596 49.0118 24.2458 45.9979C20.1364 43.3144 17.4105 40.6627 16.416 39.6333Z" fill="white"/>
<path d="M23.1465 46.5047C26.8099 48.9602 32.4657 51.9707 39.7753 53.498C26.8827 52.4719 18.8584 46.5759 15.8574 44.7006C15.8811 43.3456 16.074 42.0775 16.248 40.7731C17.1113 41.6933 19.4592 44.0349 23.1465 46.5047Z" fill="white"/>
<path d="M17.9141 33.4743C18.9307 30.0619 20.0486 27.8608 20.0486 27.8608C29.6936 46.5196 45.0307 51.2761 51.1971 53.1483C51.1971 53.1483 32.7768 53.0819 17.9141 33.4743Z" fill="white"/>
<path d="M53.963 39.325H54.4374L51.2751 45.3338L50.9588 44.0688H50.9573C50.9145 44.0672 50.8719 44.0672 50.8308 44.0656C40.3573 43.9296 31.6689 36.2669 31.6689 26.8331C31.6689 17.3994 40.4253 9.67492 50.9573 9.59902H50.9588L51.2751 8.64868L54.4374 14.4994H53.963C52.2569 12.6129 51.117 11.8998 50.3137 11.6373C50.0876 11.5629 49.8473 11.5345 49.6101 11.5534C40.7099 12.2239 33.7244 18.7735 33.7244 26.7556C33.7244 34.7378 41.0325 41.5862 50.222 41.9957C50.5398 42.01 50.8545 41.9388 51.136 41.7934C51.9044 41.3981 52.7518 40.6659 53.963 39.3282V39.325Z" fill="white"/>
</svg>
