<svg width="130" height="221" viewBox="0 0 130 221" fill="none" xmlns="http://www.w3.org/2000/svg">
<path d="M0 0V186.097L64.8094 221L129.619 186.097V0H0Z" fill="#002171"/>
<path d="M121.017 197.489V200.261H119.858V197.489H118.603V196.372H122.286V197.489H121.017ZM126.271 200.261V198.659L125.395 200.219H124.875L123.998 198.659V200.261H122.84V196.372H123.825L125.136 198.723L126.446 196.372H127.431V200.261H126.271Z" fill="#002171"/>
<path d="M129.619 0H0V129.619H129.619V0Z" fill="#FF1628"/>
<path d="M32.2491 20.0326V21.7873C32.2491 25.0375 31.209 27.6704 29.1286 29.6843C27.0482 31.6999 24.3505 32.7077 21.0679 32.7077C17.5569 32.7077 14.6323 31.5703 12.3251 29.2955C10.0179 26.9882 8.88051 24.1933 8.88051 20.9107C8.88051 17.6282 10.0179 14.8008 12.2927 12.4936C14.5999 10.1864 17.4272 9.04901 20.8071 9.04901C25.065 9.04901 28.7705 11.1294 30.7197 14.3472L26.8846 16.5572C25.812 14.7052 23.4723 13.4042 20.7746 13.4042C18.5971 13.4042 16.8099 14.1187 15.4117 15.5494C14.015 16.9477 13.3313 18.7348 13.3313 20.9124C13.3313 23.09 14.0458 24.8447 15.4441 26.2429C16.8747 27.6396 18.7591 28.3233 21.0987 28.3233C24.5757 28.3233 26.9153 26.6982 27.7287 24.0005H20.8395V20.0358H32.2475L32.2491 20.0326Z" fill="white"/>
<path d="M38.965 18.798C39.7055 16.7176 41.559 15.6774 43.6588 15.6774V20.3582C42.455 20.1962 41.3435 20.4555 40.386 21.1392C39.4284 21.8213 38.965 22.9263 38.965 24.4866V32.254H34.9825V16.0031H38.965V18.798Z" fill="white"/>
<path d="M50.3861 25.8508C50.9386 27.8988 52.4664 28.9066 54.9681 28.9066C56.5608 28.9066 57.7954 28.3541 58.6088 27.2815L61.9886 29.2307C60.3959 31.5379 58.0238 32.7077 54.9033 32.7077C52.2056 32.7077 50.0604 31.8943 48.4353 30.2708C46.8102 28.6457 45.9968 26.5978 45.9968 24.1285C45.9968 21.6593 46.8102 19.6437 48.4029 18.0186C49.9956 16.3611 52.076 15.5478 54.5776 15.5478C56.9496 15.5478 58.9328 16.3611 60.4607 18.0186C62.021 19.6761 62.8003 21.6917 62.8003 24.1285C62.8003 24.681 62.7355 25.2335 62.6383 25.8508H50.3861ZM58.6088 22.6007C58.1211 20.3907 56.496 19.3181 54.5792 19.3181C52.3368 19.3181 50.8089 20.5203 50.3212 22.6007H58.6088Z" fill="white"/>
<path d="M77.9155 16.0031H82.1086V32.254H77.9155V30.3357C76.6484 31.9283 74.8937 32.7077 72.6173 32.7077C70.3409 32.7077 68.5878 31.8943 67.0275 30.2368C65.4996 28.5793 64.7203 26.5313 64.7203 24.1269C64.7203 21.7225 65.5012 19.7069 67.0275 18.0494C68.5878 16.3919 70.4397 15.5462 72.6173 15.5462C74.7949 15.5462 76.6468 16.3255 77.9155 17.9182V16.0014V16.0031ZM73.3983 28.7106C74.6993 28.7106 75.7703 28.2877 76.616 27.4435C77.4926 26.5654 77.9155 25.4604 77.9155 24.1285C77.9155 22.7967 77.4926 21.6917 76.616 20.8459C75.7703 19.9678 74.6993 19.5465 73.3983 19.5465C72.0972 19.5465 71.0262 19.9694 70.1805 20.8459C69.3347 21.6917 68.9134 22.7967 68.9134 24.1285C68.9134 25.4604 69.3363 26.5654 70.1805 27.4435C71.0246 28.2877 72.0972 28.7106 73.3983 28.7106Z" fill="white"/>
<path d="M95.8579 20.0326H92.1849V26.7922C92.1849 28.5469 93.4519 28.5793 95.8579 28.4497V32.2524C90.1045 32.9021 87.9917 31.2446 87.9917 26.7922V20.0326H85.1644V16.0031H87.9917V12.7205L92.1849 11.4534V16.0031H95.8579V20.0326Z" fill="white"/>
<path d="M20.355 38.0771C22.5326 38.0771 24.3845 38.8241 25.88 40.2871C27.3755 41.7502 28.1224 43.5697 28.1224 45.7149C28.1224 47.8601 27.3755 49.6796 25.88 51.1427C24.3845 52.6058 22.5326 53.3527 20.355 53.3527H16.3579V60.8285H11.8731V38.0771H20.3566H20.355ZM20.355 49.1595C22.2717 49.1595 23.67 47.6641 23.67 45.7149C23.67 43.7658 22.2734 42.2703 20.355 42.2703H16.3579V49.1595H20.355Z" fill="white"/>
<path d="M35.3713 38.2878H31.1782V60.8285H35.3713V38.2878Z" fill="white"/>
<path d="M52.2072 44.5775H56.4004V60.8268H52.2072V58.9085C50.9402 60.5012 49.1855 61.2805 46.909 61.2805C44.6326 61.2805 42.8795 60.4672 41.3192 58.8113C39.7913 57.1538 39.012 55.1058 39.012 52.7014C39.012 50.2969 39.7913 48.2814 41.3192 46.6239C42.8795 44.9664 44.7314 44.1206 46.909 44.1206C49.0866 44.1206 50.9386 44.8999 52.2072 46.4926V44.5759V44.5775ZM47.69 57.285C48.991 57.285 50.062 56.8621 50.9078 56.018C51.7843 55.1398 52.2072 54.0348 52.2072 52.703C52.2072 51.3712 51.7843 50.2662 50.9078 49.4204C50.062 48.5422 48.991 48.121 47.69 48.121C46.3889 48.121 45.318 48.5438 44.4722 49.4204C43.6264 50.2662 43.2052 51.3712 43.2052 52.703C43.2052 54.0348 43.6281 55.1398 44.4722 56.018C45.3163 56.8621 46.3906 57.285 47.69 57.285Z" fill="white"/>
<path d="M62.4471 58.8129C60.822 57.1554 60.0086 55.1398 60.0086 52.703C60.0086 50.2662 60.822 48.2506 62.4471 46.5931C64.1046 44.9356 66.1526 44.1238 68.5894 44.1238C71.7424 44.1238 74.5373 45.7489 75.8691 48.317L72.2625 50.4298C71.6128 49.098 70.2145 48.2522 68.557 48.2522C66.0554 48.2522 64.2018 50.1041 64.2018 52.7046C64.2018 53.9716 64.6247 55.0442 65.4364 55.89C66.2482 56.7017 67.2883 57.1246 68.557 57.1246C70.2469 57.1246 71.6452 56.3112 72.2949 54.9794L75.9355 57.0598C74.5065 59.6279 71.7424 61.2854 68.591 61.2854C66.1542 61.2854 64.1062 60.472 62.4487 58.8145" fill="white"/>
<path d="M82.6303 54.4253C83.1828 56.4733 84.7107 57.4811 87.2124 57.4811C88.8051 57.4811 90.0397 56.9286 90.853 55.856L94.2328 57.8051C92.6402 60.1123 90.2681 61.2821 87.1476 61.2821C84.4499 61.2821 82.3047 60.4688 80.6796 58.8453C79.0545 57.2202 78.2411 55.1722 78.2411 52.703C78.2411 50.2338 79.0545 48.2182 80.6472 46.5931C82.2399 44.9356 84.3203 44.1222 86.8219 44.1222C89.1939 44.1222 91.1771 44.934 92.705 46.5931C94.2653 48.2506 95.0446 50.2662 95.0446 52.703C95.0446 53.2555 94.9798 53.808 94.8826 54.4253H82.6303ZM90.853 51.1751C90.3653 48.9651 88.7403 47.8925 86.8235 47.8925C84.5811 47.8925 83.0532 49.0947 82.5655 51.1751H90.853Z" fill="white"/>
<path d="M25.6192 67.7874V71.8639H19.4768V89.4013H14.992V71.8639H8.88051V67.7874H25.6192Z" fill="white"/>
<path d="M32.6056 89.8566C30.2012 89.8566 28.1532 89.0432 26.4957 87.3857C24.8382 85.7282 24.0248 83.6803 24.0248 81.2758C24.0248 78.8714 24.8382 76.8558 26.4957 75.1983C28.1532 73.5408 30.2012 72.6951 32.6056 72.6951C35.01 72.6951 37.058 73.5392 38.7155 75.1983C40.373 76.8558 41.2188 78.8714 41.2188 81.2758C41.2188 83.6803 40.3746 85.7282 38.7155 87.3857C37.058 89.0432 35.01 89.8566 32.6056 89.8566ZM32.6056 85.7606C33.8726 85.7606 34.9128 85.3378 35.7586 84.4936C36.6027 83.6479 37.0256 82.5753 37.0256 81.2758C37.0256 79.9764 36.6027 78.9038 35.7586 78.058C34.9128 77.2139 33.8742 76.791 32.6056 76.791C31.337 76.791 30.2984 77.2139 29.4526 78.058C28.6393 78.9038 28.218 79.9748 28.218 81.2758C28.218 82.5769 28.6409 83.6479 29.4526 84.4936C30.2968 85.3378 31.337 85.7606 32.6056 85.7606Z" fill="white"/>
<path d="M15.867 119.306L9.4962 96.5546H14.2078L18.563 113.423L23.3087 96.5546H27.1438L31.9219 113.423L36.2771 96.5546H40.9887L34.6196 119.306H29.5158L25.2254 104.29L20.9691 119.306H15.867Z" fill="white"/>
<path d="M49.1822 119.761C46.7778 119.761 44.7298 118.948 43.0723 117.29C41.4148 115.633 40.6015 113.585 40.6015 111.18C40.6015 108.776 41.4148 106.76 43.0723 105.103C44.7298 103.445 46.7778 102.6 49.1822 102.6C51.5867 102.6 53.6346 103.444 55.2921 105.103C56.9496 106.76 57.7954 108.776 57.7954 111.18C57.7954 113.585 56.9513 115.633 55.2921 117.29C53.6346 118.948 51.5867 119.761 49.1822 119.761ZM49.1822 115.665C50.4492 115.665 51.4894 115.242 52.3352 114.398C53.1793 113.553 53.6022 112.482 53.6022 111.18C53.6022 109.879 53.1793 108.808 52.3352 107.963C51.4894 107.119 50.4509 106.696 49.1822 106.696C47.9136 106.696 46.875 107.119 46.0292 107.963C45.2159 108.808 44.7946 109.879 44.7946 111.18C44.7946 112.482 45.2175 113.553 46.0292 114.398C46.8734 115.242 47.9136 115.665 49.1822 115.665Z" fill="white"/>
<path d="M64.9455 105.85C65.7248 103.77 67.6756 102.729 69.8856 102.729V107.41C68.6169 107.248 67.4471 107.507 66.4393 108.191C65.4316 108.873 64.9439 109.978 64.9439 111.539V119.306H60.7507V103.055H64.9439V105.85H64.9455Z" fill="white"/>
<path d="M87.9577 119.306H83.0824L77.1669 111.927V119.306H72.9754V96.5546H77.1669V110.205L82.7567 103.055H87.7616L81.2305 111.083L87.9577 119.306Z" fill="white"/>
<path d="M89.4872 116.377C89.4872 114.34 91.109 112.702 93.1619 112.702C95.2147 112.702 96.8366 114.324 96.8366 116.36C96.8366 118.397 95.2147 120.019 93.1619 120.019C91.109 120.019 89.4872 118.446 89.4872 116.377ZM96.1739 116.36C96.1739 114.555 94.915 113.298 93.1619 113.298C91.4088 113.298 90.1482 114.573 90.1482 116.377C90.1482 118.18 91.472 119.423 93.1619 119.423C94.8518 119.423 96.1739 118.165 96.1739 116.36ZM91.9029 114.507H93.1781C94.0222 114.507 94.5682 114.855 94.5682 115.599V115.615C94.5682 116.161 94.2539 116.459 93.8229 116.592L94.7837 118.131H93.9558L93.0776 116.725H92.6969V118.131H91.9029V114.507ZM93.1619 116.179C93.575 116.179 93.7905 115.997 93.7905 115.649V115.633C93.7905 115.252 93.5588 115.119 93.1619 115.119H92.6985V116.179H93.1619Z" fill="white"/>
<path d="M14.1706 150.099C14.1706 144.842 18.0672 140.766 23.5031 140.766C26.7857 140.766 29.6827 142.433 31.2203 144.996L28.1694 146.766C27.2977 145.176 25.5543 144.201 23.5031 144.201C19.9905 144.201 17.6832 146.636 17.6832 150.099C17.6832 153.561 19.9905 155.97 23.5031 155.97C25.5543 155.97 27.3236 154.996 28.1694 153.431L31.2203 155.201C29.707 157.765 26.81 159.431 23.5031 159.431C18.0672 159.431 14.1706 155.329 14.1706 150.099Z" fill="white"/>
<path d="M39.0153 156.43C40.2969 156.43 41.3225 155.892 41.8863 155.149L44.5532 156.688C43.3478 158.431 41.4245 159.431 38.9634 159.431C34.6552 159.431 31.9381 156.482 31.9381 152.662C31.9381 148.841 34.6811 145.892 38.7074 145.892C42.502 145.892 45.1948 148.893 45.1948 152.662C45.1948 153.149 45.143 153.585 45.0668 154.021H35.4005C35.8623 155.714 37.2719 156.432 39.0153 156.432V156.43ZM41.8863 151.456C41.4764 149.611 40.0911 148.867 38.7074 148.867C36.9381 148.867 35.7327 149.817 35.3487 151.456H41.8863Z" fill="white"/>
<path d="M54.0672 145.994V149.687C52.3498 149.481 50.1706 150.251 50.1706 152.944V159.071H46.8637V146.25H50.1706V148.456C50.8365 146.712 52.4519 145.994 54.0672 145.994Z" fill="white"/>
<path d="M61.1687 149.431V154.765C61.1687 156.15 62.1684 156.174 64.0657 156.072V159.073C59.4254 159.587 57.8602 158.227 57.8602 154.765V149.431H55.6291V146.252H57.8602V143.663L61.1671 142.663V146.254H64.0641V149.433H61.1671L61.1687 149.431Z" fill="white"/>
<path d="M66.1428 142.688C66.1428 141.586 67.0664 140.636 68.1681 140.636C69.2699 140.636 70.2194 141.586 70.2194 142.688C70.2194 143.789 69.2958 144.713 68.1681 144.713C67.0405 144.713 66.1428 143.789 66.1428 142.688ZM66.5268 146.252H69.8337V159.073H66.5268V146.252Z" fill="white"/>
<path d="M77.0908 146.124V146.252H79.8095V149.431H77.0908V159.071H73.7839V149.431H71.9384V146.252H73.7839V146.124C73.7839 142.585 75.733 140.508 79.8095 140.766V143.945C78.0921 143.817 77.0908 144.381 77.0908 146.124Z" fill="white"/>
<path d="M81.501 142.688C81.501 141.586 82.4246 140.636 83.5263 140.636C84.6281 140.636 85.5776 141.586 85.5776 142.688C85.5776 143.789 84.654 144.713 83.5263 144.713C82.3987 144.713 81.501 143.789 81.501 142.688ZM81.885 146.252H85.1919V159.073H81.885V146.252Z" fill="white"/>
<path d="M94.3203 156.43C95.602 156.43 96.6276 155.892 97.1914 155.149L99.8583 156.688C98.6529 158.431 96.7296 159.431 94.2685 159.431C89.9603 159.431 87.2432 156.482 87.2432 152.662C87.2432 148.841 89.9862 145.892 94.0125 145.892C97.8071 145.892 100.5 148.893 100.5 152.662C100.5 153.149 100.448 153.585 100.372 154.021H90.7056C91.1674 155.714 92.577 156.432 94.3203 156.432V156.43ZM97.1914 151.456C96.7815 149.611 95.3962 148.867 94.0125 148.867C92.2432 148.867 91.0378 149.817 90.6538 151.456H97.1914Z" fill="white"/>
<path d="M115.448 159.073H112.141V157.56C111.218 158.739 109.86 159.431 107.987 159.431C104.551 159.431 101.731 156.482 101.731 152.662C101.731 148.841 104.552 145.892 107.987 145.892C109.858 145.892 111.218 146.584 112.141 147.764V141.122H115.448V159.073ZM112.141 152.662C112.141 150.508 110.628 149.047 108.603 149.047C106.577 149.047 105.038 150.508 105.038 152.662C105.038 154.815 106.551 156.276 108.603 156.276C110.654 156.276 112.141 154.815 112.141 152.662Z" fill="white"/>
<path d="M15.5607 171.241H17.1944V176.381C17.1944 177.053 17.1354 177.569 17.0172 177.931C16.8585 178.404 16.5705 178.784 16.1533 179.072C15.7361 179.356 15.186 179.498 14.503 179.498C13.7018 179.498 13.0853 179.275 12.6533 178.828C12.2214 178.378 12.0036 177.719 11.9999 176.851L13.5449 176.674C13.5634 177.139 13.6317 177.468 13.7498 177.66C13.9271 177.951 14.1966 178.097 14.5584 178.097C14.9239 178.097 15.1823 177.994 15.3337 177.787C15.4851 177.577 15.5607 177.143 15.5607 176.486V171.241Z" fill="white"/>
<path d="M26.2655 179.36H24.4823L23.7735 177.516H20.5282L19.8582 179.36H18.1193L21.2814 171.241H23.0148L26.2655 179.36ZM23.2474 176.148L22.1287 173.135L21.0322 176.148H23.2474Z" fill="white"/>
<path d="M27.1571 179.36V171.241H28.752L32.0748 176.663V171.241H33.5977V179.36H31.953L28.6801 174.066V179.36H27.1571Z" fill="white"/>
<path d="M43.4054 177.915V179.36H37.9505C38.0096 178.814 38.1868 178.297 38.4822 177.809C38.7775 177.318 39.3608 176.669 40.2321 175.86C40.9336 175.207 41.3637 174.764 41.5225 174.531C41.7366 174.21 41.8437 173.892 41.8437 173.578C41.8437 173.231 41.7495 172.966 41.5612 172.781C41.3766 172.593 41.12 172.498 40.7915 172.498C40.4666 172.498 40.2081 172.596 40.0162 172.792C39.8242 172.988 39.7134 173.313 39.6839 173.767L38.1333 173.612C38.2256 172.755 38.5154 172.14 39.0027 171.767C39.4901 171.395 40.0992 171.208 40.8302 171.208C41.6314 171.208 42.2609 171.424 42.7187 171.856C43.1765 172.288 43.4054 172.825 43.4054 173.468C43.4054 173.833 43.3389 174.182 43.206 174.514C43.0768 174.843 42.87 175.188 42.5858 175.55C42.3975 175.79 42.0578 176.135 41.5668 176.585C41.0757 177.036 40.7638 177.335 40.6309 177.483C40.5016 177.63 40.3964 177.774 40.3152 177.915H43.4054Z" fill="white"/>
<path d="M47.0936 171.208C47.88 171.208 48.4947 171.489 48.9377 172.05C49.4657 172.714 49.7297 173.817 49.7297 175.356C49.7297 176.892 49.4638 177.996 48.9322 178.668C48.4929 179.222 47.88 179.498 47.0936 179.498C46.3035 179.498 45.6667 179.196 45.183 178.59C44.6994 177.981 44.4576 176.897 44.4576 175.339C44.4576 173.811 44.7234 172.711 45.255 172.039C45.6944 171.485 46.3072 171.208 47.0936 171.208ZM47.0936 172.498C46.9053 172.498 46.7373 172.559 46.5897 172.681C46.442 172.799 46.3275 173.014 46.2463 173.324C46.1392 173.726 46.0857 174.404 46.0857 175.356C46.0857 176.309 46.1337 176.964 46.2297 177.322C46.3257 177.676 46.4457 177.913 46.5897 178.031C46.7373 178.149 46.9053 178.208 47.0936 178.208C47.2819 178.208 47.4499 178.149 47.5976 178.031C47.7452 177.909 47.8597 177.693 47.9409 177.383C48.048 176.984 48.1015 176.309 48.1015 175.356C48.1015 174.404 48.0535 173.75 47.9575 173.396C47.8615 173.038 47.7397 172.799 47.592 172.681C47.448 172.559 47.2819 172.498 47.0936 172.498Z" fill="white"/>
<path d="M56.0318 177.915V179.36H50.577C50.636 178.814 50.8132 178.297 51.1086 177.809C51.4039 177.318 51.9873 176.669 52.8586 175.86C53.56 175.207 53.9902 174.764 54.1489 174.531C54.363 174.21 54.4701 173.892 54.4701 173.578C54.4701 173.231 54.376 172.966 54.1877 172.781C54.0031 172.593 53.7465 172.498 53.4179 172.498C53.093 172.498 52.8346 172.596 52.6426 172.792C52.4506 172.988 52.3399 173.313 52.3103 173.767L50.7597 173.612C50.852 172.755 51.1418 172.14 51.6292 171.767C52.1165 171.395 52.7257 171.208 53.4567 171.208C54.2578 171.208 54.8873 171.424 55.3451 171.856C55.8029 172.288 56.0318 172.825 56.0318 173.468C56.0318 173.833 55.9653 174.182 55.8324 174.514C55.7032 174.843 55.4965 175.188 55.2122 175.55C55.0239 175.79 54.6842 176.135 54.1932 176.585C53.7022 177.036 53.3902 177.335 53.2573 177.483C53.1281 177.63 53.0229 177.774 52.9416 177.915H56.0318Z" fill="white"/>
<path d="M57.1117 177.272L58.6623 177.112C58.7066 177.462 58.8377 177.741 59.0555 177.948C59.2733 178.151 59.5244 178.252 59.8087 178.252C60.1335 178.252 60.4086 178.121 60.6338 177.859C60.859 177.593 60.9716 177.195 60.9716 176.663C60.9716 176.165 60.859 175.792 60.6338 175.544C60.4123 175.293 60.1225 175.168 59.7644 175.168C59.3176 175.168 58.917 175.365 58.5626 175.76L57.3 175.578L58.0974 171.352H62.2121V172.809H59.277L59.0333 174.188C59.3804 174.014 59.7348 173.927 60.0966 173.927C60.787 173.927 61.3722 174.178 61.8521 174.68C62.3321 175.183 62.5721 175.834 62.5721 176.635C62.5721 177.304 62.3782 177.9 61.9906 178.424C61.4626 179.14 60.7298 179.498 59.792 179.498C59.0426 179.498 58.4316 179.297 57.959 178.895C57.4864 178.492 57.204 177.951 57.1117 177.272Z" fill="white"/>
<path d="M63.5578 177.195V175.638H66.6147V177.195H63.5578Z" fill="white"/>
<path d="M70.4525 171.241H72.0862V176.381C72.0862 177.053 72.0271 177.569 71.909 177.931C71.7502 178.404 71.4623 178.784 71.0451 179.072C70.6279 179.356 70.0778 179.498 69.3948 179.498C68.5936 179.498 67.9771 179.275 67.5451 178.828C67.1132 178.378 66.8953 177.719 66.8916 176.851L68.4367 176.674C68.4552 177.139 68.5235 177.468 68.6416 177.66C68.8188 177.951 69.0883 178.097 69.4502 178.097C69.8157 178.097 70.0741 177.994 70.2255 177.787C70.3768 177.577 70.4525 177.143 70.4525 176.486V171.241Z" fill="white"/>
<path d="M81.1573 179.36H79.3741L78.6652 177.516H75.42L74.7499 179.36H73.011L76.1732 171.241H77.9065L81.1573 179.36ZM78.1391 176.148L77.0205 173.135L75.924 176.148H78.1391Z" fill="white"/>
<path d="M82.0489 179.36V171.241H83.6438L86.9666 176.663V171.241H88.4895V179.36H86.8447L83.5718 174.066V179.36H82.0489Z" fill="white"/>
<path d="M98.2971 177.915V179.36H92.8423C92.9014 178.814 93.0786 178.297 93.3739 177.809C93.6693 177.318 94.2526 176.669 95.1239 175.86C95.8254 175.207 96.2555 174.764 96.4142 174.531C96.6284 174.21 96.7355 173.892 96.7355 173.578C96.7355 173.231 96.6413 172.966 96.453 172.781C96.2684 172.593 96.0118 172.498 95.6832 172.498C95.3584 172.498 95.0999 172.596 94.9079 172.792C94.716 172.988 94.6052 173.313 94.5757 173.767L93.025 173.612C93.1173 172.755 93.4072 172.14 93.8945 171.767C94.3818 171.395 94.991 171.208 95.722 171.208C96.5232 171.208 97.1526 171.424 97.6104 171.856C98.0682 172.288 98.2971 172.825 98.2971 173.468C98.2971 173.833 98.2307 174.182 98.0978 174.514C97.9686 174.843 97.7618 175.188 97.4775 175.55C97.2892 175.79 96.9496 176.135 96.4585 176.585C95.9675 177.036 95.6556 177.335 95.5226 177.483C95.3934 177.63 95.2882 177.774 95.207 177.915H98.2971Z" fill="white"/>
<path d="M101.985 171.208C102.772 171.208 103.386 171.489 103.83 172.05C104.357 172.714 104.621 173.817 104.621 175.356C104.621 176.892 104.356 177.996 103.824 178.668C103.385 179.222 102.772 179.498 101.985 179.498C101.195 179.498 100.558 179.196 100.075 178.59C99.5912 177.981 99.3493 176.897 99.3493 175.339C99.3493 173.811 99.6152 172.711 100.147 172.039C100.586 171.485 101.199 171.208 101.985 171.208ZM101.985 172.498C101.797 172.498 101.629 172.559 101.481 172.681C101.334 172.799 101.219 173.014 101.138 173.324C101.031 173.726 100.977 174.404 100.977 175.356C100.977 176.309 101.025 176.964 101.121 177.322C101.217 177.676 101.337 177.913 101.481 178.031C101.629 178.149 101.797 178.208 101.985 178.208C102.174 178.208 102.342 178.149 102.489 178.031C102.637 177.909 102.751 177.693 102.833 177.383C102.94 176.984 102.993 176.309 102.993 175.356C102.993 174.404 102.945 173.75 102.849 173.396C102.753 173.038 102.631 172.799 102.484 172.681C102.34 172.559 102.174 172.498 101.985 172.498Z" fill="white"/>
<path d="M110.924 177.915V179.36H105.469C105.528 178.814 105.705 178.297 106 177.809C106.296 177.318 106.879 176.669 107.75 175.86C108.452 175.207 108.882 174.764 109.041 174.531C109.255 174.21 109.362 173.892 109.362 173.578C109.362 173.231 109.268 172.966 109.079 172.781C108.895 172.593 108.638 172.498 108.31 172.498C107.985 172.498 107.726 172.596 107.534 172.792C107.342 172.988 107.232 173.313 107.202 173.767L105.651 173.612C105.744 172.755 106.034 172.14 106.521 171.767C107.008 171.395 107.617 171.208 108.348 171.208C109.15 171.208 109.779 171.424 110.237 171.856C110.695 172.288 110.924 172.825 110.924 173.468C110.924 173.833 110.857 174.182 110.724 174.514C110.595 174.843 110.388 175.188 110.104 175.55C109.916 175.79 109.576 176.135 109.085 176.585C108.594 177.036 108.282 177.335 108.149 177.483C108.02 177.63 107.915 177.774 107.833 177.915H110.924Z" fill="white"/>
<path d="M117.253 173.229L115.747 173.396C115.71 173.086 115.614 172.857 115.459 172.709C115.304 172.561 115.103 172.487 114.855 172.487C114.527 172.487 114.248 172.635 114.019 172.93C113.794 173.226 113.652 173.841 113.593 174.775C113.981 174.317 114.462 174.088 115.038 174.088C115.688 174.088 116.244 174.335 116.705 174.83C117.17 175.325 117.403 175.963 117.403 176.746C117.403 177.577 117.159 178.243 116.672 178.745C116.185 179.247 115.559 179.498 114.795 179.498C113.975 179.498 113.301 179.181 112.773 178.546C112.245 177.907 111.981 176.862 111.981 175.411C111.981 173.924 112.256 172.851 112.806 172.194C113.357 171.537 114.071 171.208 114.95 171.208C115.566 171.208 116.076 171.382 116.478 171.729C116.884 172.072 117.143 172.572 117.253 173.229ZM113.726 176.624C113.726 177.13 113.842 177.521 114.075 177.798C114.307 178.071 114.573 178.208 114.872 178.208C115.16 178.208 115.4 178.095 115.592 177.87C115.784 177.645 115.88 177.276 115.88 176.763C115.88 176.235 115.777 175.849 115.57 175.605C115.363 175.358 115.105 175.234 114.795 175.234C114.496 175.234 114.243 175.352 114.036 175.589C113.829 175.821 113.726 176.166 113.726 176.624Z" fill="white"/>
<path d="M50.1339 199.127V191.008H51.7731V199.127H50.1339Z" fill="white"/>
<path d="M53.357 199.127V191.008H54.9519L58.2747 196.43V191.008H59.7976V199.127H58.1528L54.8799 193.833V199.127H53.357Z" fill="white"/>
<path d="M61.5309 191.008H64.527C65.2026 191.008 65.7176 191.06 66.072 191.163C66.5483 191.304 66.9563 191.553 67.2959 191.911C67.6356 192.269 67.894 192.708 68.0712 193.229C68.2484 193.746 68.337 194.385 68.337 195.145C68.337 195.813 68.254 196.389 68.0878 196.873C67.8848 197.464 67.595 197.942 67.2184 198.307C66.9341 198.584 66.5501 198.8 66.0665 198.955C65.7047 199.07 65.221 199.127 64.6156 199.127H61.5309V191.008ZM63.1702 192.382V197.759H64.394C64.8518 197.759 65.1823 197.733 65.3853 197.681C65.6512 197.615 65.8708 197.502 66.0443 197.344C66.2216 197.185 66.3655 196.925 66.4763 196.563C66.5871 196.197 66.6424 195.701 66.6424 195.073C66.6424 194.445 66.5871 193.964 66.4763 193.628C66.3655 193.292 66.2105 193.03 66.0111 192.841C65.8118 192.653 65.5589 192.526 65.2524 192.459C65.0235 192.408 64.575 192.382 63.9067 192.382H63.1702Z" fill="white"/>
<path d="M69.6827 199.127V191.008H71.322V199.127H69.6827Z" fill="white"/>
<path d="M80.2103 199.127H78.4271L77.7183 197.283H74.473L73.803 199.127H72.064L75.2262 191.008H76.9596L80.2103 199.127ZM77.1922 195.915L76.0735 192.902L74.977 195.915H77.1922Z" fill="white"/>
</svg>
