<svg xmlns="http://www.w3.org/2000/svg" width="17.124" height="17.123" viewBox="0 0 17.124 17.123">
  <path id="linkedin-icon" d="M1474.528,7544.422h-3.543v-5.564c0-1.326-.027-3.029-1.846-3.029-1.845,0-2.128,1.442-2.128,2.933v5.66h-3.546v-11.432h3.405v1.559h.049a3.732,3.732,0,0,1,3.36-1.846c3.592,0,4.253,2.366,4.253,5.439v6.279Zm-15.064-12.991a2.066,2.066,0,1,1,2.056-2.076A2.073,2.073,0,0,1,1459.464,7531.431Zm1.777,12.991h-3.55v-11.432h3.55Z" transform="translate(-1457.408 -7527.299)" fill="#fff"/>
</svg>
