<svg width="18" height="18" viewBox="0 0 18 18" fill="none" xmlns="http://www.w3.org/2000/svg">
<path fill-rule="evenodd" clip-rule="evenodd" d="M14.3047 3.69419C13.0006 2.39176 11.2628 1.6149 9.42259 1.51176C7.5824 1.40863 5.76864 1.98644 4.32721 3.135C2.88578 4.28356 1.91755 5.9225 1.60717 7.73924C1.29679 9.55598 1.66599 11.4234 2.64435 12.9854L2.82303 13.2693L2.06339 16.0362L4.90303 15.2917L5.17739 15.4542C6.33322 16.139 7.65201 16.5002 8.99546 16.4999H8.9982C10.4818 16.4997 11.932 16.0597 13.1655 15.2355C14.399 14.4113 15.3605 13.2399 15.9285 11.8694C16.4964 10.4988 16.6453 8.99067 16.3562 7.53555C16.0672 6.08042 15.3533 4.74365 14.3047 3.69419Z" fill="white"/>
<path fill-rule="evenodd" clip-rule="evenodd" d="M13.2437 4.75534C12.2005 3.7134 10.8102 3.09191 9.33806 3.0094C7.8659 2.9269 6.41489 3.38915 5.26174 4.30799C4.1086 5.22684 3.33401 6.53799 3.08571 7.99138C2.8374 9.44478 3.13276 10.9387 3.91545 12.1883L4.0584 12.4154L3.45069 14.629L5.7224 14.0333L5.94189 14.1634C6.86656 14.7112 7.92159 15.0001 8.99635 14.9999H8.99855C10.1854 14.9998 11.3456 14.6478 12.3324 13.9884C13.3192 13.329 14.0884 12.3919 14.5428 11.2955C14.9971 10.199 15.1162 8.99253 14.885 7.82843C14.6538 6.66433 14.0826 5.59491 13.2437 4.75534Z" fill="#40C351"/>
<path fill-rule="evenodd" clip-rule="evenodd" d="M7.19366 5.97733C7.05867 5.67554 6.91628 5.67087 6.7876 5.66539C6.68225 5.66072 6.56208 5.66127 6.44191 5.66127C6.35046 5.66368 6.26049 5.68498 6.17768 5.72384C6.09486 5.7627 6.02098 5.81827 5.96068 5.88707C5.75676 6.08028 5.59534 6.31385 5.48669 6.5729C5.37805 6.83195 5.32456 7.11079 5.32965 7.39165C5.32965 8.2792 5.97632 9.1374 6.06631 9.25729C6.1563 9.37719 7.31438 11.2574 9.14848 11.9806C10.6723 12.5814 10.9829 12.4621 11.3137 12.4319C11.6446 12.4017 12.3813 11.9957 12.5316 11.5743C12.6493 11.3049 12.6858 11.007 12.6367 10.7172C12.5914 10.642 12.4721 10.597 12.291 10.5065C12.1099 10.4159 11.2235 9.97968 11.058 9.9196C10.8926 9.85951 10.7724 9.82933 10.652 10.0101C10.5315 10.1909 10.1856 10.597 10.0808 10.7172C9.97595 10.8373 9.87005 10.853 9.6898 10.7624C9.15795 10.5504 8.66703 10.2475 8.23897 9.86719C7.84425 9.50265 7.50576 9.08159 7.23454 8.61776C7.12918 8.43751 7.22301 8.33984 7.31355 8.24957C7.39586 8.16727 7.49381 8.03887 7.58435 7.93351C7.65852 7.84203 7.71922 7.7404 7.7646 7.63172C7.78861 7.58195 7.79981 7.52697 7.79717 7.47177C7.79454 7.41657 7.77816 7.36291 7.74951 7.31566C7.70479 7.22621 7.35416 6.334 7.19366 5.97733Z" fill="white"/>
</svg>
