<svg xmlns="http://www.w3.org/2000/svg" xmlns:xlink="http://www.w3.org/1999/xlink" width="256" height="256" viewBox="0 0 256 256">
  <defs>
    <clipPath id="clip-completely-sanitized">
      <rect width="256" height="256"/>
    </clipPath>
  </defs>
  <g id="completely-sanitized" clip-path="url(#clip-completely-sanitized)">
    <rect width="256" height="256" fill="rgba(255,255,255,0)"/>
    <g id="Group_22689" data-name="Group 22689" transform="translate(57 38)">
      <ellipse id="Ellipse_54" data-name="Ellipse 54" cx="55.49" cy="55.49" rx="55.49" ry="55.49" transform="translate(0 68.321)" fill="#f16f5b" opacity="0.13"/>
      <g id="Group_8949" data-name="Group 8949" transform="translate(39.772 0)">
        <rect id="Rectangle_5018" data-name="Rectangle 5018" width="24.438" height="20.344" transform="translate(24.719)" fill="none" stroke="#770071" stroke-linecap="round" stroke-linejoin="round" stroke-width="2.5"/>
        <path id="Path_15919" data-name="Path 15919" d="M357.432,154.389h34.032l15.381,14.554s-8.683,8.767-18.69-2.894H357.432" transform="translate(-308.184 -149.261)" fill="none" stroke="#770071" stroke-linecap="round" stroke-linejoin="round" stroke-width="2.5"/>
        <rect id="Rectangle_5019" data-name="Rectangle 5019" width="14.793" height="14.793" transform="translate(29.542 20.344)" fill="none" stroke="#770071" stroke-linecap="round" stroke-linejoin="round" stroke-width="2.5"/>
        <path id="Rectangle_5020" data-name="Rectangle 5020" d="M5.116,0H30.61a5.116,5.116,0,0,1,5.116,5.116V17.863a0,0,0,0,1,0,0H0a0,0,0,0,1,0,0V5.116A5.116,5.116,0,0,1,5.116,0Z" transform="translate(19.075 35.137)" fill="none" stroke="#770071" stroke-linecap="round" stroke-linejoin="round" stroke-width="2.5"/>
        <path id="Rectangle_5021" data-name="Rectangle 5021" d="M8.489,0h56.9a8.489,8.489,0,0,1,8.489,8.489V23.745a0,0,0,0,1,0,0H0a0,0,0,0,1,0,0V8.489A8.489,8.489,0,0,1,8.489,0Z" transform="translate(0 53)" fill="none" stroke="#770071" stroke-linecap="round" stroke-linejoin="round" stroke-width="2.5"/>
        <path id="Rectangle_5022" data-name="Rectangle 5022" d="M0,0H73.876a0,0,0,0,1,0,0V91.616a2,2,0,0,1-2,2H2a2,2,0,0,1-2-2V0A0,0,0,0,1,0,0Z" transform="translate(0 76.745)" fill="none" stroke="#770071" stroke-linecap="round" stroke-linejoin="round" stroke-width="2.5"/>
        <line id="Line_90" data-name="Line 90" x2="73.876" transform="translate(0 147.701)" fill="none" stroke="#770071" stroke-linecap="round" stroke-linejoin="round" stroke-width="2.5"/>
        <path id="Path_15920" data-name="Path 15920" d="M377.892,219.659H363.854v-14.2H352.875v14.2H339.106v11.164h13.769v13.211h10.979V230.824h14.038Z" transform="translate(-321.561 -111.985)" fill="#f16f5b"/>
        <path id="Path_15921" data-name="Path 15921" d="M395.406,183.91a8.787,8.787,0,0,1-17.57.4c-.111-4.852,5.005-12.667,8.455-14.73C391.055,172.7,395.3,179.057,395.406,183.91Z" transform="translate(-293.29 -134.442)" fill="#f16f5b"/>
      </g>
    </g>
  </g>
</svg>
