<svg width="646" height="151" viewBox="0 0 646 151" fill="none" xmlns="http://www.w3.org/2000/svg">
<mask id="mask0_1062_707" style="mask-type:alpha" maskUnits="userSpaceOnUse" x="0" y="0" width="646" height="151">
<rect width="646" height="151" fill="#D9D9D9"/>
</mask>
<g mask="url(#mask0_1062_707)">
<path d="M668.5 150.5C691.833 93.6667 634.835 34.5227 526 58C462 71.8057 365.173 149.849 301.5 71.8057C248.061 6.30593 351.561 -12.694 346 46.8057C338.746 124.418 208.5 163.306 56.9998 100.806" stroke="#B8B8B8" stroke-width="2" stroke-dasharray="6 6"/>
<path d="M13.9621 61.8579C15.4432 70.4934 17.9757 86.6426 25.6366 92.3041C31.9562 96.9728 44.8676 98.9107 52.3595 100.649C58.9534 102.184 68.5732 105.087 75.3461 104.162C78.7367 103.692 81.9411 101.73 84.9102 100.121C94.4623 94.9272 102.75 86.2747 106.051 75.7036C106.283 74.9675 105.179 74.7061 104.827 75.2984C99.2799 84.9033 93.8371 93.0739 83.801 98.4771C73.1369 104.211 61.0977 100.831 49.8236 98.0141C41.3551 95.8847 29.0602 94.1622 24.1353 86.6293C19.2105 79.0963 17.4615 70.1395 15.0433 61.6419C14.8665 61.0465 13.8617 61.2362 13.9621 61.8579Z" fill="#93288E"/>
<path d="M15.0221 62.9478C28.3636 70.1025 44.0595 73.1629 58.9084 75.1743C73.7573 77.1857 89.804 79.5258 104.499 77.4522C105.751 77.277 105.62 75.3247 104.351 75.4915C89.7394 77.4363 73.8299 75.163 59.2634 73.2254C44.6968 71.2878 30.019 66.8773 15.4981 61.9702C14.839 61.7553 14.3787 62.6133 15.0137 62.965L15.0221 62.9478Z" fill="#93288E"/>
<path d="M14.7975 62.5409C18.6236 62.9189 22.9098 64.0513 26.7594 63.4223C27.543 63.2946 27.6343 62.2358 26.83 62.0139C23.057 61.004 18.7034 61.5786 14.8461 61.4825C14.2574 61.4716 14.1995 62.4619 14.7804 62.5326L14.7975 62.5409Z" fill="#93288E"/>
<path d="M106.009 74.963C103.815 73.9793 101.374 73.894 99.0172 73.6798C97.1044 73.5121 95.2329 73.2161 93.3214 73.1764C92.3997 73.1519 92.414 74.5168 93.2438 74.7299C95.1514 75.2133 97.048 75.4579 99.0202 75.5908C101.18 75.7303 103.669 76.3696 105.808 76.0742C106.353 76.0003 106.584 75.2215 106.027 74.9714L106.009 74.963Z" fill="#93288E"/>
<path d="M25.4271 66.5076L26.1474 66.8583C26.5595 67.1014 27.2476 66.8212 27.2932 66.2918C27.4661 64.0632 27.5155 59.8226 29.1714 59.08C29.8252 58.7831 33.2921 59.8985 33.9931 60.0277C41.5411 61.4331 49.1542 62.5306 56.7669 63.5856C63.6447 64.5373 70.5305 65.4292 77.4417 66.3123C80.9358 66.762 84.6656 66.902 88.1035 67.685C93.996 69.048 92.7917 69.7347 92.1982 75.7897C92.0665 77.0623 94.0414 77.4511 94.1814 76.1614C94.4509 73.3858 95.1443 70.3499 94.825 67.5634C94.7959 67.231 94.5958 66.8577 94.2532 66.7333C90.2783 65.1796 85.528 65.3488 81.2991 64.7959C73.807 63.8421 66.3065 62.9054 58.8223 61.8918C48.5783 60.4891 38.0108 57.5285 27.7248 56.9964C27.4174 56.9741 27.045 57.2595 26.9285 57.5423C26.5633 58.5101 25.4929 65.4575 25.6292 65.439C25.0668 65.5046 24.9126 66.257 25.4271 66.5076Z" fill="#93288E"/>
<path d="M36.5152 74.4546L36.4971 74.3609L36.0166 74.912L36.1446 74.9106L35.5421 74.4051L35.4902 74.3374L35.896 73.9833C34.9783 74.3427 34.274 74.6999 33.7113 75.5504C33.1903 76.3152 32.9869 77.2558 33.2949 78.1484C33.92 80.0017 36.278 81.1287 38.0878 80.4187C40.2207 79.6115 40.3676 77.3491 39.538 75.5235C39.1364 74.6489 38.4635 73.9393 37.4728 73.8388C36.559 73.7545 35.7879 74.2489 34.9722 74.5731C34.1566 74.8973 34.3124 75.928 35.0996 76.1416C35.5872 76.273 35.9878 76.2347 36.4557 76.1018C36.9235 75.9689 37.2449 75.7011 37.591 76.1667C38.1967 76.9708 38.2972 78.4201 37.0708 78.6292C36.1 78.793 34.7934 77.8596 35.1577 76.8065C35.4808 75.8817 36.6798 75.5108 36.849 74.5535C36.9219 74.1859 36.5841 73.7031 36.1585 73.7929C35.9712 73.829 35.8436 73.873 35.7082 73.9767C35.5728 74.0805 35.4638 74.2609 35.4827 74.4398L35.5008 74.5335C35.6016 75.1979 36.6332 75.1273 36.5323 74.4629L36.5152 74.4546Z" fill="#93288E"/>
<path d="M50.3795 77.7896L50.3614 77.6959L49.8809 78.2469L50.0089 78.2456L49.4064 77.74L49.3545 77.6723L49.7603 77.3183C48.8426 77.6777 48.1383 78.0349 47.5756 78.8854C47.0546 79.6501 46.8512 80.5907 47.1591 81.4833C47.7843 83.3366 50.1423 84.4637 51.9521 83.7537C54.085 82.9464 54.2319 80.684 53.4023 78.8584C53.0007 77.9839 52.3278 77.2743 51.3371 77.1738C50.4233 77.0895 49.6521 77.5839 48.8365 77.9081C48.0209 78.2323 48.1767 79.263 48.9639 79.4766C49.4515 79.608 49.8521 79.5696 50.32 79.4368C50.7878 79.3039 51.1092 79.036 51.4553 79.5016C52.061 80.3058 52.1615 81.7551 50.9351 81.9642C49.9642 82.1279 48.6577 81.1946 49.022 80.1414C49.3451 79.2166 50.5441 78.8457 50.7132 77.8884C50.769 77.5125 50.4484 77.0381 50.0228 77.1278C49.8354 77.1639 49.7079 77.2079 49.5725 77.3117C49.4371 77.4155 49.3281 77.5958 49.347 77.7748L49.3651 77.8684C49.4659 78.5328 50.4974 78.4623 50.3966 77.7979L50.3795 77.7896Z" fill="#93288E"/>
<path d="M64.3467 80.3472L64.3287 80.2535L63.8482 80.8046L63.9761 80.8032L63.3736 80.2976L63.3217 80.2299L63.7275 79.8759C62.8099 80.2353 62.1055 80.5925 61.5428 81.443C61.0219 82.2078 60.8184 83.1484 61.1264 84.0409C61.7516 85.8943 64.1095 87.0213 65.9193 86.3113C68.0523 85.504 68.1992 83.2416 67.3696 81.4161C66.968 80.5415 66.2951 79.8319 65.3043 79.7314C64.3906 79.6471 63.6194 80.1415 62.8038 80.4657C61.9881 80.7899 62.144 81.8206 62.9311 82.0342C63.4188 82.1656 63.8194 82.1272 64.2872 81.9944C64.7551 81.8615 65.0764 81.5937 65.4226 82.0593C66.0282 82.8634 66.1287 84.3127 64.9024 84.5218C63.9315 84.6855 62.6249 83.7522 62.9893 82.699C63.3123 81.7742 64.5114 81.4033 64.6805 80.446C64.7534 80.0784 64.4156 79.5957 63.99 79.6854C63.8027 79.7215 63.6752 79.7655 63.5398 79.8693C63.4043 79.9731 63.2953 80.1534 63.3143 80.3324L63.3323 80.426C63.4331 81.0904 64.4647 81.0199 64.3639 80.3555L64.3467 80.3472Z" fill="#93288E"/>
<path d="M78.016 81.3384L77.998 81.2447L77.5175 81.7958L77.6454 81.7944L77.0429 81.2889L76.991 81.2211L77.3968 80.8671C76.4792 81.2265 75.7748 81.5837 75.2121 82.4342C74.6912 83.199 74.4877 84.1396 74.7957 85.0321C75.4208 86.8855 77.7788 88.0125 79.5886 87.3025C81.7216 86.4952 81.8685 84.2329 81.0388 82.4073C80.6372 81.5327 79.9643 80.8231 78.9736 80.7226C78.0599 80.6383 77.2887 81.1327 76.4731 81.4569C75.6574 81.7811 75.8133 82.8118 76.6004 83.0254C77.0881 83.1568 77.4887 83.1185 77.9565 82.9856C78.4243 82.8527 78.7457 82.5849 79.0919 83.0505C79.6975 83.8546 79.798 85.3039 78.58 85.4959C77.6091 85.6596 76.3026 84.7263 76.6669 83.6731C76.9899 82.7483 78.189 82.3774 78.3581 81.4201C78.4311 81.0525 78.0933 80.5697 77.6676 80.6595C77.4803 80.6956 77.3528 80.7396 77.2174 80.8434C77.082 80.9472 76.973 81.1275 76.9919 81.3065L77.0099 81.4001C77.1108 82.0645 78.1423 81.994 78.0415 81.3296L78.016 81.3384Z" fill="#93288E"/>
<path d="M22.0528 85.7635C30.1203 92.7687 45.1089 94.2753 55.2061 96.3279C65.3033 98.3806 76.9559 100.681 87.5625 98.4203C88.8139 98.1598 88.1545 96.2898 86.9114 96.5332C76.3475 98.7938 64.7015 96.3052 54.27 94.111C43.8386 91.9168 32.3733 89.5799 22.6155 84.913C22.101 84.6625 21.6306 85.367 22.0612 85.7464L22.0528 85.7635Z" fill="#93288E"/>
<path d="M36.8541 59.6389C37.0609 58.212 36.9194 53.6662 38.0164 52.5029C40.0246 50.3831 43.3844 51.8495 45.8284 52.2334C51.7331 53.1356 57.6462 54.0206 63.551 54.9228C65.1916 55.1701 69.9846 55.0004 71.0497 55.6888C72.2177 56.4274 71.5527 55.658 71.601 57.8245C71.6493 59.991 70.9571 62.3273 70.6466 64.4464C70.4635 65.6939 72.3869 66.0577 72.57 64.8101L73.8977 55.5481C73.9777 55.0353 73.6478 54.4928 73.1179 54.4045C61.3682 52.608 49.6357 50.8199 37.8948 49.0489C37.3395 48.9694 36.8994 49.3068 36.7513 49.8288C35.8728 53.1141 35.3505 56.1909 35.3775 59.5776C35.3864 60.4307 36.7522 60.5017 36.8712 59.6473L36.8541 59.6389Z" fill="#93288E"/>
<path d="M75.2639 65.3791C75.8101 60.5104 76.3224 55.6677 76.9029 50.8157C77.2327 48.0907 77.5369 45.3745 77.8495 42.6411C78.0598 40.7278 76.2967 41.8213 78.41 41.5773C80.6767 41.3232 83.8799 42.5011 86.1361 42.8785C87.1787 43.0467 88.6176 43.5776 89.6659 43.4728C91.5492 43.2654 90.3085 44.5496 90.3148 42.7067C90.3108 50.4704 87.0253 58.5245 87.917 66.2788C87.9835 66.9265 89.0279 67.2654 89.2763 66.5376C91.8122 59.4128 91.4537 50.4329 92.3134 42.9161C92.3761 42.395 92.0718 41.8437 91.5076 41.7387C86.773 40.9607 82.0467 40.1656 77.3121 39.3877C76.8165 39.3161 76.2141 39.6381 76.1685 40.1675C75.3397 48.1873 73.0806 57.3141 74.1883 65.3221C74.2627 65.91 75.2196 66.0365 75.281 65.3875L75.2639 65.3791Z" fill="#93288E"/>
<path d="M76.2923 43.8772C77.97 45.2247 80.4888 45.4115 82.5833 45.8162C85.088 46.2933 88.7617 47.5942 91.2631 46.9452C91.9948 46.7499 91.9836 45.6835 91.3662 45.3829C89.068 44.2637 85.4513 44.3272 82.9554 43.8756C80.8099 43.4886 78.7405 43.0325 76.5907 43.0465C76.1897 43.0422 76.0082 43.6328 76.3178 43.8684L76.2923 43.8772Z" fill="#93288E"/>
<path d="M40.5688 53.4494C40.3452 54.9106 39.7334 56.7769 41.0154 57.8043C43.0111 59.3703 48.9482 59.291 51.3751 59.6665C56.5705 60.4567 62.5427 62.0919 67.8206 61.7977C68.1275 61.7774 68.4837 61.569 68.6085 61.269C69.0406 60.1639 68.8561 58.8435 68.8867 57.6914C68.891 57.2904 68.4943 56.885 68.1183 56.8293C59.1544 55.4558 50.0534 54.843 41.2098 52.7431C40.0295 52.4654 39.682 54.3118 40.8622 54.5895C46.815 56.0031 52.8631 56.7417 58.9111 57.4803C61.192 57.7635 64.679 57.5308 66.5181 58.8083C68.658 60.2959 66.604 59.6776 65.4436 59.6642C61.6378 59.5931 57.6524 58.6708 53.9015 58.1385C51.5177 57.8052 49.1423 57.4547 46.758 57.0787C43.9552 56.6474 42.2152 56.6912 41.5845 53.4985C41.4851 52.962 40.6645 52.8171 40.5688 53.4494Z" fill="#93288E"/>
</g>
</svg>
