<svg xmlns="http://www.w3.org/2000/svg" xmlns:xlink="http://www.w3.org/1999/xlink" width="256" height="256" viewBox="0 0 256 256">
  <defs>
    <clipPath id="clip-elevated-protocols">
      <rect width="256" height="256"/>
    </clipPath>
  </defs>
  <g id="elevated-protocols" clip-path="url(#clip-elevated-protocols)">
    <rect width="256" height="256" fill="rgba(255,255,255,0)"/>
    <g id="Group_22691" data-name="Group 22691" transform="translate(39 38)">
      <ellipse id="Ellipse_56" data-name="Ellipse 56" cx="55.49" cy="55.49" rx="55.49" ry="55.49" transform="translate(2 69)" fill="#f16f5b" opacity="0.13"/>
      <g id="Group_8954" data-name="Group 8954" transform="translate(4.737 0)">
        <path id="Path_15930" data-name="Path 15930" d="M1028.24,221.535c-.041-3.963-2.2-5.944-6.126-6.073-1.979-.067-3.963-.017-5.946-.017-6.4,0-6.4-.005-8.77-5.776a22.845,22.845,0,0,0-1.763-3.785c-1.045-1.606-.581-2.612.712-3.808q3.851-3.56,7.422-7.415c2.47-2.673,2.566-5.567.093-8.093q-10.768-11-21.759-21.769c-2.573-2.521-5.386-2.387-8.074.082-1.716,1.575-3.311,3.283-4.955,4.935-4.013,4.029-4.008,4.017-9.143,1.829a30.432,30.432,0,0,0-4.238-1.592c-1.857-.478-2.6-1.367-2.472-3.4.209-3.251.111-6.525.04-9.79-.1-4.324-2.163-6.387-6.511-6.407q-14.692-.069-29.381.005c-4.169.022-6.146,2.024-6.248,6.244-.086,3.5-.074,7,0,10.492.028,1.34-.469,1.856-1.676,2.6-2.913,1.8-6.568,3.89-9.627,3.592-3.319-.322-5.2-4.609-7.889-6.967-.262-.23-.494-.5-.744-.74-3.661-3.571-6.3-3.621-9.889-.057q-10.055,9.978-20.035,20.03c-3.456,3.48-3.458,6.181-.121,9.639a20.922,20.922,0,0,0,2.738,2.7c4.757,3.389,4.505,6.289,2.734,12.577a15.147,15.147,0,0,1-.981,2.6c-.78,1.6-1.318,2.421-3.186,2.327-3.257-.163-6.529-.082-9.793-.033-4.63.07-6.474,1.947-6.518,6.654-.044,4.779-.009,9.56-.009,14.341h.01c0,5.129-.083,10.261.029,15.388.077,3.561,2.149,5.547,5.713,5.7,2.1.091,4.2.019,6.3.019,6.368,0,6.362,0,8.747,5.735a26.147,26.147,0,0,0,1.748,3.792c1,1.609.575,2.658-.732,3.869q-3.845,3.562-7.415,7.421c-2.434,2.632-2.538,5.584-.068,8.1q10.772,10.988,21.784,21.743c2.567,2.509,5.383,2.363,8.086-.108,1.72-1.57,3.313-3.282,4.961-4.93,4.051-4.049,4.05-4.042,9.142-1.878a27.96,27.96,0,0,0,4.215,1.648c1.9.461,2.614,1.371,2.5,3.393-.183,3.371-.128,6.762-.02,10.139.125,3.986,2.142,6.042,6.107,6.071q14.864.11,29.732,0c4.057-.026,6.193-2.219,6.294-6.316q.129-5.243-.014-10.492a2.256,2.256,0,0,1,1.7-2.558c3.256-1.23,6.589-3.924,9.632-3.6,3.263.35,5.2,4.58,7.875,6.947.263.231.5.493.746.739,3.682,3.607,6.179,3.643,9.825.033q8.7-8.611,17.343-17.283c7.126-7.113,7.367-8.282-.026-14.984-4.268-3.868-4.469-6.314-2.662-12.591a12.485,12.485,0,0,1,.9-2.253c1.056-2.2,1.778-2.815,3.934-2.69,3.021.175,6.061.074,9.09.036,4.411-.053,6.616-2.007,6.657-6.287Q1028.39,236.4,1028.24,221.535ZM941.969,280.23C917.122,280.1,898.7,261.314,898.8,236.2c.093-24.792,18.581-43.31,43.32-43.39s43.563,18.876,43.482,43.773C985.52,261.543,966.712,280.36,941.969,280.23Z" transform="translate(-856.106 -150.419)" fill="none" stroke="#770071" stroke-linecap="round" stroke-linejoin="round" stroke-width="2.5"/>
        <path id="Path_15931" data-name="Path 15931" d="M939.089,204.175H922.361V187.249H909.278v16.926H892.87v13.3h16.408v15.743h13.083V217.479h16.728Z" transform="translate(-829.872 -124.138)" fill="#f16f5b"/>
      </g>
    </g>
  </g>
</svg>
