<svg width="24" height="25" viewBox="0 0 24 25" fill="none" xmlns="http://www.w3.org/2000/svg">
<path d="M6.30714 18.8542C5.9471 18.2477 5.6298 17.6168 5.3578 16.966C5.00585 16.1084 4.73678 15.2191 4.55384 14.3104C4.52839 14.1832 4.56147 14.1513 4.67344 14.1119C7.00111 13.2831 9.32774 12.4506 11.6537 11.6142C11.7355 11.5823 11.8266 11.5823 11.9084 11.6142C14.237 12.4184 16.5671 13.2187 18.899 14.0152C19.0555 14.0686 19.0337 14.1424 19.0108 14.2608C18.7558 15.5505 18.3278 16.7998 17.7384 17.975C17.7193 18.0131 17.7029 18.0526 17.6787 18.1022C17.9256 18.1277 18.1622 18.1442 18.3963 18.176C18.8001 18.2418 19.1935 18.3599 19.5669 18.5272C20.0925 18.7516 20.6585 18.8668 21.2301 18.8657C21.3184 18.8586 21.4068 18.8777 21.4845 18.9204C21.5505 18.9545 21.6029 19.0098 21.6336 19.0774C21.6643 19.1451 21.6715 19.2211 21.6538 19.2932C21.6399 19.3737 21.597 19.4463 21.5333 19.4974C21.4695 19.5485 21.3893 19.5746 21.3077 19.5706C20.7215 19.5964 20.1363 19.4975 19.5911 19.2805C18.9032 18.9707 18.157 18.812 17.4026 18.8148C16.8539 18.8262 16.3125 18.942 15.8071 19.1558C14.75 19.6081 13.5742 19.7036 12.458 19.4281C12.1769 19.3499 11.9011 19.2538 11.6323 19.1405C11.0897 18.9185 10.5084 18.8057 9.92216 18.8087C9.33588 18.8118 8.75603 18.9306 8.21577 19.1583C7.02645 19.6664 5.69107 19.7163 4.46717 19.2983C3.9635 19.0843 3.43606 18.9318 2.89591 18.844C2.72159 18.8313 2.54589 18.8275 2.37029 18.8173C2.3226 18.819 2.27511 18.8112 2.2305 18.7942C2.18589 18.7772 2.1451 18.7515 2.11059 18.7185C2.07608 18.6855 2.0485 18.646 2.02951 18.6022C2.01053 18.5584 2.00048 18.5113 2 18.4636C2.00076 18.4159 2.01124 18.3688 2.03075 18.3252C2.05026 18.2816 2.07828 18.2424 2.11339 18.21C2.14849 18.1777 2.18984 18.1528 2.23485 18.1369C2.27987 18.121 2.32762 18.1144 2.37526 18.1175C2.95393 18.1015 3.53005 18.2005 4.07016 18.4089C4.76802 18.7384 5.53627 18.8914 6.30714 18.8542Z" fill="#93288E"/>
<path d="M19.1516 13.3663L14.5279 11.777C13.6855 11.4881 12.843 11.2031 12.0032 10.9092C11.8523 10.8523 11.686 10.8523 11.5351 10.9092C9.22946 11.735 6.92004 12.5557 4.6157 13.3878C4.42992 13.4553 4.38672 13.4222 4.36128 13.2415C4.29511 12.6893 4.24271 12.1371 4.2249 11.581C4.21331 11.4827 4.23727 11.3834 4.29231 11.3011C4.34735 11.2187 4.42998 11.1587 4.5253 11.1318C6.87333 10.2284 9.22043 9.32248 11.5668 8.41398C11.6339 8.38608 11.7059 8.37173 11.7786 8.37173C11.8513 8.37173 11.9233 8.38608 11.9905 8.41398C14.3292 9.32078 16.6689 10.2251 19.0093 11.1268C19.1089 11.1531 19.1956 11.2147 19.2531 11.3001C19.3107 11.3856 19.3351 11.489 19.3221 11.5912C19.2967 12.118 19.2663 12.6435 19.1951 13.1652C19.1874 13.2301 19.1681 13.2925 19.1516 13.3663Z" fill="#93288E"/>
<path d="M7.13014 9.36507C7.13014 8.6487 7.13014 7.95392 7.13014 7.25918C7.12921 7.0488 7.20692 6.84572 7.34821 6.68984C7.4895 6.53395 7.68394 6.43656 7.8934 6.41686C7.98047 6.40801 8.06809 6.40462 8.15559 6.40668H15.486C16.1947 6.40668 16.513 6.72735 16.513 7.4399C16.513 8.03285 16.513 8.62575 16.513 9.22124C16.513 9.40065 16.4683 9.40578 16.3182 9.34853C14.9732 8.82429 13.6231 8.31271 12.2794 7.78721C12.1034 7.71723 11.9153 7.68315 11.7259 7.68687C11.5364 7.69058 11.3495 7.73205 11.1763 7.80887C9.85556 8.33438 8.52713 8.83823 7.20127 9.35101C7.17777 9.35685 7.1541 9.36158 7.13014 9.36507Z" fill="#93288E"/>
<path d="M11.7909 5.70505C11.2145 5.70505 10.637 5.70505 10.0606 5.70505C9.92445 5.70505 9.86975 5.67828 9.87483 5.52813C9.88629 5.16295 9.87483 4.79782 9.87483 4.43263C9.87483 4.14252 10.002 4.02032 10.2896 4.02032C11.2905 4.02032 12.2912 4.02032 13.2913 4.02032C13.5738 4.02032 13.7023 4.14762 13.7048 4.439C13.7048 4.80418 13.7048 5.16932 13.7048 5.5345C13.7048 5.66938 13.6717 5.70756 13.5355 5.70629C12.9604 5.69993 12.375 5.70505 11.7909 5.70505Z" fill="#93288E"/>
</svg>
