<svg xmlns="http://www.w3.org/2000/svg" width="12.835" height="12.835" viewBox="0 0 12.835 12.835">
  <path id="instagram-icon" d="M1560.407,7530.025a.785.785,0,1,0,.785.785.792.792,0,0,0-.785-.785m-3.422,6.347a2.138,2.138,0,1,1,2.139-2.139,2.1,2.1,0,0,1-2.139,2.139m0-5.418a3.226,3.226,0,0,0-3.28,3.279,3.28,3.28,0,1,0,3.28-3.279m0-3.138a21.222,21.222,0,0,0-2.638.071,4.447,4.447,0,0,0-1.569.285,3,3,0,0,0-1.854,1.854,3.268,3.268,0,0,0-.285,1.57,48.685,48.685,0,0,0,0,5.276,4.413,4.413,0,0,0,.285,1.568,2.994,2.994,0,0,0,1.854,1.854,4.423,4.423,0,0,0,1.569.286,48.853,48.853,0,0,0,5.276,0,4.425,4.425,0,0,0,1.569-.286,2.992,2.992,0,0,0,1.854-1.854,4.4,4.4,0,0,0,.285-1.568c0-.713.071-.928.071-2.639a21.023,21.023,0,0,0-.071-2.637,4.421,4.421,0,0,0-.285-1.57,3,3,0,0,0-1.854-1.854,4.449,4.449,0,0,0-1.569-.285,21.212,21.212,0,0,0-2.638-.071m0,1.141a19.813,19.813,0,0,1,2.567.071,3.306,3.306,0,0,1,1.212.214,2.518,2.518,0,0,1,1.212,1.213,3.307,3.307,0,0,1,.214,1.212c0,.642.071.855.071,2.566a19.654,19.654,0,0,1-.071,2.567,3.31,3.31,0,0,1-.214,1.212,2.5,2.5,0,0,1-1.212,1.213,3.315,3.315,0,0,1-1.212.212c-.641,0-.856.072-2.567.072a19.554,19.554,0,0,1-2.567-.072,3.317,3.317,0,0,1-1.212-.212,2.5,2.5,0,0,1-1.212-1.213,3.312,3.312,0,0,1-.214-1.212c0-.642-.071-.856-.071-2.567a19.74,19.74,0,0,1,.071-2.566,3.309,3.309,0,0,1,.214-1.212,2.54,2.54,0,0,1,.5-.712,1.212,1.212,0,0,1,.713-.5,3.308,3.308,0,0,1,1.212-.214,19.822,19.822,0,0,1,2.567-.071" transform="translate(-1550.567 -7527.816)" fill="#fff" fill-rule="evenodd"/>
</svg>
