<svg width="24" height="25" viewBox="0 0 24 25" fill="none" xmlns="http://www.w3.org/2000/svg">
<path d="M16.2429 13.1178C16.3374 13.0535 16.3716 12.9839 16.3698 12.8698C16.3629 12.4653 16.3704 12.0602 16.3646 11.6557C16.3629 11.5404 16.3843 11.4865 16.5164 11.49C16.856 11.4987 17.1956 11.4981 17.5352 11.49C17.6569 11.4871 17.6795 11.5357 17.6754 11.6418C17.6685 11.8151 17.6801 11.9889 17.6714 12.1622C17.6644 12.3094 17.6818 12.3702 17.8574 12.3094C19.123 11.8713 20.6714 12.3297 21.4132 13.0766C21.5395 13.2035 21.6004 13.0853 21.5998 12.9323C21.5957 10.5912 21.5957 7.48332 21.6009 5.14157C21.6009 4.98337 21.5517 4.95555 21.4062 4.95613C20.2281 4.96193 19.05 4.96251 17.8725 4.95555C17.7125 4.95439 17.6662 4.98974 17.6685 5.15548C17.6783 5.89955 17.6696 6.64421 17.6754 7.38828C17.6766 7.52099 17.654 7.57894 17.5022 7.57256C17.1846 7.55981 16.8659 7.55923 16.5483 7.57256C16.3884 7.57894 16.3605 7.52041 16.3623 7.37553C16.3692 6.63841 16.3594 5.90129 16.3698 5.16417C16.3721 4.99148 16.3235 4.95439 16.1571 4.95497C13.8374 4.96077 11.5177 4.95903 9.19738 4.95903C6.87707 4.95903 4.52895 4.95903 2.19473 4.95961C2.10607 4.96019 2.00002 4.91615 2.00118 5.09347C2.00871 6.30752 2.00697 7.52157 2.00234 8.73561C2.00234 8.85615 2.04406 8.87933 2.15127 8.87469C2.33149 8.86774 2.51287 8.86948 2.6931 8.87585C3.92337 8.91816 4.95082 9.75147 5.20696 10.9122C5.46889 12.0996 4.88708 13.3015 3.79356 13.841C3.29114 14.089 2.75453 14.1284 2.20922 14.0994C2.03363 14.0902 2.00002 14.1481 2.00118 14.3121C2.00813 15.4827 2.00929 16.6533 2.00002 17.8245C1.99886 17.9942 2.04928 18.0209 2.204 18.0203C3.57683 18.014 4.95024 18.0168 6.32307 18.0168C8.73668 18.0168 12.3556 18.0168 14.7692 18.0168C14.8776 18.0168 15.0341 18.029 14.9698 17.8621C14.2002 15.8704 14.9315 14.0114 16.2429 13.1178ZM16.3669 9.03348C16.3669 8.94481 16.4388 8.87296 16.5274 8.87296H17.5143C17.603 8.87296 17.6749 8.94481 17.6749 9.03348V10.0204C17.6749 10.109 17.603 10.1809 17.5143 10.1809H16.5274C16.4388 10.1809 16.3669 10.109 16.3669 10.0204V9.03348ZM8.36986 9.27513C8.46895 9.08679 8.6428 9.01203 8.84736 8.98828C9.02817 8.96741 9.20723 8.93728 9.38746 8.91352C9.43034 8.90773 9.44946 8.89382 9.44656 8.84572C9.44193 8.76807 9.44309 8.69041 9.44656 8.61276C9.4483 8.57162 9.43555 8.56003 9.39441 8.56061C9.23447 8.56292 9.07395 8.56408 8.91401 8.56061C8.73552 8.55713 8.62252 8.39719 8.68684 8.2413C8.72335 8.15264 8.78999 8.10338 8.88677 8.09643C8.89894 8.09527 8.91111 8.09527 8.92328 8.09527C9.42802 8.09527 9.93276 8.09527 10.4375 8.09527C10.5911 8.09527 10.6919 8.19436 10.6878 8.33576C10.6844 8.46499 10.5841 8.55887 10.4421 8.56061C10.2845 8.56292 10.1263 8.56234 9.96869 8.56061C9.92639 8.56003 9.90842 8.56756 9.91132 8.61508C9.91596 8.68983 9.91654 8.76575 9.91132 8.8405C9.90784 8.89092 9.92697 8.90657 9.97333 8.91294C10.1773 8.94076 10.3813 8.96973 10.5853 9.00102C10.8003 9.03406 10.9486 9.15285 11.0263 9.35568C11.0784 9.49302 11.1254 9.6321 11.1781 9.78045C10.9567 9.76075 10.747 9.74162 10.5372 9.72308C10.2567 9.69816 9.9768 9.66107 9.69633 9.6518C9.5161 9.64543 9.33414 9.67788 9.15276 9.6941C8.83403 9.7225 8.51531 9.75147 8.18036 9.78219C8.24758 9.60428 8.28931 9.43101 8.3716 9.27513H8.36986ZM7.43107 11.3318C7.51452 11.0536 7.59681 10.7754 7.68141 10.4973C7.75559 10.2533 7.93929 10.1137 8.19195 10.0928C8.64396 10.0551 9.09539 10.0128 9.54682 9.96821C9.74269 9.94908 9.9345 9.98269 10.1275 9.99776C10.4758 10.0256 10.8229 10.0627 11.1706 10.0928C11.4209 10.1142 11.6017 10.2551 11.6747 10.4955C11.7599 10.7754 11.8434 11.0565 11.9274 11.3364C11.9314 11.3503 11.9401 11.3631 11.9297 11.3862C11.5386 11.2396 11.1491 11.0936 10.7591 10.9476C10.503 10.8519 10.2469 10.7569 9.99129 10.6607C9.77456 10.579 9.56073 10.586 9.34515 10.6671C8.72277 10.9024 8.09981 11.1353 7.47685 11.3689C7.46121 11.3746 7.4444 11.3793 7.42817 11.3845C7.41021 11.3654 7.42586 11.3486 7.43107 11.3318ZM12.9983 14.1719C12.9461 14.2866 12.8123 14.3405 12.6912 14.2878C12.5023 14.2061 12.3157 14.1209 12.1285 14.0351C11.8845 13.9233 11.6475 13.9337 11.4221 14.0792C11.188 14.2298 10.9388 14.322 10.656 14.3069C10.4555 14.2965 10.2689 14.2408 10.1008 14.1336C9.81744 13.9528 9.54276 13.9598 9.25475 14.1331C8.84736 14.3776 8.43186 14.3701 8.02158 14.1302C7.89583 14.0566 7.77355 13.9801 7.62288 13.9656C7.49655 13.9534 7.37602 13.9708 7.2607 14.0218C7.07062 14.1064 6.88113 14.1927 6.69105 14.2768C6.55023 14.3394 6.41405 14.2953 6.35784 14.1713C6.30163 14.0467 6.35958 13.9157 6.5004 13.8526C6.7009 13.7622 6.90199 13.6718 7.10308 13.5831C7.1448 13.5646 7.18884 13.5501 7.23288 13.5373C7.33777 13.5066 7.33719 13.5078 7.30996 13.4058C7.21898 13.0645 7.12568 12.7231 7.03933 12.3807C6.97153 12.1123 7.10365 11.844 7.36095 11.7461C8.07258 11.4743 8.78652 11.2089 9.49988 10.9429C9.62215 10.8971 9.74732 10.9018 9.87018 10.9481C10.5766 11.213 11.2836 11.4766 11.9894 11.7432C12.2009 11.8232 12.3325 12.0219 12.3336 12.2845C12.3307 12.4004 12.2728 12.5435 12.2357 12.6913C12.1714 12.9468 12.1018 13.2018 12.0311 13.4556C12.0178 13.5031 12.0271 13.5159 12.074 13.5269C12.2768 13.5721 12.4553 13.6782 12.6448 13.7575C12.7254 13.7912 12.8042 13.8277 12.8824 13.8659C13.0012 13.9239 13.0499 14.0577 12.9977 14.173L12.9983 14.1719Z" fill="#93288E"/>
<path d="M21.9857 15.8442C21.7898 14.2599 20.4332 13.0354 18.832 12.9989C16.7638 12.9514 15.1777 14.7942 15.5318 16.8317C15.7908 18.3216 17.0599 19.4522 18.5608 19.5298C20.1069 19.6098 21.4833 18.6194 21.897 17.1347C22.05 16.5071 21.988 15.8685 21.9851 15.8442H21.9857ZM20.0728 15.7463C19.568 16.218 19.065 16.692 18.562 17.166C18.5023 17.2222 18.4334 17.257 18.347 17.2669C18.2792 17.2576 18.2131 17.2379 18.161 17.1799C17.906 16.8966 17.651 16.6132 17.3926 16.3321C17.3532 16.2893 17.3613 16.2684 17.4001 16.2354C17.4951 16.1548 17.5908 16.0743 17.68 15.9873C17.7293 15.9392 17.7565 15.9503 17.7971 15.9966C17.9616 16.1838 18.1332 16.3646 18.2949 16.5541C18.3534 16.623 18.3835 16.6346 18.4554 16.5645C18.8674 16.1647 19.287 15.7729 19.6996 15.3742C19.765 15.3111 19.801 15.3116 19.856 15.38C19.925 15.4652 19.9997 15.5458 20.0791 15.6211C20.1336 15.6727 20.1203 15.7005 20.0722 15.7457L20.0728 15.7463Z" fill="#93288E"/>
</svg>
