<svg width="25" height="25" viewBox="0 0 25 25" fill="none" xmlns="http://www.w3.org/2000/svg">
<path fill-rule="evenodd" clip-rule="evenodd" d="M20.8992 10.1234L21.6194 10.8434C22.1897 11.4034 22.4998 12.1634 22.4998 12.9634C22.5098 13.7634 22.1997 14.5244 21.6395 15.0934C21.6328 15.1007 21.6261 15.1072 21.6194 15.1136C21.6161 15.1168 21.6128 15.1201 21.6094 15.1234L20.8992 15.8334C20.6191 16.1134 20.459 16.4934 20.459 16.8944V17.9234C20.459 19.5834 19.1085 20.9344 17.4479 20.9344H16.4176C16.0174 20.9344 15.6373 21.0934 15.3572 21.3734L14.6369 22.0934C14.0467 22.6844 13.2764 22.9734 12.5061 22.9734C11.7359 22.9734 10.9656 22.6844 10.3754 22.1044L9.64511 21.3734C9.365 21.0934 8.98487 20.9344 8.58472 20.9344H7.55435C5.89375 20.9344 4.54326 19.5834 4.54326 17.9234V16.8944C4.54326 16.4934 4.3832 16.1134 4.1031 15.8234L3.38284 15.1134C2.21241 13.9444 2.20241 12.0334 3.37283 10.8544L4.1031 10.1234C4.3832 9.84341 4.54326 9.46341 4.54326 9.05341V8.03341C4.54326 6.37341 5.89375 5.02441 7.55435 5.02441H8.58472C8.98487 5.02441 9.365 4.86341 9.64511 4.58341L10.3654 3.86341C11.5358 2.68441 13.4465 2.68441 14.6269 3.85441L15.3572 4.58341C15.6373 4.86341 16.0174 5.02441 16.4176 5.02441H17.4479C19.1085 5.02441 20.459 6.37341 20.459 8.03341V9.06441C20.459 9.46341 20.6191 9.84341 20.8992 10.1234ZM9.92521 16.4234C10.1653 16.4234 10.3854 16.3334 10.5454 16.1634L15.6873 11.0244C16.0274 10.6844 16.0274 10.1234 15.6873 9.78341C15.3472 9.44441 14.797 9.44441 14.4569 9.78341L9.31499 14.9234C8.97486 15.2634 8.97486 15.8234 9.31499 16.1634C9.47504 16.3334 9.69512 16.4234 9.92521 16.4234ZM14.1968 15.5434C14.1968 16.0334 14.5869 16.4234 15.0771 16.4234C15.5572 16.4234 15.9474 16.0334 15.9474 15.5434C15.9474 15.0644 15.5572 14.6734 15.0771 14.6734C14.5869 14.6734 14.1968 15.0644 14.1968 15.5434ZM9.93521 9.53341C10.4154 9.53341 10.8055 9.92341 10.8055 10.4034C10.8055 10.8944 10.4154 11.2834 9.93521 11.2834C9.45504 11.2834 9.05489 10.8944 9.05489 10.4034C9.05489 9.92341 9.45504 9.53341 9.93521 9.53341Z" fill="url(#paint0_linear_121_13485)"/>
<defs>
<linearGradient id="paint0_linear_121_13485" x1="12.5" y1="2.97803" x2="12.5" y2="22.9734" gradientUnits="userSpaceOnUse">
<stop stop-color="#92278F"/>
<stop offset="1" stop-color="#EA725B"/>
</linearGradient>
</defs>
</svg>
