<svg width="18" height="18" viewBox="0 0 18 18" fill="none" xmlns="http://www.w3.org/2000/svg">
<path d="M15.7425 13.4433C15.7425 13.8227 15.7441 14.2022 15.7425 14.5816C15.7379 15.3118 15.2801 15.7578 14.5471 15.7499C9.42475 15.6924 4.91637 12.5524 3.05799 7.74071C2.51897 6.34579 2.25848 4.89506 2.25003 3.40035C2.24608 2.7215 2.70109 2.25973 3.38276 2.25465C4.17663 2.24845 4.9705 2.24845 5.76437 2.25465C6.41954 2.25973 6.86497 2.68824 6.88921 3.34228C6.91909 4.13784 7.01551 4.92043 7.26077 5.68217C7.39778 6.10673 7.31659 6.48675 7.02678 6.84196C6.66255 7.28739 6.32594 7.75537 5.98821 8.22165C5.94818 8.27635 5.94367 8.397 5.97637 8.45903C6.7911 10.0169 7.98417 11.1992 9.533 12.0269C9.63675 12.0822 9.70441 12.0749 9.79519 12.0049C10.2513 11.6537 10.721 11.3193 11.1692 10.959C11.5205 10.6766 11.9005 10.614 12.3144 10.7448C13.0564 10.9799 13.8153 11.0904 14.5911 11.1113C15.319 11.1304 15.7396 11.5714 15.7425 12.3049C15.7436 12.6844 15.7425 13.0638 15.7425 13.4433Z" fill="white"/>
</svg>
