<svg width="342" height="83" viewBox="0 0 342 83" fill="none" xmlns="http://www.w3.org/2000/svg">
<path d="M138.099 33.9751C137.717 35.9939 137.105 37.615 136.264 38.8079C135.53 39.8784 134.459 40.7196 133.129 41.2854C131.783 41.8666 130.254 42.1572 128.587 42.1572C125.237 42.1572 122.5 40.9796 120.466 38.6549C119.365 37.4009 118.524 35.8409 117.942 33.9904C117.361 32.1552 117.071 30.0447 117.071 27.7506C117.071 25.0437 117.499 22.5967 118.325 20.4709C118.921 18.9568 119.686 17.5957 120.603 16.4181C121.521 15.2405 122.546 14.3076 123.616 13.6806C124.84 12.9618 126.308 12.5947 127.975 12.5947C129.091 12.5947 130.085 12.7782 130.972 13.13C131.86 13.4817 132.731 14.0629 133.557 14.8429C134.643 15.8675 135.484 17.0145 136.05 18.2533C136.371 18.9415 136.799 19.9968 137.304 21.3885C137.38 21.5873 137.503 21.8779 137.64 22.2755H137.931L137.671 12.7324H137.335C137.197 13.0382 137.09 13.2676 136.983 13.4053C136.539 13.9864 135.912 14.0476 135.025 13.7111L133.236 13.1147C131.278 12.4418 129.413 12.1206 127.669 12.1206C125.834 12.1206 123.983 12.4265 122.148 13.0382C120.328 13.65 118.738 14.4911 117.422 15.5311C115.725 16.8922 114.379 18.6968 113.431 20.9297C112.483 23.1626 111.993 25.6248 111.993 28.2706C111.993 31.7269 112.819 34.7398 114.455 37.2173C116.092 39.6949 118.386 41.4384 121.276 42.3866C123.096 42.983 125.023 43.2736 127.027 43.2736C129.168 43.2736 131.064 42.9371 132.685 42.2489C134.306 41.576 135.591 40.5819 136.493 39.3126C137.442 37.9973 138.069 36.208 138.344 33.9751L138.069 33.9292L138.099 33.9751Z" fill="white"/>
<path d="M170.216 17.7482C168.656 15.9742 166.806 14.5672 164.726 13.6037C162.646 12.6249 160.474 12.1355 158.257 12.1355C156.513 12.1355 154.755 12.4414 153.042 13.0531C151.329 13.6649 149.692 14.5672 148.209 15.6989C146.221 17.2436 144.676 19.0788 143.636 21.1434C142.596 23.208 142.076 25.4868 142.076 27.9185C142.076 29.769 142.413 31.5736 143.04 33.2865C143.682 34.9994 144.615 36.544 145.808 37.8899C147.322 39.6027 149.157 40.9639 151.237 41.8968C153.332 42.8297 155.55 43.3038 157.844 43.3038C160.138 43.3038 162.432 42.8144 164.558 41.8509C166.684 40.8874 168.549 39.4957 170.109 37.7369C171.379 36.3299 172.357 34.7394 173.015 33.0112C173.688 31.2983 174.009 29.4784 174.009 27.6279C174.009 23.9574 172.724 20.6234 170.186 17.7329L170.216 17.7482ZM165.491 39.0522C164.435 40.3827 163.304 41.3462 162.126 41.9274C160.948 42.5238 159.572 42.8144 158.027 42.8144C156.483 42.8144 155.122 42.5085 153.959 41.9121C152.782 41.3156 151.665 40.3521 150.625 39.0369C148.301 36.1158 147.138 32.4912 147.138 28.2396C147.138 25.8232 147.46 23.5292 148.087 21.434C148.714 19.3235 149.616 17.5188 150.778 16.0659C151.757 14.8425 152.828 13.9554 153.959 13.4049C155.106 12.8543 156.467 12.579 158.027 12.579C159.587 12.579 160.994 12.8543 162.141 13.4202C163.304 13.9707 164.359 14.8578 165.307 16.0812C166.469 17.5494 167.372 19.3541 168.014 21.4646C168.641 23.5598 168.978 25.8232 168.978 28.1784C168.978 32.4759 167.8 36.1311 165.491 39.0675V39.0522Z" fill="white"/>
<path d="M201.171 41.9438C200.819 41.7602 200.437 41.4391 200.07 40.965C199.611 40.3991 199.045 39.4968 198.388 38.258C197.73 37.0192 196.736 35.0617 195.436 32.4006C194.885 31.2383 194.457 30.4124 194.182 29.9689C193.907 29.5254 193.616 29.1431 193.28 28.8372C192.867 28.4548 192.224 28.0878 191.368 27.7207L191.016 27.5678L191.398 27.4913C192.454 27.2619 193.31 27.0172 193.922 26.7573C194.549 26.4973 195.13 26.1608 195.635 25.7632C197.317 24.4173 198.173 22.6127 198.173 20.3798C198.173 18.8811 197.776 17.5352 197.011 16.4035C196.231 15.2718 195.115 14.4 193.708 13.8189C192.438 13.3142 190.664 13.0083 188.431 12.9166C187.866 12.9166 186.703 12.886 184.945 12.886H174.499V13.146C175.279 13.1919 175.937 13.3142 176.457 13.4977C177.007 13.6965 177.481 14.0177 177.879 14.4459C178.353 14.92 178.689 15.5471 178.858 16.2812C179.026 17 179.102 18.1317 179.102 19.6457V35.7957C179.102 37.3098 179.026 38.4262 178.858 39.1603C178.689 39.8944 178.368 40.5062 177.879 40.9956C177.481 41.4238 177.007 41.7297 176.472 41.9285C175.967 42.1273 175.31 42.2496 174.499 42.2955V42.5555H188.263V42.2955C187.453 42.2496 186.795 42.1273 186.29 41.9285C185.755 41.7297 185.281 41.4085 184.883 40.9956C184.409 40.5215 184.088 39.8944 183.92 39.1603C183.752 38.4262 183.66 37.3098 183.66 35.811V27.9348H184.853C185.51 27.9348 186.092 27.996 186.55 28.1337C187.024 28.256 187.453 28.4701 187.866 28.776C188.646 29.3724 189.533 30.4736 190.466 32.0794C191.398 33.6852 192.331 35.5511 193.249 37.631L194.778 41.1179C194.87 41.332 195.099 41.8214 195.451 42.5708H202.517V42.2955C201.951 42.2343 201.507 42.112 201.171 41.9438ZM184.608 27.5678H183.767V13.4519H184.669C186.229 13.4519 187.437 13.5436 188.294 13.7577C189.135 13.9565 189.869 14.3083 190.481 14.7977C191.276 15.4553 191.888 16.2964 192.331 17.3058C192.775 18.3152 193.004 19.4011 193.004 20.5634C193.004 22.735 192.24 24.5397 190.71 25.9926C190.022 26.6349 189.288 27.0631 188.508 27.2619C187.728 27.4608 186.428 27.5678 184.623 27.5678H184.608Z" fill="white"/>
<path d="M234.08 21.2361C232.949 18.9115 231.358 17.0304 229.339 15.5928C227.214 14.094 224.598 13.2223 221.555 12.9929C220.821 12.9317 219.108 12.9011 216.462 12.9011H204.533V13.1611C205.879 13.2529 206.934 13.5893 207.653 14.1858C208.234 14.6752 208.647 15.3175 208.846 16.0822C209.045 16.8316 209.152 18.0245 209.152 19.6456V35.7956C209.152 37.2943 209.075 38.4108 208.892 39.1449C208.724 39.879 208.402 40.506 207.928 40.9801C207.5 41.4236 207.026 41.7295 206.506 41.9283C206.017 42.1118 205.359 42.2342 204.548 42.2801V42.54H220.622C222.488 42.54 224.354 42.3718 226.143 42.0354C228.529 41.5918 230.548 40.5366 232.153 38.9002C233.285 37.7379 234.187 36.2544 234.83 34.4803C235.472 32.7063 235.793 30.8099 235.793 28.8064C235.793 26.0689 235.227 23.5149 234.096 21.2055L234.08 21.2361ZM229.936 33.9757C229.416 35.6427 228.651 37.1414 227.642 38.4261C226.632 39.7566 225.455 40.7507 224.17 41.3471C222.885 41.9436 221.31 42.2495 219.506 42.2495C217.38 42.2495 215.805 41.653 214.856 40.4907C214.413 39.9554 214.107 39.2978 213.939 38.5331C213.771 37.7838 213.694 36.6826 213.694 35.245V13.3293H216.462C218.359 13.3293 219.949 13.4976 221.188 13.834C223.451 14.4611 225.424 15.7763 227.061 17.7339C228.238 19.1409 229.141 20.8079 229.783 22.6737C230.41 24.5548 230.731 26.5583 230.731 28.6229C230.731 30.504 230.471 32.2934 229.951 33.9604L229.936 33.9757Z" fill="white"/>
<path d="M262.144 34.0674C261.869 35.3368 261.563 36.392 261.257 37.172C260.921 37.9826 260.493 38.7167 259.957 39.359C259.208 40.3072 258.214 41.0107 257.006 41.4695C255.813 41.913 254.314 42.1424 252.555 42.1424C250.796 42.1424 249.512 41.8977 248.487 41.393C247.447 40.8883 246.667 40.0931 246.163 39.0225C245.872 38.3955 245.658 37.6155 245.566 36.6979C245.459 35.7956 245.413 34.3121 245.413 32.3086V27.17H246.79C247.875 27.17 248.793 27.2771 249.497 27.5065C250.215 27.7359 250.812 28.0876 251.255 28.5617C251.714 29.0511 252.081 29.6629 252.341 30.3664C252.586 31.0393 252.785 31.9263 252.922 32.9969H253.198L253.289 21.4808H253.014C252.892 22.5514 252.723 23.3772 252.54 23.9431C252.341 24.5395 252.02 25.0595 251.607 25.4877C251.164 25.9618 250.598 26.283 249.909 26.4665C249.237 26.65 248.212 26.7265 246.881 26.7265H245.444V13.3293H250.582C252.127 13.3293 253.396 13.4364 254.329 13.6505C255.277 13.8646 256.119 14.2317 256.807 14.7516C257.648 15.3634 258.306 16.0975 258.749 16.9233C259.177 17.7186 259.499 18.7127 259.682 19.9056H259.957L259.59 12.9011H236.268V13.1611C237.063 13.207 237.736 13.3293 238.24 13.5129C238.776 13.7117 239.25 14.0328 239.663 14.4611C240.122 14.9352 240.443 15.5622 240.626 16.2963C240.794 17.0304 240.886 18.1468 240.886 19.6456V35.7956C240.886 37.2791 240.81 38.4108 240.626 39.1449C240.458 39.879 240.137 40.506 239.663 40.9801C239.25 41.4236 238.76 41.7295 238.225 41.9283C237.72 42.1118 237.063 42.2342 236.283 42.2801V42.54H262.19L262.465 34.0674H262.19H262.144Z" fill="white"/>
<path d="M291.081 33.7921C290.806 35.1074 290.5 36.1779 290.194 36.9885C289.858 37.8296 289.429 38.5943 288.925 39.2519C288.16 40.2307 287.151 40.9648 285.942 41.4236C284.75 41.8824 283.251 42.1271 281.507 42.1271C279.764 42.1271 278.464 41.8824 277.439 41.3777C276.415 40.8731 275.619 40.0778 275.099 39.0072C274.809 38.4108 274.595 37.6002 274.503 36.652C274.396 35.7038 274.35 34.2356 274.35 32.3086V19.6609C274.35 18.1315 274.442 16.9692 274.61 16.2351C274.793 15.4857 275.145 14.8434 275.65 14.354C276.063 13.9717 276.522 13.6811 277.057 13.4976C277.546 13.3293 278.189 13.2223 278.953 13.1611V12.9011H265.189V13.1611C265.939 13.1917 266.566 13.2988 267.04 13.467C267.56 13.6505 268.034 13.9411 268.447 14.3234C268.951 14.8128 269.318 15.4399 269.502 16.1892C269.685 16.9386 269.777 18.1009 269.777 19.6456V35.7956C269.777 37.2791 269.701 38.4108 269.517 39.1449C269.349 39.879 269.028 40.506 268.554 40.9801C267.758 41.8059 266.611 42.2495 265.174 42.2648V42.54H291.096L291.372 33.7921L291.066 33.7616L291.081 33.7921Z" fill="white"/>
<path d="M303.316 16.9692C303.454 15.914 303.821 15.0728 304.402 14.4611C304.83 14.0328 305.304 13.7117 305.84 13.5129C306.344 13.3293 307.002 13.207 307.782 13.1611V12.9011H294.018V13.1611C294.813 13.207 295.47 13.3293 295.975 13.5129C296.526 13.7117 297 14.0328 297.397 14.4611C297.872 14.9352 298.208 15.5622 298.376 16.2963C298.544 17.0151 298.621 18.1468 298.621 19.6609V35.8109C298.621 37.325 298.544 38.4414 298.376 39.1755C298.208 39.9096 297.887 40.5213 297.397 41.0107C297 41.4389 296.526 41.7448 295.99 41.9436C295.486 42.1424 294.828 42.2648 294.018 42.3107V42.5706H307.782V42.3107C306.834 42.2495 306.054 42.066 305.457 41.7907C304.845 41.5001 304.325 41.0413 303.943 40.4448C303.668 40.0013 303.469 39.4202 303.347 38.7167C303.224 38.0132 303.163 37.0344 303.163 35.8262V19.6762C303.163 18.6668 303.209 17.7645 303.301 16.9845L303.316 16.9692Z" fill="white"/>
<path d="M339.469 41.9438C339.01 41.8061 338.598 41.592 338.23 41.3167C337.726 40.9344 337.252 40.3532 336.823 39.5886C336.395 38.8392 335.829 37.5851 335.111 35.8416L325.613 12.886H324.527L316.544 33.4711C315.81 35.3522 315.214 36.7745 314.77 37.7227C314.311 38.6709 313.853 39.4509 313.378 40.0627C312.813 40.812 312.231 41.3779 311.635 41.7144C311.069 42.0508 310.396 42.2343 309.662 42.2955V42.5555H319.236V42.2802C318.379 42.2037 317.661 41.959 317.095 41.5614C316.667 41.2555 316.33 40.8579 316.085 40.3838C315.841 39.9097 315.718 39.3744 315.718 38.8239C315.718 37.891 316.055 36.6063 316.712 34.9852L317.263 33.6241L318.425 30.5195H328.228L330.737 36.6828C331.15 37.7074 331.348 38.5333 331.348 39.145C331.348 40.185 330.874 41.0261 329.941 41.6073C329.421 41.9285 328.55 42.1579 327.28 42.2649V42.5402H341.442V42.2649C340.586 42.1732 339.928 42.0508 339.485 41.9132L339.469 41.9438ZM318.838 29.7548L323.182 18.407L327.785 29.7548H318.838Z" fill="white"/>
<path d="M166.068 68.6005C165.713 69.1077 165.223 69.4965 164.597 69.767C163.972 70.0375 163.262 70.1728 162.467 70.1728C160.912 70.1728 159.627 69.6149 158.68 68.5329C158.173 67.9581 157.767 67.2143 157.514 66.369C157.243 65.5068 157.108 64.5432 157.108 63.4782C157.108 62.2271 157.311 61.0945 157.7 60.114C157.97 59.4208 158.325 58.7784 158.765 58.2374C159.187 57.6795 159.661 57.2569 160.168 56.9695C160.743 56.6314 161.436 56.4623 162.213 56.4623C162.738 56.4623 163.211 56.5469 163.617 56.7159C164.039 56.885 164.445 57.1554 164.834 57.5274C165.341 58.0007 165.73 58.5417 166 59.1165C166.152 59.4377 166.355 59.928 166.575 60.5704C166.609 60.6549 166.643 60.7733 166.71 60.9254L166.592 56.699H166.575C166.524 56.8174 166.474 56.9188 166.423 56.9695C166.203 57.2569 165.882 57.3076 165.426 57.1385L164.614 56.8681C163.718 56.5638 162.873 56.4116 162.078 56.4116C161.25 56.4116 160.405 56.5469 159.576 56.8343C158.748 57.1048 158.021 57.4936 157.429 57.9669C156.651 58.5755 156.043 59.4039 155.62 60.4182C155.181 61.4326 154.961 62.5652 154.961 63.7655C154.961 65.3378 155.333 66.7071 156.077 67.8398C156.821 68.9556 157.852 69.7501 159.17 70.1897C159.999 70.4602 160.878 70.5954 161.791 70.5954C162.754 70.5954 163.634 70.4433 164.36 70.139C165.087 69.8347 165.662 69.3782 166.085 68.8203C166.44 68.3301 166.677 67.7046 166.829 66.9438C166.643 67.6369 166.406 68.2117 166.085 68.6513L166.068 68.6005Z" fill="white"/>
<path fill-rule="evenodd" clip-rule="evenodd" d="M166.104 68.6253C166.115 68.6095 166.126 68.5936 166.137 68.5774C166.144 68.568 166.15 68.5586 166.157 68.5492C166.442 68.124 166.657 67.5844 166.829 66.9437C166.688 67.6476 166.475 68.2356 166.163 68.7079C166.138 68.7461 166.112 68.7836 166.085 68.8202C166.074 68.8351 166.063 68.85 166.051 68.8648C165.632 69.4024 165.068 69.8427 164.361 70.1389C163.634 70.4432 162.755 70.5953 161.791 70.5953C160.878 70.5953 159.999 70.4601 159.171 70.1896C157.852 69.75 156.821 68.9555 156.077 67.8397C155.333 66.707 154.961 65.3377 154.961 63.7654C154.961 62.5651 155.181 61.4325 155.621 60.4181C156.043 59.4038 156.652 58.5754 157.43 57.9668C158.021 57.4935 158.748 57.1047 159.577 56.8342C160.128 56.643 160.686 56.5191 161.242 56.4576C161.522 56.4267 161.801 56.4115 162.079 56.4115C162.124 56.4115 162.169 56.412 162.214 56.413C162.626 56.4218 163.052 56.4711 163.491 56.5607C163.856 56.6352 164.231 56.7376 164.614 56.868L165.426 57.1385C165.882 57.3075 166.204 57.2568 166.423 56.9694C166.448 56.9449 166.472 56.9084 166.497 56.864C166.523 56.8167 166.549 56.7603 166.575 56.6994C166.575 56.6992 166.575 56.6996 166.575 56.6994L166.592 56.6989L166.711 60.9253C166.667 60.8265 166.637 60.742 166.613 60.6717C166.609 60.6623 166.606 60.6531 166.603 60.6441C166.593 60.6172 166.584 60.5925 166.575 60.5703C166.356 59.9279 166.153 59.4376 166.001 59.1164C165.73 58.5416 165.341 58.0006 164.834 57.5273C164.445 57.1554 164.04 56.8849 163.617 56.7158C163.567 56.695 163.516 56.6755 163.464 56.6573C163.094 56.5273 162.673 56.4622 162.214 56.4622C162.168 56.4622 162.123 56.4628 162.079 56.464C161.792 56.4713 161.518 56.5022 161.258 56.5565C160.86 56.6394 160.495 56.7771 160.168 56.9694C159.661 57.2568 159.188 57.6794 158.765 58.2373C158.326 58.7783 157.971 59.4207 157.7 60.1139C157.311 61.0944 157.108 62.227 157.108 63.4781C157.108 64.5431 157.244 65.5067 157.514 66.3689C157.768 67.2142 158.173 67.958 158.681 68.5328C159.627 69.6148 160.912 70.1727 162.467 70.1727C163.262 70.1727 163.972 70.0374 164.598 69.7669C165.182 69.5144 165.648 69.1586 165.996 68.6997C166.002 68.6914 166.009 68.683 166.015 68.6746C166.027 68.6585 166.039 68.6422 166.05 68.6257C166.056 68.6173 166.062 68.6089 166.068 68.6004L166.085 68.6512C166.091 68.6426 166.098 68.634 166.104 68.6253ZM166.116 68.4281L166.1 68.3803L165.986 68.5431C165.643 69.0336 165.168 69.4112 164.558 69.6752C163.947 69.9394 163.251 70.0727 162.467 70.0727C160.938 70.0727 159.682 69.5254 158.756 68.467C158.259 67.9042 157.86 67.1732 157.61 66.3402L157.609 66.339C157.343 65.488 157.208 64.5347 157.208 63.4781C157.208 62.2377 157.409 61.1178 157.793 60.1507C158.06 59.4654 158.411 58.8319 158.843 58.3004L158.845 58.2977C159.26 57.7491 159.724 57.3362 160.218 57.0564L160.219 57.0556C160.776 56.7281 161.451 56.5622 162.214 56.5622C162.727 56.5622 163.187 56.6451 163.579 56.8081L163.58 56.8087C163.989 56.9722 164.384 57.2349 164.765 57.5995L164.766 57.6004C165.264 58.0651 165.645 58.5958 165.91 59.159C166.06 59.4762 166.262 59.9631 166.481 60.6027L166.483 60.6074C166.494 60.635 166.504 60.6657 166.517 60.7024C166.523 60.719 166.529 60.7368 166.536 60.7561C166.558 60.8165 166.584 60.8867 166.619 60.9659L166.811 60.9225L166.69 56.5989H166.51L166.484 56.6595C166.459 56.7175 166.435 56.7692 166.412 56.8116C166.388 56.8553 166.368 56.8835 166.353 56.8987L166.344 56.9087C166.248 57.0341 166.134 57.1035 165.997 57.1265C165.856 57.15 165.68 57.1259 165.461 57.0447L164.647 56.7733C164.647 56.7733 164.646 56.7732 164.647 56.7733C163.742 56.4662 162.886 56.3115 162.079 56.3115C161.24 56.3115 160.384 56.4485 159.545 56.7394C158.707 57.0132 157.969 57.4072 157.367 57.8884C156.575 58.5087 155.957 59.3514 155.529 60.379C155.083 61.407 154.861 62.5532 154.861 63.7654C154.861 65.3537 155.237 66.743 155.994 67.8946C156.75 69.029 157.8 69.8379 159.139 70.2844C159.978 70.5584 160.868 70.6953 161.791 70.6953C162.765 70.6953 163.658 70.5417 164.399 70.2311C165.142 69.9201 165.731 69.4528 166.165 68.8806L166.166 68.8789C166.532 68.3731 166.773 67.7325 166.927 66.9633L166.732 66.9178C166.571 67.52 166.372 68.0258 166.116 68.4281Z" fill="white"/>
<path d="M190.733 70.0724C190.564 69.9879 190.378 69.8357 190.209 69.599C189.989 69.3454 189.736 68.9228 189.431 68.348C189.127 67.7732 188.671 66.8772 188.079 65.6431C187.825 65.119 187.639 64.7302 187.504 64.5273C187.386 64.3245 187.25 64.1554 187.115 64.0202C186.929 63.8511 186.642 63.6821 186.253 63.513L185.864 63.344L186.287 63.2594C186.76 63.158 187.149 63.0397 187.436 62.9213C187.724 62.803 187.977 62.6508 188.214 62.4818C188.975 61.8732 189.347 61.0786 189.347 60.0643C189.347 59.388 189.178 58.7964 188.823 58.2892C188.468 57.782 187.977 57.3932 187.335 57.1396C186.76 56.9198 185.949 56.7677 184.934 56.7339C184.681 56.7339 184.157 56.7339 183.345 56.7339H178.916C179.136 56.7677 179.305 56.8015 179.474 56.8691C179.727 56.9536 179.964 57.1227 180.167 57.3256C180.387 57.5622 180.556 57.8496 180.64 58.2047C180.708 58.5428 180.759 59.0668 180.759 59.76V67.1815C180.759 67.8747 180.725 68.3987 180.64 68.7368C180.556 69.0919 180.404 69.3793 180.167 69.6159C179.981 69.8188 179.744 69.971 179.491 70.0724C179.339 70.14 179.153 70.1738 178.933 70.2076H184.512C184.292 70.1738 184.106 70.14 183.954 70.0724C183.7 69.971 183.464 69.8188 183.278 69.6159C183.058 69.3793 182.906 69.0919 182.821 68.7368C182.737 68.3818 182.703 67.8916 182.703 67.1815V56.7846H183.244C183.971 56.7846 184.529 56.8353 184.934 56.9198C185.34 57.0213 185.695 57.1903 185.999 57.427C186.371 57.7482 186.676 58.1539 186.895 58.6273C187.115 59.1176 187.217 59.6247 187.217 60.1826C187.217 61.2139 186.845 62.076 186.118 62.7692C185.78 63.0735 185.425 63.2932 185.036 63.3947C184.765 63.4623 184.393 63.513 183.886 63.5299C183.971 63.5299 184.055 63.5637 184.14 63.5806C184.36 63.6483 184.579 63.7497 184.765 63.8849C185.137 64.1723 185.543 64.6795 185.983 65.4234C186.422 66.1672 186.845 67.0294 187.267 67.993L187.977 69.599C188.028 69.6836 188.113 69.9033 188.265 70.2245H191.223C191.054 70.1907 190.919 70.14 190.801 70.0893L190.733 70.0724Z" fill="white"/>
<path fill-rule="evenodd" clip-rule="evenodd" d="M188.264 70.2247C188.192 70.0729 188.136 69.9437 188.09 69.8407C188.04 69.7259 188.004 69.6437 187.977 69.5992L187.267 67.9931C186.844 67.0295 186.422 66.1674 185.982 65.4235C185.543 64.6797 185.137 64.1725 184.765 63.8851C184.606 63.7693 184.422 63.6783 184.234 63.6121C184.203 63.601 184.171 63.5905 184.139 63.5808C184.111 63.5751 184.083 63.5676 184.055 63.5601C183.999 63.5451 183.942 63.5301 183.886 63.5301C183.979 63.527 184.068 63.5227 184.152 63.5174C184.154 63.5173 184.157 63.5171 184.159 63.517C184.189 63.5151 184.219 63.513 184.248 63.5108C184.576 63.4862 184.834 63.4452 185.035 63.3948C185.424 63.2934 185.779 63.0736 186.117 62.7693C186.844 62.0762 187.216 61.214 187.216 60.1828C187.216 59.6249 187.115 59.1177 186.895 58.6275C186.675 58.1541 186.371 57.7483 185.999 57.4271C185.695 57.1905 185.34 57.0214 184.934 56.92C184.767 56.8852 184.575 56.8562 184.355 56.834C184.066 56.8049 183.73 56.7876 183.345 56.7851C183.311 56.7849 183.278 56.7847 183.243 56.7847H182.702V67.1817C182.702 67.8917 182.736 68.382 182.821 68.737C182.905 69.092 183.057 69.3794 183.277 69.6161C183.463 69.819 183.7 69.9711 183.953 70.0726C183.982 70.0854 184.013 70.0971 184.044 70.1078C184.178 70.1531 184.333 70.1804 184.511 70.2078H178.933C179.11 70.1804 179.266 70.1531 179.4 70.1078C179.431 70.0971 179.461 70.0854 179.49 70.0726C179.744 69.9711 179.981 69.819 180.167 69.6161C180.403 69.3794 180.555 69.092 180.64 68.737C180.724 68.3989 180.758 67.8748 180.758 67.1817V59.7601C180.758 59.067 180.708 58.5429 180.64 58.2048C180.555 57.8498 180.386 57.5624 180.167 57.3257C179.964 57.1228 179.727 56.9538 179.473 56.8693C179.441 56.8564 179.409 56.8447 179.376 56.834C179.238 56.7887 179.093 56.7614 178.916 56.734H184.934C185.948 56.7678 186.76 56.92 187.335 57.1398C187.977 57.3933 188.467 57.7822 188.822 58.2893C189.177 58.7965 189.346 59.3882 189.346 60.0644C189.346 61.0787 188.974 61.8733 188.214 62.4819C187.977 62.651 187.723 62.8031 187.436 62.9215C187.149 63.0398 186.76 63.1581 186.286 63.2596L185.864 63.3441L186.253 63.5132C186.641 63.6822 186.929 63.8513 187.115 64.0203C187.25 64.1556 187.385 64.3246 187.504 64.5275C187.632 64.7195 187.805 65.0782 188.038 65.5604C188.052 65.5876 188.065 65.6153 188.078 65.6433C188.67 66.8774 189.127 67.7734 189.431 68.3482C189.735 68.923 189.989 69.3456 190.209 69.5992C190.378 69.8358 190.564 69.988 190.733 70.0726L190.8 70.0894C190.828 70.1013 190.856 70.1131 190.886 70.1247C190.983 70.1629 191.093 70.1988 191.223 70.2247H188.264ZM190.768 69.9783C190.617 69.9009 190.447 69.7615 190.29 69.541L190.284 69.5337C190.073 69.2897 189.824 68.8764 189.519 68.3014C189.216 67.7279 188.76 66.8331 188.169 65.6C188.154 65.5698 188.139 65.5397 188.125 65.5103C187.896 65.0364 187.72 64.6731 187.589 64.4745C187.466 64.2651 187.326 64.0901 187.186 63.9496L187.182 63.9463C186.984 63.7666 186.685 63.5923 186.293 63.4215L186.196 63.3796L186.306 63.3576L186.307 63.3574C186.785 63.255 187.18 63.1351 187.474 63.0139C187.77 62.8919 188.031 62.7355 188.272 62.5633L188.276 62.56C189.062 61.9315 189.446 61.1076 189.446 60.0644C189.446 59.3706 189.273 58.7582 188.904 58.232C188.537 57.708 188.031 57.3072 187.371 57.0467L187.37 57.0463C186.782 56.8214 185.959 56.6681 184.937 56.6341L178.916 56.634L178.9 56.8329C179.119 56.8664 179.278 56.8989 179.436 56.9621L179.442 56.9641C179.676 57.042 179.899 57.1998 180.095 57.3951C180.303 57.6198 180.462 57.8911 180.542 58.2262C180.608 58.5558 180.658 59.0723 180.658 59.7601V67.1817C180.658 67.8746 180.624 68.3877 180.543 68.7127L180.543 68.7138C180.462 69.0533 180.318 69.3234 180.096 69.5454L180.093 69.5485C179.919 69.7387 179.695 69.883 179.453 69.9797L179.45 69.9812C179.312 70.0426 179.138 70.0749 178.917 70.1089L178.933 70.3078H184.511L184.527 70.1089C184.305 70.0749 184.132 70.0426 183.994 69.9812L183.991 69.9797C183.749 69.883 183.525 69.7387 183.351 69.5485C183.144 69.3255 182.999 69.0535 182.918 68.7138C182.836 68.371 182.802 67.8907 182.802 67.1817V56.8847H183.243C183.965 56.8847 184.515 56.9351 184.912 57.0175C185.303 57.1156 185.644 57.2783 185.936 57.5045C186.295 57.8156 186.59 58.209 186.804 58.6689C187.017 59.1451 187.116 59.638 187.116 60.1828C187.116 61.1864 186.756 62.022 186.049 62.696C185.72 62.9926 185.379 63.2018 185.011 63.2979C184.749 63.3633 184.385 63.4134 183.883 63.4301L183.886 63.6301C183.916 63.6301 183.948 63.6361 183.988 63.6461C183.999 63.6488 184.012 63.6521 184.025 63.6556C184.053 63.6631 184.085 63.6716 184.115 63.6778C184.324 63.7427 184.531 63.8389 184.705 63.9651C185.062 64.2412 185.459 64.7353 185.896 65.4744C186.333 66.2135 186.754 67.0718 187.175 68.0333L187.886 69.6396L187.891 69.6506C187.913 69.6861 187.943 69.7547 187.991 69.8635L187.999 69.8811C188.044 69.984 188.101 70.1144 188.174 70.2675L188.201 70.3247H191.223L191.242 70.1266C191.083 70.0947 190.954 70.0467 190.84 69.9975L190.832 69.9944L190.768 69.9783Z" fill="white"/>
<path d="M212.575 56.7339C212.795 56.7677 212.964 56.8015 213.133 56.8691C213.387 56.9536 213.623 57.1227 213.826 57.3256C214.046 57.5622 214.198 57.8496 214.283 58.2047C214.367 58.5428 214.401 59.0668 214.401 59.76V65.3895C214.401 66.4208 214.401 67.0801 214.367 67.3506C214.317 67.7901 214.232 68.1621 214.114 68.4495C213.978 68.7369 213.776 69.0073 213.505 69.2609C213.066 69.6497 212.525 69.9541 211.865 70.1738C211.223 70.3936 210.53 70.495 209.82 70.495C209.11 70.495 208.467 70.3767 207.977 70.1231C207.487 69.8695 207.064 69.4638 206.726 68.9228C206.506 68.5678 206.354 68.1621 206.286 67.7394C206.219 67.3168 206.185 66.6406 206.185 65.7108V60.0136C206.185 59.1852 206.219 58.6104 206.286 58.2554C206.354 57.9004 206.523 57.596 206.76 57.3425C206.946 57.1396 207.182 56.9706 207.436 56.886C207.588 56.8353 207.774 56.7846 207.994 56.7508H202.415C202.635 56.7846 202.821 56.8184 202.973 56.886C203.227 56.9706 203.463 57.1396 203.649 57.3425C203.869 57.5791 204.038 57.8665 204.123 58.2216C204.19 58.5597 204.241 59.0837 204.241 59.7769V65.8967C204.241 66.6575 204.258 67.1815 204.308 67.4858C204.41 68.2804 204.748 68.9228 205.306 69.4131C206.168 70.1907 207.554 70.5796 209.414 70.5796C211.274 70.5796 212.575 70.1569 213.522 69.3455C213.928 68.9904 214.198 68.6016 214.333 68.179C214.469 67.7394 214.553 67.0632 214.553 66.1334V59.7769C214.553 59.0668 214.587 58.5597 214.672 58.2216C214.756 57.8665 214.908 57.5622 215.128 57.3425C215.331 57.1396 215.568 56.9706 215.821 56.886C215.973 56.8353 216.159 56.7846 216.362 56.7508H212.575V56.7339Z" fill="white"/>
<path fill-rule="evenodd" clip-rule="evenodd" d="M212.475 56.6174L212.59 56.6352C212.624 56.6403 212.656 56.6455 212.688 56.6509H216.362L216.378 56.8495C216.181 56.8823 216.001 56.9316 215.852 56.981C215.618 57.0591 215.394 57.2173 215.198 57.4133C214.995 57.6168 214.85 57.9029 214.768 58.2448L214.768 58.2459C214.687 58.571 214.653 59.0673 214.653 59.777V66.1335C214.653 67.0675 214.568 67.7551 214.429 68.2085L214.428 68.2095C214.286 68.6529 214.004 69.0564 213.587 69.4208L213.587 69.4215C212.616 70.2534 211.288 70.6797 209.414 70.6797C207.544 70.6797 206.128 70.2895 205.239 69.4879C204.663 68.9811 204.314 68.3168 204.209 67.5005C204.157 67.1863 204.14 66.6544 204.14 65.8968V59.777C204.14 59.0891 204.09 58.5727 204.024 58.2431C203.944 57.9073 203.784 57.6355 203.575 57.4106C203.398 57.2176 203.175 57.0591 202.941 56.981L202.932 56.9779C202.793 56.9165 202.621 56.8837 202.399 56.8497L202.415 56.6509H207.993L208.009 56.8497C207.795 56.8825 207.615 56.9317 207.467 56.981C207.233 57.0591 207.01 57.2171 206.833 57.4101C206.608 57.6516 206.448 57.9399 206.384 58.2742C206.319 58.6192 206.285 59.1858 206.285 60.0137V65.7109C206.285 66.64 206.318 67.3095 206.385 67.7237C206.45 68.1332 206.598 68.5263 206.81 68.87C207.141 69.3982 207.551 69.7903 208.023 70.0344C208.494 70.2781 209.119 70.3952 209.819 70.3952C210.52 70.3952 211.202 70.295 211.832 70.0793C212.48 69.8634 213.009 69.5653 213.437 69.1871C213.699 68.9417 213.893 68.6823 214.022 68.4092C214.135 68.1336 214.218 67.7724 214.268 67.3392C214.3 67.0768 214.301 66.4259 214.301 65.3897V59.7601C214.301 59.0672 214.267 58.5541 214.185 58.229L214.185 58.2279C214.104 57.889 213.96 57.6179 213.754 57.3951C213.558 57.1997 213.335 57.042 213.101 56.9641L213.096 56.9622C212.966 56.9103 212.835 56.879 212.671 56.8509H212.475V56.6174ZM213.085 56.8509C213.101 56.8567 213.117 56.8628 213.133 56.8692C213.386 56.9537 213.623 57.1228 213.826 57.3257C214.046 57.5624 214.198 57.8498 214.282 58.2048C214.367 58.5429 214.401 59.067 214.401 59.7601V65.3897C214.401 66.4209 214.401 67.0802 214.367 67.3507C214.316 67.7903 214.232 68.1622 214.113 68.4496C214.107 68.462 214.101 68.4745 214.095 68.4869C213.96 68.7604 213.763 69.0184 213.505 69.261C213.494 69.2703 213.484 69.2796 213.473 69.2888C213.473 69.2886 213.473 69.289 213.473 69.2888C213.039 69.6641 212.508 69.9595 211.865 70.1739C211.222 70.3937 210.529 70.4952 209.819 70.4952C209.681 70.4952 209.546 70.4907 209.414 70.4816C209.404 70.481 209.395 70.4803 209.386 70.4796C208.848 70.4401 208.365 70.324 207.977 70.1232C207.486 69.8696 207.064 69.4639 206.726 68.9229C206.506 68.5679 206.354 68.1622 206.286 67.7395C206.218 67.3169 206.185 66.6407 206.185 65.7109V60.0137C206.185 59.1853 206.218 58.6105 206.286 58.2555C206.354 57.9005 206.523 57.5962 206.759 57.3426C206.945 57.1397 207.182 56.9707 207.436 56.8861C207.471 56.8743 207.508 56.8625 207.547 56.8509C207.676 56.8127 207.825 56.7768 207.993 56.7509H202.415C202.592 56.7782 202.748 56.8056 202.882 56.8509C202.913 56.8616 202.943 56.8732 202.973 56.8861C203.226 56.9707 203.463 57.1397 203.649 57.3426C203.869 57.5792 204.038 57.8667 204.122 58.2217C204.19 58.5598 204.24 59.0839 204.24 59.777V65.8968C204.24 66.6576 204.257 67.1816 204.308 67.4859C204.409 68.2805 204.748 68.9229 205.305 69.4132C206.163 70.1864 207.538 70.5752 209.382 70.5796C209.392 70.5796 209.403 70.5797 209.414 70.5797C209.552 70.5797 209.687 70.5773 209.819 70.5727C210.61 70.5448 211.294 70.4337 211.888 70.2425C211.888 70.2425 211.888 70.2424 211.888 70.2425C212.529 70.0359 213.067 69.7355 213.522 69.3456C213.533 69.336 213.543 69.3264 213.554 69.3168C213.555 69.3163 213.555 69.3159 213.556 69.3154C213.829 69.0704 214.039 68.8094 214.184 68.5325C214.245 68.4174 214.294 68.2996 214.333 68.1791C214.468 67.7395 214.553 67.0633 214.553 66.1335V59.777C214.553 59.0669 214.587 58.5598 214.671 58.2217C214.756 57.8667 214.908 57.5623 215.128 57.3426C215.331 57.1397 215.567 56.9707 215.821 56.8861C215.856 56.8743 215.894 56.8625 215.932 56.8509C216.061 56.8127 216.206 56.7768 216.362 56.7509H212.68C212.678 56.7506 212.677 56.7503 212.675 56.7501C212.643 56.7446 212.609 56.7393 212.575 56.734V56.7509H212.68C212.831 56.7766 212.959 56.8054 213.085 56.8509Z" fill="white"/>
<path d="M230.108 68.7381C230.023 69.0932 229.871 69.3806 229.635 69.6172C229.432 69.8201 229.212 69.9723 228.958 70.0737C228.806 70.1413 228.62 70.1751 228.4 70.2089H233.996C233.709 70.1582 233.455 70.0906 233.252 69.9892C232.948 69.8539 232.711 69.6341 232.525 69.3467C232.39 69.127 232.306 68.8565 232.238 68.5184C232.17 68.1803 232.153 67.7576 232.153 67.1828V59.7613C232.153 59.2879 232.153 58.8822 232.221 58.5103C232.289 58.0031 232.458 57.5974 232.745 57.31C232.948 57.1071 233.168 56.938 233.438 56.8535C233.59 56.8028 233.776 56.7521 233.979 56.7183H228.4C228.62 56.7521 228.789 56.7859 228.958 56.8535C229.212 56.938 229.449 57.1071 229.635 57.31C229.854 57.5466 230.023 57.834 230.108 58.189C230.175 58.5272 230.226 59.0512 230.226 59.7444V67.1659C230.226 67.8591 230.192 68.3831 230.108 68.7212V68.7381Z" fill="white"/>
<path fill-rule="evenodd" clip-rule="evenodd" d="M228.958 70.0738C229.211 69.9724 229.431 69.8203 229.634 69.6174C229.871 69.3807 230.023 69.0933 230.107 68.7383V68.7214C230.192 68.3833 230.226 67.8592 230.226 67.1661V59.7445C230.226 59.0514 230.175 58.5273 230.107 58.1892C230.023 57.8342 229.854 57.5468 229.634 57.3101C229.448 57.1072 229.211 56.9382 228.958 56.8537C228.926 56.8408 228.893 56.8291 228.861 56.8184C228.722 56.7731 228.578 56.7458 228.4 56.7184H233.979C233.823 56.7443 233.678 56.7802 233.55 56.8184C233.511 56.83 233.473 56.8418 233.438 56.8537C233.167 56.9382 232.948 57.1072 232.745 57.3101C232.457 57.5975 232.288 58.0032 232.221 58.5104C232.153 58.8823 232.153 59.2881 232.153 59.7614V67.183C232.153 67.7578 232.17 68.1804 232.238 68.5185C232.305 68.8566 232.39 69.1271 232.525 69.3469C232.711 69.6343 232.948 69.8541 233.252 69.9893C233.345 70.0358 233.448 70.0752 233.561 70.1091C233.694 70.1492 233.84 70.1816 233.996 70.2091H228.4C228.578 70.1817 228.734 70.1544 228.867 70.1091C228.899 70.0984 228.929 70.0867 228.958 70.0738ZM232.61 69.2935C232.787 69.5669 233.009 69.7719 233.292 69.8979L233.297 69.8998C233.487 69.9949 233.729 70.0605 234.013 70.1106L233.996 70.3091H228.4L228.385 70.1102C228.606 70.0762 228.779 70.0439 228.917 69.9825L228.921 69.9809C229.16 69.8852 229.369 69.7413 229.563 69.5467C229.783 69.3272 229.926 69.0606 230.007 68.7264V68.7091L230.01 68.6971C230.092 68.3721 230.126 67.859 230.126 67.1661V59.7445C230.126 59.0567 230.075 58.5402 230.01 58.2106C229.929 57.8748 229.77 57.6031 229.561 57.3782C229.384 57.1851 229.161 57.0266 228.926 56.9485L228.921 56.9467C228.763 56.8834 228.603 56.8508 228.385 56.8172L228.4 56.6184H233.979L233.995 56.817C233.798 56.8499 233.618 56.8991 233.469 56.9485L233.468 56.9491C233.219 57.0268 233.013 57.1833 232.815 57.3808C232.548 57.648 232.386 58.0305 232.32 58.5236L232.319 58.5283C232.253 58.8896 232.253 59.2857 232.253 59.7614V67.183C232.253 67.7578 232.27 68.1715 232.336 68.4989C232.402 68.8321 232.484 69.0888 232.61 69.2935Z" fill="white"/>
<path d="M253.54 64.1045C253.066 63.4959 252.289 62.938 251.224 62.4309L249.803 61.7377C248.316 61.0277 247.555 60.081 247.555 58.8976C247.555 58.6102 247.606 58.3059 247.724 58.0016C247.825 57.6973 247.978 57.4437 248.18 57.2239C248.637 56.683 249.279 56.4125 250.057 56.4125C250.598 56.4125 251.071 56.5477 251.494 56.8182C251.9 57.0718 252.289 57.4775 252.627 58.0185C252.813 58.3059 252.965 58.644 253.1 58.9821C253.218 59.3033 253.371 59.7598 253.54 60.3346L253.472 56.6492C253.337 57.0549 253.1 57.1563 252.897 57.1563C252.796 57.1563 252.677 57.1394 252.525 57.0887C252.39 57.038 252.153 56.9535 251.832 56.8351C251.393 56.6492 251.021 56.5139 250.767 56.4632C250.513 56.3956 250.226 56.3787 249.922 56.3787C248.992 56.3787 248.164 56.6999 247.487 57.3254C247.099 57.6804 246.794 58.1199 246.574 58.6102C246.355 59.1005 246.253 59.6245 246.253 60.1655C246.253 61.0277 246.524 61.7716 247.082 62.3802C247.285 62.5999 247.555 62.8197 247.876 63.0395C248.214 63.2592 248.705 63.5297 249.33 63.8509C250.057 64.2229 250.598 64.5272 250.953 64.7807C251.325 65.0343 251.612 65.3048 251.815 65.5753C252.018 65.8458 252.17 66.167 252.289 66.5389C252.407 66.9108 252.458 67.2659 252.458 67.6209C252.458 68.4493 252.187 69.1424 251.663 69.6834C251.139 70.2243 250.463 70.4949 249.651 70.4949C248.502 70.4949 247.538 69.9031 246.777 68.7367C246.405 68.145 246.067 67.3335 245.78 66.3192L245.746 70.1736C245.898 69.8524 246.152 69.6834 246.507 69.6834C246.625 69.6834 246.727 69.6834 246.828 69.7341C246.913 69.7679 247.166 69.8693 247.589 70.0553C248.366 70.3934 249.195 70.5625 250.04 70.5625C250.953 70.5625 251.764 70.3427 252.441 69.937C253.117 69.5312 253.624 68.9395 253.962 68.1788C254.199 67.6378 254.317 67.063 254.317 66.4713C254.317 65.5753 254.047 64.7807 253.523 64.1214L253.54 64.1045Z" fill="white"/>
<path fill-rule="evenodd" clip-rule="evenodd" d="M253.522 64.1213C254.046 64.7807 254.317 65.5752 254.317 66.4712C254.317 67.0629 254.198 67.6377 253.962 68.1787C253.624 68.9394 253.116 69.5311 252.44 69.9369C251.787 70.3287 251.008 70.5471 250.133 70.5616C250.102 70.5621 250.071 70.5624 250.04 70.5624C249.909 70.5624 249.78 70.5584 249.651 70.5504C249.233 70.5245 248.821 70.4567 248.418 70.3471C248.137 70.2704 247.859 70.173 247.588 70.0552C247.166 69.8692 246.912 69.7678 246.827 69.734C246.726 69.6833 246.625 69.6833 246.506 69.6833C246.221 69.6833 246.001 69.7924 245.847 70.0019C245.809 70.0531 245.775 70.1104 245.746 70.1735L245.779 66.3191C245.811 66.4312 245.843 66.5408 245.876 66.6479C246.142 67.5101 246.446 68.2103 246.777 68.7366C247.256 69.4714 247.816 69.9782 248.452 70.2526C248.825 70.4137 249.225 70.4948 249.651 70.4948C249.784 70.4948 249.914 70.4875 250.04 70.4729C250.068 70.4695 250.097 70.4658 250.125 70.4617C250.729 70.3746 251.244 70.1151 251.662 69.6833C252.187 69.1423 252.457 68.4492 252.457 67.6208C252.457 67.2658 252.406 66.9107 252.288 66.5388C252.17 66.1669 252.017 65.8457 251.815 65.5752C251.612 65.3047 251.324 65.0342 250.952 64.7807C250.597 64.5271 250.056 64.2228 249.329 63.8508C248.704 63.5296 248.214 63.2591 247.876 63.0394C247.554 62.8196 247.284 62.5998 247.081 62.3801C246.523 61.7715 246.253 61.0276 246.253 60.1654C246.253 59.6244 246.354 59.1004 246.574 58.6101C246.794 58.1198 247.098 57.6803 247.487 57.3253C247.957 56.8905 248.5 56.6028 249.1 56.4677C249.363 56.4084 249.638 56.3786 249.921 56.3786C249.967 56.3786 250.012 56.3789 250.056 56.3798C250.311 56.3848 250.551 56.4056 250.766 56.4631C250.949 56.4996 251.192 56.5797 251.478 56.691C251.59 56.7345 251.708 56.7828 251.832 56.835C251.992 56.8942 252.132 56.945 252.248 56.9872C252.364 57.0295 252.457 57.0633 252.525 57.0886C252.677 57.1393 252.795 57.1562 252.897 57.1562C253.057 57.1562 253.239 57.0925 253.375 56.8641C253.411 56.8043 253.443 56.7332 253.471 56.6491L253.539 60.3345C253.503 60.2109 253.467 60.0928 253.432 59.9804C253.306 59.5697 253.192 59.2342 253.099 58.982C252.964 58.6439 252.812 58.3058 252.626 58.0184C252.288 57.4774 251.899 57.0717 251.493 56.8181C251.474 56.8055 251.454 56.7932 251.434 56.7811C251.222 56.6535 250.998 56.559 250.76 56.4977C250.759 56.4975 250.758 56.4973 250.757 56.4971C250.537 56.4406 250.304 56.4124 250.056 56.4124C250.011 56.4124 249.966 56.4133 249.921 56.4152C249.637 56.427 249.371 56.4766 249.128 56.564C248.758 56.6967 248.439 56.9167 248.18 57.2238C247.977 57.4436 247.825 57.6972 247.723 58.0015C247.605 58.3058 247.554 58.6101 247.554 58.8975C247.554 60.0809 248.315 61.0276 249.803 61.7376L251.223 62.4308C252.288 62.9379 253.066 63.4958 253.539 64.1044L253.522 64.1213ZM253.655 64.1297C254.158 64.7935 254.417 65.5855 254.417 66.4712C254.417 67.0765 254.296 67.6649 254.053 68.2188C253.707 68.9967 253.187 69.6054 252.492 70.0226C251.798 70.4386 250.969 70.6624 250.04 70.6624C249.181 70.6624 248.339 70.4906 247.548 70.1469C247.127 69.9616 246.874 69.8604 246.79 69.8268L246.783 69.8237C246.706 69.7852 246.628 69.7833 246.506 69.7833C246.345 69.7833 246.213 69.8214 246.104 69.8918C245.996 69.9623 245.906 70.0692 245.836 70.2164L245.646 70.1727L245.679 66.3182L245.876 66.2918C246.161 67.3003 246.496 68.1018 246.861 68.6826C247.608 69.8274 248.543 70.3948 249.651 70.3948C250.438 70.3948 251.087 70.1334 251.591 69.6137C252.095 69.093 252.357 68.4255 252.357 67.6208C252.357 67.2757 252.308 66.931 252.193 66.5691C252.077 66.2048 251.929 65.8944 251.735 65.6352C251.54 65.3751 251.261 65.1119 250.896 64.8633L250.894 64.862C250.546 64.6131 250.011 64.3116 249.284 63.9399C248.658 63.6184 248.164 63.3459 247.821 63.1232L247.819 63.1219C247.494 62.8998 247.217 62.6752 247.008 62.4479C246.431 61.8193 246.153 61.0504 246.153 60.1654C246.153 59.6118 246.257 59.0736 246.483 58.5692C246.707 58.068 247.019 57.6169 247.419 57.2516C248.114 56.6089 248.967 56.2786 249.921 56.2786C250.227 56.2786 250.523 56.2953 250.789 56.3657C251.053 56.4189 251.431 56.5571 251.868 56.742C252.027 56.8004 252.166 56.8508 252.281 56.893C252.397 56.9351 252.49 56.969 252.558 56.9943C252.7 57.0416 252.808 57.0562 252.897 57.0562C252.981 57.0562 253.068 57.0355 253.149 56.9748C253.231 56.9138 253.314 56.8061 253.376 56.6174L253.571 56.6472L253.639 60.3326L253.443 60.3627C253.275 59.7903 253.123 59.3365 253.006 59.0179C252.872 58.682 252.723 58.3515 252.542 58.0727L252.541 58.0714C252.209 57.54 251.83 57.1466 251.44 56.9029L251.44 56.9023C251.034 56.6428 250.58 56.5124 250.056 56.5124C249.304 56.5124 248.691 56.7731 248.256 57.2883L248.253 57.2917C248.06 57.5011 247.915 57.7422 247.818 58.0331L247.817 58.0378C247.703 58.33 247.654 58.6219 247.654 58.8975C247.654 60.0267 248.376 60.946 249.846 61.6474L251.266 62.3405C251.266 62.3406 251.266 62.3404 251.266 62.3405C252.338 62.8509 253.131 63.4172 253.618 64.043L253.672 64.1127L253.655 64.1297Z" fill="white"/>
<path d="M277.747 67.8415C277.595 68.2134 277.376 68.5684 277.139 68.8558C276.784 69.2954 276.311 69.6335 275.753 69.8532C275.195 70.073 274.502 70.1745 273.69 70.1745C272.879 70.1745 272.27 70.0561 271.78 69.8194C271.29 69.5827 270.918 69.1939 270.681 68.6868C270.546 68.3994 270.444 68.0274 270.394 67.5879C270.343 67.1653 270.326 66.489 270.326 65.5592V63.1248H271.036C271.543 63.1248 271.966 63.1755 272.304 63.277C272.642 63.3784 272.929 63.5644 273.149 63.7841C273.369 64.0208 273.538 64.3082 273.673 64.6294C273.775 64.8999 273.859 65.238 273.91 65.6268L273.944 60.8426C273.893 61.2145 273.825 61.5019 273.741 61.7216C273.656 62.009 273.504 62.2457 273.301 62.4655C273.082 62.6853 272.811 62.8543 272.49 62.9389C272.169 63.0234 271.695 63.0572 271.07 63.0572H270.326V56.7514H272.76C273.47 56.7514 274.062 56.8021 274.502 56.9035C274.941 57.005 275.33 57.174 275.668 57.4276C276.057 57.715 276.378 58.07 276.581 58.442C276.75 58.7632 276.885 59.1351 276.97 59.5746L276.818 56.7007H266.556C266.776 56.7345 266.945 56.7683 267.114 56.8359C267.367 56.9205 267.604 57.0895 267.79 57.2924C268.01 57.529 268.162 57.8164 268.247 58.1715C268.314 58.5265 268.365 59.0167 268.365 59.7268V67.1483C268.365 67.8415 268.314 68.3655 268.247 68.7036C268.162 69.0587 268.01 69.363 267.773 69.5827C267.57 69.7856 267.334 69.9547 267.08 70.0392C266.928 70.0899 266.742 70.1406 266.539 70.1745H277.984L278.103 66.5228C277.984 67.0469 277.866 67.4695 277.731 67.8077L277.747 67.8415Z" fill="white"/>
<path fill-rule="evenodd" clip-rule="evenodd" d="M274.948 70.0744C275.241 70.0221 275.509 69.9489 275.752 69.8531C276.31 69.6334 276.784 69.2953 277.139 68.8557C277.375 68.5683 277.595 68.2133 277.747 67.8414L277.73 67.8076C277.822 67.5789 277.906 67.3117 277.987 67.0005C278.026 66.8515 278.064 66.6924 278.102 66.5227L277.984 70.1744H273.69C274.148 70.1744 274.568 70.142 274.948 70.0744ZM273.69 70.0744C274.494 70.0744 275.174 69.9737 275.716 69.7601C276.259 69.5461 276.718 69.2179 277.061 68.7929C277.283 68.5234 277.49 68.192 277.637 67.8452L277.621 67.8121L277.638 67.7704C277.77 67.4395 277.887 67.0228 278.005 66.5007L278.202 66.526L278.081 70.2744H266.539L266.522 70.0757C266.719 70.0429 266.9 69.9936 267.048 69.9442C267.283 69.8662 267.506 69.7079 267.702 69.5119L267.705 69.5093C267.923 69.307 268.067 69.0232 268.149 68.6822C268.214 68.3525 268.265 67.8361 268.265 67.1482V59.7267C268.265 59.0228 268.215 58.5396 268.149 58.1923C268.068 57.8537 267.923 57.5829 267.717 57.3603C267.54 57.1673 267.316 57.0088 267.082 56.9307L267.076 56.9288C266.918 56.8656 266.759 56.833 266.541 56.7994L266.556 56.6006H276.912L277.07 59.5692L276.871 59.5934C276.789 59.1636 276.657 58.8012 276.493 58.4891C276.298 58.1321 275.987 57.7879 275.608 57.5079C275.283 57.264 274.907 57.0997 274.479 57.0009C274.05 56.9019 273.467 56.8513 272.76 56.8513H270.426V62.9571H271.07C271.694 62.9571 272.156 62.923 272.464 62.8421C272.766 62.7627 273.021 62.6041 273.229 62.3961C273.423 62.1852 273.566 61.962 273.645 61.6933L273.647 61.6855C273.728 61.4756 273.794 61.1966 273.844 60.8289L274.044 60.8432L274.01 65.6274L273.811 65.6397C273.761 65.2582 273.678 64.9283 273.58 64.6663C273.448 64.354 273.286 64.0786 273.077 63.8534C272.868 63.6449 272.595 63.4687 272.275 63.3726C271.949 63.2749 271.537 63.2247 271.036 63.2247H270.426V65.5591C270.426 66.4896 270.443 67.1601 270.493 67.5759C270.542 68.0073 270.642 68.3687 270.771 68.6441C270.999 69.1317 271.355 69.5032 271.823 69.7293C272.295 69.9573 272.888 70.0744 273.69 70.0744ZM272.557 70.0744C272.886 70.141 273.259 70.1744 273.69 70.1744H266.539C266.694 70.1484 266.84 70.1125 266.968 70.0744C267.007 70.0627 267.044 70.0509 267.08 70.0391C267.333 69.9546 267.57 69.7855 267.773 69.5826C268.01 69.3629 268.162 69.0586 268.246 68.7035C268.314 68.3654 268.365 67.8414 268.365 67.1482V59.7267C268.365 59.0166 268.314 58.5264 268.246 58.1714C268.162 57.8163 268.01 57.5289 267.79 57.2923C267.604 57.0894 267.367 56.9204 267.114 56.8358C267.081 56.8229 267.049 56.8113 267.017 56.8006C266.878 56.7553 266.734 56.7279 266.556 56.7006H276.818L276.97 59.5745C276.935 59.3963 276.893 59.2291 276.843 59.072C276.77 58.8417 276.681 58.6328 276.581 58.4419C276.378 58.0699 276.057 57.7149 275.668 57.4275C275.33 57.1739 274.941 57.0049 274.501 56.9034C274.312 56.8597 274.094 56.8255 273.851 56.8006C273.53 56.7677 273.164 56.7513 272.76 56.7513H270.326V63.0571H271.07C271.257 63.0571 271.431 63.054 271.591 63.0475C271.965 63.0323 272.265 62.9979 272.49 62.9388C272.811 62.8542 273.081 62.6852 273.301 62.4654C273.504 62.2456 273.656 62.0089 273.741 61.7216C273.777 61.6278 273.81 61.5218 273.84 61.4022C273.88 61.2413 273.914 61.0558 273.944 60.8425L273.91 65.6267C273.885 65.4373 273.852 65.2599 273.813 65.0965C273.773 64.9245 273.725 64.768 273.673 64.6293C273.538 64.3081 273.369 64.0207 273.149 63.784C272.929 63.5643 272.642 63.3783 272.304 63.2769C272.097 63.2149 271.859 63.1718 271.589 63.1477C271.427 63.1333 271.254 63.1256 271.07 63.1248C271.058 63.1247 271.047 63.1247 271.036 63.1247H270.326V65.5591C270.326 66.4889 270.343 67.1652 270.393 67.5878C270.444 68.0273 270.546 68.3993 270.681 68.6867C270.917 69.1938 271.289 69.5826 271.78 69.8193C272.01 69.9304 272.266 70.0154 272.557 70.0744Z" fill="white"/>
<path d="M297.68 64.1045C297.206 63.4959 296.429 62.938 295.364 62.4309L293.943 61.7377C292.456 61.0277 291.712 60.081 291.712 58.8976C291.712 58.6102 291.763 58.3059 291.881 58.0016C291.982 57.6973 292.135 57.4437 292.337 57.2239C292.794 56.683 293.436 56.4125 294.214 56.4125C294.755 56.4125 295.245 56.5477 295.651 56.8182C296.057 57.0718 296.445 57.4775 296.767 58.0185C296.953 58.3059 297.122 58.644 297.257 58.9821C297.375 59.3033 297.527 59.7598 297.696 60.3346L297.629 56.6492C297.494 57.0549 297.257 57.1563 297.054 57.1563C296.953 57.1563 296.834 57.1394 296.699 57.0887C296.564 57.038 296.327 56.9535 296.006 56.8351C295.566 56.6492 295.211 56.5139 294.941 56.4632C294.687 56.3956 294.4 56.3787 294.096 56.3787C293.166 56.3787 292.337 56.6999 291.661 57.3254C291.272 57.6804 290.968 58.1199 290.748 58.6102C290.529 59.1005 290.41 59.6245 290.41 60.1655C290.41 61.0277 290.698 61.7716 291.239 62.3802C291.441 62.5999 291.712 62.8197 292.033 63.0395C292.354 63.2592 292.845 63.5297 293.487 63.8509C294.214 64.2229 294.755 64.5272 295.127 64.7807C295.499 65.0343 295.786 65.3048 295.972 65.5753C296.175 65.8458 296.327 66.167 296.445 66.5389C296.564 66.9108 296.615 67.2659 296.615 67.6209C296.615 68.4493 296.344 69.1424 295.82 69.6834C295.296 70.2243 294.62 70.4949 293.808 70.4949C292.659 70.4949 291.678 69.9031 290.934 68.7367C290.562 68.145 290.224 67.3335 289.954 66.3192L289.92 70.1736C290.072 69.8524 290.326 69.6834 290.681 69.6834C290.799 69.6834 290.9 69.6834 290.985 69.7341C291.069 69.7679 291.323 69.8693 291.746 70.0553C292.523 70.3934 293.352 70.5625 294.18 70.5625C295.093 70.5625 295.905 70.3427 296.581 69.937C297.24 69.5312 297.764 68.9395 298.102 68.1788C298.339 67.6378 298.474 67.063 298.474 66.4713C298.474 65.5753 298.204 64.7807 297.68 64.1214V64.1045Z" fill="white"/>
<path fill-rule="evenodd" clip-rule="evenodd" d="M297.779 64.0867C298.304 64.7592 298.574 65.5663 298.574 66.4712C298.574 67.0784 298.435 67.6667 298.193 68.2188C297.847 68.9976 297.309 69.6055 296.633 70.022L296.632 70.0226C295.938 70.4386 295.109 70.6624 294.18 70.6624C293.338 70.6624 292.496 70.4905 291.705 70.1469C291.284 69.9616 291.031 69.8604 290.947 69.8269L290.94 69.8239L290.933 69.8197C290.877 69.786 290.806 69.7833 290.68 69.7833C290.519 69.7833 290.386 69.8214 290.278 69.8918C290.17 69.9623 290.079 70.0692 290.01 70.2164L289.819 70.1727L289.853 66.3182L290.05 66.2933C290.319 67.301 290.653 68.1023 291.018 68.6831C291.748 69.8267 292.699 70.3948 293.808 70.3948C294.595 70.3948 295.244 70.1334 295.748 69.6137C296.252 69.093 296.514 68.4255 296.514 67.6208C296.514 67.2757 296.465 66.931 296.35 66.5691C296.234 66.2048 296.086 65.8944 295.892 65.6352L295.889 65.6319C295.712 65.3746 295.435 65.1123 295.07 64.8633C294.703 64.6134 294.167 64.3115 293.441 63.9401C292.798 63.6186 292.303 63.3457 291.976 63.1219C291.651 62.8998 291.374 62.6752 291.164 62.4479L291.163 62.4465C290.606 61.8193 290.31 61.0517 290.31 60.1654C290.31 59.6096 290.431 59.0716 290.656 58.5692C290.881 58.068 291.193 57.6169 291.593 57.2516C292.288 56.6089 293.141 56.2786 294.095 56.2786C294.4 56.2786 294.697 56.2953 294.962 56.3655C295.244 56.4189 295.607 56.5578 296.042 56.742C296.201 56.8004 296.339 56.8509 296.455 56.893C296.572 56.9355 296.666 56.9696 296.734 56.995C296.857 57.0413 296.964 57.0562 297.053 57.0562C297.138 57.0562 297.225 57.0355 297.306 56.9748C297.388 56.9138 297.471 56.8061 297.533 56.6174L297.728 56.6472L297.796 60.3326L297.6 60.3627C297.432 59.7903 297.28 59.3365 297.163 59.0179C297.03 58.6851 296.864 58.3534 296.682 58.0727L296.68 58.0695C296.365 57.5396 295.987 57.1466 295.597 56.9029L295.595 56.9013C295.208 56.6433 294.738 56.5124 294.213 56.5124C293.461 56.5124 292.848 56.7731 292.413 57.2883L292.41 57.2917C292.217 57.5011 292.072 57.7422 291.975 58.0331L291.974 58.0378C291.86 58.33 291.811 58.6219 291.811 58.8975C291.811 60.0274 292.517 60.9464 293.986 61.6474L295.406 62.3405C295.406 62.3406 295.406 62.3404 295.406 62.3405C296.478 62.8509 297.271 63.4172 297.758 64.043L297.779 64.0701V64.0867ZM295.363 62.4308C296.428 62.9379 297.206 63.4958 297.679 64.1044V64.1213C298.203 64.7807 298.474 65.5752 298.474 66.4712C298.474 67.0629 298.338 67.6377 298.102 68.1787C297.764 68.9394 297.239 69.5311 296.58 69.9369C295.932 70.3258 295.16 70.5438 294.293 70.5612C294.255 70.562 294.217 70.5624 294.18 70.5624C294.056 70.5624 293.931 70.5586 293.808 70.551C293.389 70.5254 292.973 70.4565 292.565 70.3444C292.287 70.268 292.013 70.1716 291.745 70.0552C291.323 69.8692 291.069 69.7678 290.984 69.734C290.9 69.6833 290.798 69.6833 290.68 69.6833C290.395 69.6833 290.175 69.7924 290.021 70.0019C289.983 70.0531 289.949 70.1104 289.919 70.1735L289.953 66.3191C289.985 66.4369 290.017 66.552 290.05 66.6644C290.303 67.519 290.605 68.2136 290.934 68.7366C291.401 69.469 291.961 69.9749 292.598 70.2499C292.976 70.4128 293.38 70.4948 293.808 70.4948C293.935 70.4948 294.059 70.4881 294.18 70.4748C294.215 70.4709 294.25 70.4664 294.285 70.4614C294.887 70.3739 295.402 70.1145 295.819 69.6833C296.343 69.1423 296.614 68.4492 296.614 67.6208C296.614 67.2658 296.563 66.9107 296.445 66.5388C296.327 66.1669 296.174 65.8457 295.972 65.5752C295.786 65.3047 295.498 65.0342 295.126 64.7807C294.754 64.5271 294.213 64.2228 293.486 63.8508C292.844 63.5296 292.354 63.2591 292.033 63.0394C291.711 62.8196 291.441 62.5998 291.238 62.3801C290.697 61.7715 290.41 61.0276 290.41 60.1654C290.41 59.6244 290.528 59.1004 290.748 58.6101C290.967 58.1198 291.272 57.6803 291.661 57.3253C292.118 56.9019 292.646 56.6179 293.227 56.4786C293.505 56.4121 293.795 56.3786 294.095 56.3786C294.135 56.3786 294.174 56.3789 294.213 56.3795C294.474 56.3838 294.72 56.4043 294.94 56.4631C295.123 56.4974 295.345 56.5705 295.606 56.6718C295.73 56.7201 295.863 56.7749 296.005 56.835C296.166 56.8942 296.306 56.945 296.422 56.9873C296.538 57.0295 296.631 57.0633 296.698 57.0886C296.834 57.1393 296.952 57.1562 297.053 57.1562C297.214 57.1562 297.396 57.0925 297.532 56.8641C297.568 56.8043 297.6 56.7332 297.628 56.6491L297.696 60.3345C297.66 60.2109 297.624 60.0928 297.589 59.9803C297.463 59.5697 297.349 59.2342 297.256 58.982C297.121 58.6439 296.952 58.3058 296.766 58.0184C296.445 57.4774 296.056 57.0717 295.65 56.8181C295.621 56.7987 295.592 56.78 295.562 56.762C295.369 56.6459 295.158 56.5588 294.933 56.5005C294.932 56.5003 294.931 56.5 294.931 56.4998C294.705 56.4415 294.464 56.4124 294.213 56.4124C294.174 56.4124 294.134 56.4131 294.095 56.4145C293.793 56.4255 293.512 56.4788 293.256 56.5745C292.899 56.7082 292.589 56.9246 292.337 57.2238C292.134 57.4436 291.982 57.6972 291.88 58.0015C291.762 58.3058 291.711 58.6101 291.711 58.8975C291.711 60.0809 292.455 61.0276 293.943 61.7376L295.363 62.4308Z" fill="white"/>
<path d="M5.62894 49.974C2.58458 45.4664 1.17263 42.0117 0.837891 41.1166C16.948 10.0026 44.0182 1.57215 60.0289 0.359131C54.1584 1.92635 20.73 8.85026 5.62894 49.974Z" fill="white"/>
<path d="M6.87891 51.779C8.60131 54.1856 10.6826 56.8154 13.1328 59.4695C24.612 10.3059 64.139 1.84387 69.9756 0.359131C69.9756 0.359131 22.4287 2.54256 6.88134 51.779H6.87891Z" fill="white"/>
<path d="M45.9974 11.8178C34.312 19.6514 19.2717 35.1781 14.5801 60.3942C16.7997 62.6723 19.655 65.3071 22.4253 67.4444C23.1531 56.2846 29.7029 14.0715 77.6137 0.364441C77.6137 0.364441 64.3927 -0.242068 45.9974 11.8178Z" fill="white"/>
<path d="M24.7383 60.9983C25.1919 58.2059 25.8056 55.5688 26.4557 53.2156C29.7452 58.2569 43.8492 75.6563 70.2159 82.3596C56.3424 81.3333 43.8298 75.3872 36.7511 70.7631C30.4463 66.6461 26.2641 62.5776 24.7383 60.9983Z" fill="white"/>
<path d="M35.0651 71.5406C40.6857 75.3079 49.3631 79.9268 60.5779 82.2701C40.7973 80.6958 28.486 71.6497 23.8818 68.7727C23.9181 66.6937 24.2141 64.7481 24.481 62.7468C25.8055 64.1586 29.4079 67.7513 35.0651 71.5406Z" fill="white"/>
<path d="M27.0371 51.5485C28.5969 46.3131 30.3121 42.936 30.3121 42.936C45.1098 71.5632 68.6408 78.8609 78.1016 81.7333C78.1016 81.7333 49.8403 81.6314 27.0371 51.5485Z" fill="white"/>
<path d="M82.3453 60.5248H83.0731L78.2213 69.7439L77.7361 67.803H77.7337C77.6681 67.8006 77.6027 67.8006 77.5397 67.7981C61.4707 67.5894 48.1406 55.8329 48.1406 41.3591C48.1406 26.8855 61.575 15.0342 77.7337 14.9178H77.7361L78.2213 13.4597L83.0731 22.4361H82.3453C79.7277 19.5419 77.9787 18.4477 76.7464 18.0449C76.3995 17.9309 76.0307 17.8873 75.6669 17.9163C62.0117 18.9451 51.2943 28.9936 51.2943 41.2402C51.2943 53.487 62.5066 63.994 76.6056 64.6224C77.0932 64.6443 77.576 64.5351 78.0079 64.3119C79.1868 63.7054 80.487 62.5821 82.3453 60.5297V60.5248Z" fill="white"/>
</svg>
