<svg id="mail-icon-white" xmlns="http://www.w3.org/2000/svg" width="15.347" height="11.511" viewBox="0 0 15.347 11.511">
  <path id="Path_5077" data-name="Path 5077" d="M7.027,64.934c2.106,1.784,5.8,4.922,6.889,5.9a.642.642,0,0,0,.928,0c1.087-.979,4.783-4.118,6.89-5.9a.32.32,0,0,0,.045-.441,1.27,1.27,0,0,0-1-.493H7.985a1.27,1.27,0,0,0-1,.493A.319.319,0,0,0,7.027,64.934Z" transform="translate(-6.706 -64)" fill="#fff"/>
  <path id="Path_5078" data-name="Path 5078" d="M15.162,126.441a.318.318,0,0,0-.341.046c-2.336,1.98-5.317,4.518-6.255,5.364a1.3,1.3,0,0,1-1.785,0c-1-.9-4.348-3.747-6.255-5.363a.32.32,0,0,0-.526.244v8.041a1.28,1.28,0,0,0,1.279,1.279h12.79a1.28,1.28,0,0,0,1.279-1.279v-8.041A.32.32,0,0,0,15.162,126.441Z" transform="translate(0 -124.541)" fill="#fff"/>
</svg>
