<svg xmlns="http://www.w3.org/2000/svg" width="22.176" height="15.526" viewBox="0 0 22.176 15.526">
  <path id="youtube" d="M21.719-3.652a2.778,2.778,0,0,0-1.954-1.955c-1.735-.475-8.677-.475-8.677-.475s-6.941,0-8.676.457A2.834,2.834,0,0,0,.457-3.652,29.273,29.273,0,0,0,0,1.681,29.165,29.165,0,0,0,.457,7.015,2.779,2.779,0,0,0,2.412,8.969c1.753.475,8.677.475,8.677.475s6.941,0,8.676-.457A2.778,2.778,0,0,0,21.72,7.033,29.282,29.282,0,0,0,22.176,1.7a27.787,27.787,0,0,0-.457-5.352ZM8.878,5.006V-1.643L14.65,1.681Zm0,0" transform="translate(-0.001 6.082)" fill="#fff"/>
</svg>
