<svg width="34" height="35" viewBox="0 0 34 35" fill="none" xmlns="http://www.w3.org/2000/svg">
<path d="M1.97407 20.9671C0.719692 19.0622 0.137923 17.6023 0 17.224C6.63789 4.07531 17.7917 0.512617 24.3886 0C21.9697 0.662304 8.19619 3.58832 1.97407 20.9671Z" fill="white"/>
<path d="M2.48926 21.7299C3.19894 22.7469 4.0565 23.8583 5.06605 24.9799C9.79587 4.20346 26.0822 0.627447 28.4871 0C28.4871 0 8.89628 0.922711 2.49026 21.7299H2.48926Z" fill="white"/>
<path d="M18.6071 5.09634C13.7923 8.40683 7.59521 14.9683 5.66211 25.6246C6.57665 26.5873 7.75314 27.7008 8.89461 28.604C9.19447 23.8879 11.8932 6.04876 31.634 0.2562C31.634 0.2562 26.1865 -0.000109388 18.6071 5.09634Z" fill="white"/>
<path d="M9.84814 25.6258C10.035 24.4457 10.2879 23.3313 10.5558 22.3368C11.9112 24.4673 17.7225 31.8202 28.5864 34.653C22.87 34.2193 17.7145 31.7065 14.7978 29.7523C12.2 28.0125 10.4768 26.2932 9.84814 25.6258Z" fill="white"/>
<path d="M14.103 30.081C16.4189 31.673 19.9942 33.625 24.615 34.6152C16.4648 33.95 11.3922 30.1271 9.49512 28.9113C9.51007 28.0327 9.63204 27.2105 9.742 26.3648C10.2877 26.9614 11.772 28.4797 14.103 30.081Z" fill="white"/>
<path d="M10.7949 21.6325C11.4376 19.42 12.1443 17.9929 12.1443 17.9929C18.2415 30.0906 27.937 33.1746 31.8351 34.3885C31.8351 34.3885 20.1906 34.3454 10.7949 21.6325Z" fill="white"/>
<path d="M33.5837 25.4259H33.8835L31.8844 29.3218L31.6845 28.5016H31.6835C31.6565 28.5006 31.6296 28.5006 31.6036 28.4995C24.9827 28.4113 19.4902 23.4431 19.4902 17.3265C19.4902 11.21 25.0256 6.20167 31.6835 6.15246H31.6845L31.8844 5.53629L33.8835 9.32969H33.5837C32.5051 8.10658 31.7845 7.6442 31.2767 7.47399C31.1338 7.4258 30.9819 7.40739 30.8319 7.41965C25.2056 7.85438 20.7896 12.1009 20.7896 17.2763C20.7896 22.4517 25.4095 26.8919 31.2187 27.1575C31.4196 27.1667 31.6186 27.1206 31.7965 27.0263C32.2823 26.77 32.818 26.2953 33.5837 25.4279V25.4259Z" fill="white"/>
</svg>
